<?xml version="1.0" standalone="no"?>
<!DOCTYPE svg PUBLIC "-//W3C//DTD SVG 1.1//EN" "http://www.w3.org/Graphics/SVG/1.1/DTD/svg11.dtd" >
<svg xmlns="http://www.w3.org/2000/svg" xmlns:xlink="http://www.w3.org/1999/xlink" version="1.1">
<metadata>
Created by FontForge 20161116 at Mon May 19 21:24:06 2014
 By Jimmy Wärting
</metadata>
<defs>
<font id="etmodules" horiz-adv-x="512" >
  <font-face 
    font-family="etmodules"
    font-weight="400"
    font-stretch="normal"
    units-per-em="512"
    panose-1="0 0 0 0 0 0 0 0 0 0"
    ascent="480"
    descent="-32"
    x-height="416"
    cap-height="448"
    bbox="-2 -44 514 481"
    underline-thickness="0"
    underline-position="0"
    unicode-range="U+0001-FFFD"
  />
<missing-glyph horiz-adv-x="0" 
 />
    <glyph glyph-name=".notdef" unicode="&#xfffd;" horiz-adv-x="0" 
 />
    <glyph glyph-name="glyph1" horiz-adv-x="0" 
d="M0 0v0v0v0z" />
    <glyph glyph-name="glyph1" horiz-adv-x="0" 
d="M0 0v0v0v0z" />
    <glyph glyph-name="uni0001" horiz-adv-x="0" 
d="M0 0v0v0v0z" />
    <glyph glyph-name="space" unicode=" " horiz-adv-x="256" 
d="M0 0v0v0v0z" />
    <glyph glyph-name="exclam" unicode="!" 
d="M272 32q3 0 6 1.5t5 3.5t3.5 5t1.5 6v313l69 -68q2 -3 5 -4t6 -1t6 1t5 4q3 2 4 5t1 6t-1 6t-4 5l-96 96q0 1 -0.5 1.5t-1.5 1t-1.5 0.5t-1.5 1q-1 0 -2.5 0.5t-3.5 0.5t-3.5 -0.5t-2.5 -0.5q-1 -1 -1.5 -1t-1 -0.5t-1.5 -1t-1 -1.5v0v0v0v0l-96 -96q-3 -2 -4 -5t-1 -6
t1 -6t4 -5q2 -3 5 -4t6 -1t6 1t5 4l69 68v-313q0 -3 1.5 -6t3.5 -5t5 -3.5t6 -1.5v0z" />
    <glyph glyph-name="quotedbl" unicode="&#x22;" 
d="M272 416q-3 0 -6 -1.5t-5 -3.5t-3.5 -5t-1.5 -6v-313l-69 68q-2 3 -5 4t-6 1t-6 -1t-5 -4q-3 -2 -4 -5t-1 -6t1 -6t4 -5l96 -96v0v0v0v0q0 -1 1 -1.5t1.5 -1t1 -0.5t1.5 -1q1 0 2.5 -0.5t3.5 -0.5t3.5 0.5t2.5 0.5q1 1 1.5 1t1.5 0.5t1.5 1t0.5 1.5l96 96q3 2 4 5t1 6
t-1 6t-4 5q-2 3 -5 4t-6 1t-6 -1t-5 -4l-69 -68v313q0 3 -1.5 6t-3.5 5t-5 3.5t-6 1.5v0z" />
    <glyph glyph-name="numbersign" unicode="#" 
d="M64 240v-1.5v-1.5t0.5 -1.5t0.5 -1.5q1 -1 1 -1.5t0.5 -1t1 -1.5t1.5 -1v0v0v0v0l96 -96q2 -3 5 -4t6 -1t6 1t5 4q3 2 4 5t1 6t-1 6t-4 5l-68 69h313q3 0 6 1.5t5 3.5t3.5 5t1.5 6t-1.5 6t-3.5 5t-5 3.5t-6 1.5h-313l68 69q3 2 4 5t1 6t-1 6t-4 5q-2 3 -5 4t-6 1t-6 -1
t-5 -4l-96 -96v0v0v0v0q-1 0 -1.5 -1t-1 -1.5t-0.5 -1t-1 -1.5q0 -1 -0.5 -1.5t-0.5 -1.5v-1.5v-1.5v0v0v0v0v0v0z" />
    <glyph glyph-name="dollar" unicode="$" 
d="M64 240q0 -3 1.5 -6t3.5 -5t5 -3.5t6 -1.5h313l-68 -69q-3 -2 -4 -5t-1 -6t1 -6t4 -5q2 -3 5 -4t6 -1t6 1t5 4l96 96q1 0 1.5 0.5t1 1.5t0.5 1.5t1 1.5q0 1 0.5 1.5t0.5 1.5v1.5v1.5v0v0v0v0v0v1.5v1.5t-0.5 1.5t-0.5 1.5q-1 1 -1 1.5t-0.5 1.5t-1 1.5t-1.5 0.5l-96 96
q-2 3 -5 4t-6 1t-6 -1t-5 -4q-3 -2 -4 -5t-1 -6t1 -6t4 -5l68 -69h-313q-3 0 -6 -1.5t-5 -3.5t-3.5 -5t-1.5 -6v0z" />
    <glyph glyph-name="percent" unicode="%" 
d="M64 240q0 -3 1.5 -6t3.5 -5t5 -3.5t6 -1.5t6 1.5t5 3.5t3.5 5t1.5 6v121l325 -324q2 -3 5 -4t6 -1t6 1t5 4q3 2 4 5t1 6t-1 6t-4 5l-324 325h121q3 0 6 1.5t5 3.5t3.5 5t1.5 6t-1.5 6t-3.5 5t-5 3.5t-6 1.5h-160h-1.5h-1.5t-1.5 -0.5t-1.5 -0.5q-1 -1 -1.5 -1t-1 -0.5
t-1.5 -1t-1 -1.5v0v0v0v0v0v0v0v0q-1 0 -1.5 -1t-1 -1.5t-0.5 -1t-1 -1.5q0 -1 -0.5 -1.5t-0.5 -1.5v-1.5v-1.5v0v-160v0z" />
    <glyph glyph-name="ampersand" unicode="&#x26;" 
d="M69 37q2 -2 5 -3.5t6 -1l6 1t5 4.5l325 323v-120q0 -4 1.5 -6.5t3.5 -5t5 -3.5l6 -2l6 2t5 3.5t3.5 5t1.5 6.5v159v2v1.5t-0.5 1.5t-0.5 2q-1 1 -2 2.5t-2 2t-2 2t-3 1.5q-1 1 -1.5 1t-1.5 0.5t-1.5 0t-1.5 0.5l-160 -1q-3 1 -6 -1t-5 -3.5t-3.5 -5t-1.5 -5.5
q0 -4 1.5 -6.5t3.5 -5t5 -3.5l6 -2l121 1l-324 -326q-3 -1 -4 -4.5t-1 -6t1 -6t4 -4.5v-1z" />
    <glyph glyph-name="quotesingle" unicode="'" 
d="M432 224q-3 0 -6 -1.5t-5 -3.5t-3.5 -5t-1.5 -6v-121l-325 324q-2 3 -5 4t-6 1t-6 -1t-5 -4q-3 -2 -4 -5t-1 -6t1 -6t4 -5l324 -325h-121q-3 0 -6 -1.5t-5 -3.5t-3.5 -5t-1.5 -6t1.5 -6t3.5 -5t5 -3.5t6 -1.5h160h1.5h1.5t1.5 0.5t1.5 0.5q2 1 3 2l2 2l2 2t2 3
q0 1 0.5 1.5t0.5 1.5v1.5v1.5v0v0v0v0v160q0 3 -1.5 6t-3.5 5t-5 3.5t-6 1.5v0z" />
    <glyph glyph-name="parenleft" unicode="(" 
d="M80 224q-3 0 -6 -1.5t-5 -3.5t-3.5 -5t-1.5 -6v-160v0v0v0v0v-1.5v-1.5t0.5 -1.5t0.5 -1.5q1 -1 1 -1.5t0.5 -1t1 -1.5t1.5 -1v0v0v0v0v0v0v0v0q0 -1 1 -1.5t1.5 -1t1 -0.5t1.5 -1q1 0 1.5 -0.5t1.5 -0.5h1.5h1.5h160q3 0 6 1.5t5 3.5t3.5 5t1.5 6t-1.5 6t-3.5 5t-5 3.5
t-6 1.5h-121l324 325q3 2 4 5t1 6t-1 6t-4 5q-2 3 -5 4t-6 1t-6 -1t-5 -4l-325 -324v121q0 3 -1.5 6t-3.5 5t-5 3.5t-6 1.5v0z" />
    <glyph glyph-name="parenright" unicode=")" 
d="M325 389q2 -2 5 -3.5t6 -1l6 1t5 4.5q3 1 4 4.5t1 6t-1 6t-4 4.5l-64 65l-0.5 1t-1.5 1t-1.5 0.5t-1.5 0.5q-1 1 -2.5 1t-3.5 0.5t-3.5 -0.5t-2.5 0q-1 -2 -1.5 -1.5t-1 -0.5t-1.5 -1t-1 -2q0 1 0 0.5v0v0t0 0.5l-64 -65q-3 -1 -4 -4.5t-1 -6t1 -6t4 -4.5q2 -4 5 -4.5
l6 -1t6 1t5 3.5l37 37v-403l-37 37q-2 2 -5 3.5t-6 1l-6 -1t-5 -4.5q-3 -1 -4 -4.5t-1 -6t1 -6t4 -4.5l64 -65q0 1 0 0.5v0v0t0 0.5q0 -2 1 -2t1.5 -1t1 -0.5t1.5 -1.5q1 1 2.5 0t3.5 -0.5t3.5 0.5t2.5 1q1 0 1.5 0.5t1.5 0.5t1.5 1l0.5 1l64 65q3 1 4 4.5t1 6t-1 6t-4 4.5
q-2 4 -5 4.5l-6 1t-6 -1t-5 -3.5l-37 -37v403l37 -37v0z" />
    <glyph glyph-name="asterisk" unicode="*" 
d="M292 -27q1 -1 2.5 -2t2.5 -1.5t3 -1t3 0.5q2 -1 3 -0.5t3 1t3 1.5t3 2l61 62q3 1 4 4.5t1.5 6.5t-1.5 6t-3 5q-4 3 -6 3.5t-6 1t-6 -1t-6 -2.5l-33 -35l-1 282q1 2 -1 5.5t-3.5 5t-5 3.5t-5.5 1q-4 1 -6.5 -1t-5 -3.5t-3.5 -5t-2 -5.5l1 -283l-38 38q-1 1 -4.5 3t-6 1.5
t-6 -1.5t-4.5 -4q-4 -1 -4.5 -4.5t-1 -6t1 -6t3.5 -5.5l64 -64v0zM207 129q4 -1 6.5 0.5t5 3.5t3.5 5.5t2 5.5l-1 282l38 -37q1 -2 4.5 -3.5t6 -1t6 1t4.5 4.5q4 1 4.5 4.5t1 6t-1 6t-3.5 4.5l-64 65q-1 0 -2.5 1.5t-2.5 1.5t-3 1t-3 0q-2 1 -3 0t-3 -1t-3 -1.5t-3 -1.5
l-61 -62q-3 -2 -4 -5.5t-1.5 -6t1.5 -6t3 -4.5q4 -3 6 -4t6 -1.5t6 1.5t6 3l33 35l1 -282q-1 -2 1 -5.5t3.5 -5.5t5 -3.5t5.5 -0.5v0z" />
    <glyph glyph-name="plus" unicode="+" 
d="M89 103q2 2 3.5 5t1.5 6t-1.5 6t-3.5 6l-34 34h281q3 0 6 1.5t5 3.5t3.5 5t1.5 6t-1.5 6t-3.5 5t-5 3.5t-6 1.5h-281l36 37q3 2 4 5t1 6t-1 6t-4 5q-2 3 -5 4t-6 1t-6 -1t-5 -4l-64 -64q-2 -1 -2.5 -2t-1 -2.5l-1 -3t-0.5 -3.5t0.5 -3.5l1 -3t1 -2.5t2.5 -2l61 -62
q3 -2 6 -3.5t6 -1.5t6 1.5t5 3.5v0zM507 283l-61 62q-3 2 -6 3t-6 1t-6 -1t-5 -3q-2 -3 -3.5 -6t-1.5 -6t1.5 -6t3.5 -5l34 -34h-281q-3 0 -6 -1.5t-5 -3.5t-3.5 -5t-1.5 -6q0 -4 1.5 -6.5t3.5 -5t5 -3.5t6 -1h281l-36 -37q-3 -2 -4 -5t-1 -6t1 -6t4 -6q2 -2 5 -3t6 -1t6 1
t5 3l64 64q2 1 2.5 2.5l1 3l1 3t0.5 3.5q0 1 -0.5 2.5l-1 3l-1 3t-2.5 2.5v0z" />
    <glyph glyph-name="comma" unicode="," 
d="M511 246q0 1 -0.5 1.5t-0.5 1.5t-1 1.5l-1 0.5l-65 64q-1 3 -4.5 4t-6 1t-6 -1t-4.5 -4q-4 -2 -4.5 -5l-1 -6t1 -6t3.5 -5l37 -37h-403l37 37q2 2 3.5 5t1 6l-1 6t-4.5 5q-1 3 -4.5 4t-6 1t-6 -1t-4.5 -4l-65 -64q1 0 0.5 0t0 0t0 0t0.5 0q-2 0 -2 -1t-1 -1.5t-0.5 -1
t-1.5 -1.5q1 -1 0 -1.5t-0.5 -1.5t0 -1.5t0.5 -1.5h-1q1 0 0.5 0t0 0t0 0t0.5 0q-1 -1 -0.5 -1.5t0 -1.5t0.5 -1.5t0 -1.5q2 -1 1.5 -1.5t0.5 -1t1 -1.5t2 -1q-1 0 -0.5 0t0 0t0 0t-0.5 0l65 -64q1 -3 4.5 -4t6 -1t6 1t4.5 4q4 2 4.5 5l1 6t-1 6t-3.5 5l-37 37h403l-37 -37
q-2 -2 -3.5 -5t-1 -6l1 -6t4.5 -5q1 -3 4.5 -4t6 -1t6 1t4.5 4l65 64l1 0.5t1 1.5t0.5 1.5t0.5 1.5q1 1 1 1.5t0.5 1.5t0 1.5t0.5 1.5q-1 0 -0.5 0t0 0t0 0t-0.5 0h1q-1 1 -0.5 1.5t0 1.5t-0.5 1.5t-1 1.5v0z" />
    <glyph glyph-name="hyphen" unicode="-" 
d="M64 240q0 -3 1.5 -6t3.5 -5t5 -3.5t6 -1.5t6 1.5t5 3.5t3.5 5t1.5 6v121l297 -297h-121q-3 0 -6 -1.5t-5 -3.5t-3.5 -5t-1.5 -6t1.5 -6t3.5 -5t5 -3.5t6 -1.5h160h1.5h1.5t1.5 0.5t1.5 0.5q2 1 3 2l2 2l2 2t2 3q0 1 0.5 1.5t0.5 1.5v1.5v1.5v0v0v0v0v160q0 3 -1.5 6
t-3.5 5t-5 3.5t-6 1.5t-6 -1.5t-5 -3.5t-3.5 -5t-1.5 -6v-121l-297 297h121q3 0 6 1.5t5 3.5t3.5 5t1.5 6t-1.5 6t-3.5 5t-5 3.5t-6 1.5h-160h-1.5h-1.5t-1.5 -0.5t-1.5 -0.5q-1 -1 -1.5 -1t-1 -0.5t-1.5 -1t-1 -1.5v0v0v0v0v0v0v0v0q-1 0 -1.5 -1t-1 -1.5t-0.5 -1t-1 -1.5
q0 -1 -0.5 -1.5t-0.5 -1.5v-1.5v-1.5v0v-160v0z" />
    <glyph glyph-name="period" unicode="." 
d="M80 224q-3 0 -6 -1.5t-5 -3.5t-3.5 -5t-1.5 -6v-160v0v0v0v0v-1.5v-1.5t0.5 -1.5t0.5 -1.5q1 -1 1 -1.5t0.5 -1t1 -1.5t1.5 -1v0v0v0v0v0v0v0v0q0 -1 1 -1.5t1.5 -1t1 -0.5t1.5 -1q1 0 1.5 -0.5t1.5 -0.5h1.5h1.5h160q3 0 6 1.5t5 3.5t3.5 5t1.5 6t-1.5 6t-3.5 5t-5 3.5
t-6 1.5h-121l297 297v-121q0 -3 1.5 -6t3.5 -5t5 -3.5t6 -1.5t6 1.5t5 3.5t3.5 5t1.5 6v160v1.5v1.5t-0.5 1.5t-0.5 1.5q-1 2 -2 3l-2 2l-2 2t-3 2q-1 0 -1.5 0.5t-1.5 0.5h-1.5h-1.5h-160q-3 0 -6 -1.5t-5 -3.5t-3.5 -5t-1.5 -6t1.5 -6t3.5 -5t5 -3.5t6 -1.5h121l-297 -297
v121q0 3 -1.5 6t-3.5 5t-5 3.5t-6 1.5v0z" />
    <glyph glyph-name="slash" unicode="/" 
d="M475 443q-2 2 -5 3.5t-6 1l-6 -1t-5 -4.5l-133 -131v88q0 4 -1.5 6.5t-3.5 5t-5 3.5l-6 2l-6 -2t-5 -3.5t-3.5 -5t-1.5 -6.5v-127q0 -1 0 -0.5v0v0t0 -0.5v-1v-1.5t0.5 -1.5l0.5 -1l1 -2l0.5 -1t1 -1.5l1.5 -1.5q0 1 0 0.5v0v0t0 0.5q0 -1 0 -0.5v0v0t0 -0.5l1 -1t1.5 -1
t1 -0.5t1.5 -0.5q1 -1 1.5 -1t1.5 -0.5t1.5 0t1.5 -0.5l128 1q3 -1 6 1t5 3.5t3.5 5t1.5 5.5q0 4 -1.5 6.5t-3.5 5t-5 3.5l-6 2l-89 -1l132 134q3 1 4 4.5t1 6t-1 6t-4 4.5v1zM37 5q2 -4 5 -4.5l6 -1t6 1t5 3.5l133 133v-90q0 -2 1.5 -5.5t3.5 -5t5 -3.5t6 -1q3 -1 6 1
t5 3.5t3.5 5t1.5 5.5v129v1v1.5t-0.5 1.5l-0.5 1q-1 3 -2 3.5t-2 2t-2 2t-3 2.5q-1 -1 -1.5 0t-1.5 0.5t-1.5 0t-1.5 -0.5l-128 1l-6 -2t-5 -3.5t-3.5 -5t-1.5 -6.5q0 -2 1.5 -5.5t3.5 -5t5 -3.5t6 -1l89 -1l-132 -132q-3 -3 -4 -5.5t-1 -6t1 -6t4 -5.5v1z" />
    <glyph glyph-name="zero" unicode="0" 
d="M479 438q-1 1 -2 2.5t-2 2t-2 2t-3 1.5q-1 1 -1.5 1t-1.5 0.5t-1.5 0t-1.5 0.5l-128 -1q-3 1 -6 -1t-5 -3.5t-3.5 -5t-1.5 -5.5q0 -4 1.5 -6.5t3.5 -5t5 -3.5l6 -2l89 1l-132 -134q-3 -1 -4 -4.5t-1 -6t1 -6t4 -4.5q2 -4 5 -4.5l6 -1t6 1t5 3.5l133 133v-90
q0 -2 1.5 -5.5t3.5 -5t5 -3.5t6 -1q3 -1 6 1t5 3.5t3.5 5t1.5 5.5v129v1v1.5t-0.5 1.5l-0.5 1v1zM48 160l-6 -2t-5 -3.5t-3.5 -5t-1.5 -6.5v-127q0 -1 0 -0.5v0v0t0 -0.5v-1v-1.5t0.5 -1.5l0.5 -1l1 -2l0.5 -1t1 -1.5l1.5 -1.5q0 1 0 0.5v0v0t0 0.5q0 -1 0 -0.5v0v0t0 -0.5
l1 -1t1.5 -1t1 -0.5t1.5 -0.5q1 -1 1.5 -1t1.5 -0.5t1.5 0t1.5 -0.5l128 1q3 -1 6 1t5 3.5t3.5 5t1.5 5.5q0 4 -1.5 6.5t-3.5 5t-5 3.5l-6 2l-89 -1l132 134q3 1 4 4.5t1 6t-1 6t-4 4.5q-2 4 -5 4.5l-6 1t-6 -1t-5 -3.5l-133 -133v90q0 2 -1.5 5.5t-3.5 5t-5 3.5t-6 1v1z
" />
    <glyph glyph-name="one" unicode="1" 
d="M511 214q0 1 -0.5 1.5t-0.5 1.5t-1 1.5l-1 0.5l-65 64q-1 3 -4.5 4t-6 1t-6 -1t-4.5 -4q-4 -2 -4.5 -5l-1 -6t1 -6t3.5 -5l37 -37h-170l1 169l36 -36q3 -3 5.5 -4t6 -1t6 1t5.5 4q2 2 3.5 5t1 6l-1 6t-4.5 5l-63 64q-1 0 -0.5 0t0 0t0 0t-0.5 0q1 1 -0.5 1.5t-1.5 1
t-1 0.5t-1 1q-2 0 -2 0.5t-1.5 0.5h-1.5h-2q1 0 0.5 0t0 0t0 0t0.5 0h-2h-1.5t-1.5 -0.5t-2 -0.5q0 -1 -1 -1t-1 -0.5t-1.5 -1t-0.5 -1.5q-1 0 -0.5 0t0 0t0 0t-0.5 0l-63 -64q-4 -2 -4.5 -5l-1 -6t1 -6t3.5 -5q3 -3 5.5 -4t6 -1t6 1t5.5 4l36 36l1 -169h-170l37 37
q2 2 3.5 5t1 6l-1 6t-4.5 5q-1 3 -4.5 4t-6 1t-6 -1t-4.5 -4l-65 -64q1 0 0.5 0t0 0t0 0t0.5 0q-2 0 -2 -1t-1 -1.5t-0.5 -1t-1.5 -1.5q1 -1 0 -1.5t-0.5 -1.5t0 -1.5t0.5 -1.5q-1 0 -0.5 0t0 0t0 0t-0.5 0q1 -1 0.5 -1.5t0 -1.5t0.5 -1.5t1 -1.5q0 -1 0.5 -1.5t0.5 -1
t1 -1.5l1 -1q1 0 0.5 0t0 0t0 0t0.5 0l63 -64q3 -3 5.5 -4t6 -1t6 1t5.5 4q2 2 3.5 5t1 6l-1 6t-4.5 5l-35 37h168l1 -169l-38 36q-1 3 -4.5 4t-6 1t-6 -1t-4.5 -4q-4 -2 -4.5 -5l-1 -6t1 -6t3.5 -5l65 -64q-1 -1 0 -1.5t1.5 -1t1.5 -0.5t1 -1q2 0 2 -0.5t1.5 -0.5h1.5h2
q-1 0 -0.5 0t0 0t0 0t-0.5 0h2h1.5t1.5 0.5t2 0.5q0 1 1 1t1.5 0.5t1.5 1t0 1.5l65 64q2 2 3.5 5t1 6l-1 6t-4.5 5q-1 3 -4.5 4t-6 1t-6 -1t-4.5 -4l-38 -36l1 169h168l-35 -37q-4 -2 -4.5 -5l-1 -6t1 -6t3.5 -5q3 -3 5.5 -4t6 -1t6 1t5.5 4l63 64q2 0 2 0.5t1 1.5t0.5 1.5
t1.5 1.5q-1 1 0 1.5t0.5 1.5t0 1.5t-0.5 1.5q1 0 0.5 0t0 0t0 0t0.5 0q-1 1 -0.5 1.5t0 1.5t-0.5 1.5t-1 1.5v0z" />
    <glyph glyph-name="two" unicode="2" 
d="M179 157l93 93l93 -93q2 -2 5 -3.5t6 -1l6 1t5 4.5q2 1 3.5 4.5t1.5 6t-1.5 6t-3.5 4.5l-104 105q-1 0 -2 1.5t-2.5 1.5t-3 1t-3.5 0q-2 1 -3.5 0t-3 -1t-2.5 -1.5t-2 -1.5l-104 -105q-2 -1 -3.5 -4.5t-1.5 -6t1.5 -6t3.5 -4.5q2 -4 5 -4.5l6 -1t6 1t5 3.5v0z" />
    <glyph glyph-name="three" unicode="3" 
d="M365 259l-93 -93l-93 93q-2 2 -5 3.5t-6 1l-6 -1t-5 -4.5q-2 -1 -3.5 -4.5t-1.5 -6t1.5 -6t3.5 -4.5l104 -105q1 0 2.5 -1.5t2.5 -1.5t2.5 -1t3.5 0q2 -1 3.5 0t3 1t2.5 1.5t2 1.5l104 105q2 1 3.5 4.5t1.5 6t-1.5 6t-3.5 4.5q-2 4 -5 4.5l-6 1t-6 -1t-5 -3.5v0z" />
    <glyph glyph-name="four" unicode="4" 
d="M197 197l104 -104q2 -2 5 -3.5t6 -1.5t6 1.5t5 3.5q3 2 4 5t1 6t-1 6t-4 5l-92 93l92 93q3 2 4 5t1 6t-1 6t-4 5q-2 2 -5 3.5t-6 1.5t-6 -1.5t-5 -3.5l-104 -104l-2 -2t-1.5 -2.5l-1 -3t-0.5 -3.5t0.5 -3.5l1 -3t1.5 -2.5l2 -2v0z" />
    <glyph glyph-name="five" unicode="5" 
d="M221 93q2 -2 5 -3.5t6 -1.5t6 1.5t5 3.5l104 104q1 1 2 2.5t1.5 2.5t1 2.5t0.5 3.5t-0.5 3.5l-1 3t-1.5 2.5l-2 2l-104 104q-2 2 -5 3.5t-6 1.5t-6 -1.5t-5 -3.5q-3 -2 -4 -5t-1 -6t1 -6t4 -5l92 -93l-92 -93q-3 -2 -4 -5t-1 -6t1 -6t4 -5v0z" />
    <glyph glyph-name="six" unicode="6" 
d="M375 253l-107 95q-1 0 -2.5 1.5t-3 1.5t-3 1t-2.5 0q-2 1 -3.5 0t-3 -1t-3 -1.5t-2.5 -1.5l-107 -95q-2 -2 -3.5 -5.5t-1.5 -6t1.5 -6t3.5 -4.5q2 -3 5 -4t6 -1.5t6 1.5t6 3l96 86l95 -86q3 -1 6 -3t6 -1.5t6 1.5t5 4q3 1 4 4.5t1 6t-1 6t-4 5.5v0zM268 234
q-1 0 -2.5 1.5t-3 1.5t-3 0.5t-2.5 -0.5q-2 1 -3.5 0.5t-3 -0.5t-3 -1.5t-2.5 -1.5l-107 -96q-2 -1 -3.5 -4.5t-1.5 -6.5t1.5 -6.5t3.5 -4.5q2 -3 5 -4t6 -1.5t6 1.5t6 3l96 86l95 -86q3 -1 6 -3t6 -1.5t6 1.5t5 4q3 1 4 4.5t1 6.5t-1 6.5t-4 4.5l-107 96v0z" />
    <glyph glyph-name="seven" unicode="7" 
d="M351 218l-96 -85l-95 85q-3 3 -6 4t-6 1t-6 -1t-5 -4q-3 -2 -4 -5t-1 -6t1 -6t4 -6l107 -94q1 -1 2.5 -2t3 -1.5l3 -1t2.5 -0.5q2 0 3.5 0.5l3 1t3 1.5t2.5 2l107 94q2 3 3.5 6t1.5 6t-1.5 6t-3.5 5t-5 3.5t-6 1.5t-6 -1t-6 -4v0zM374 333q-2 2 -5 3.5t-6 1.5t-6 -1.5
t-6 -3.5l-96 -85l-95 85q-3 2 -6 3.5t-6 1.5t-6 -1.5t-5 -3.5q-3 -2 -4 -5t-1 -6.5t1 -6t4 -5.5l107 -95q1 -1 2.5 -1.5t3 -1.5t3 -1h2.5h3.5t3 1t3 1.5t2.5 1.5l107 95q2 3 3.5 5.5t1.5 6t-1.5 6.5t-3.5 5v0z" />
    <glyph glyph-name="eight" unicode="8" 
d="M133 213l95 -107q2 -2 5.5 -3.5t6 -1.5t6 1.5t4.5 3.5q3 2 4 5t1.5 6t-1.5 6t-3 6l-86 96l86 95q1 3 3 6t1.5 6t-1.5 6t-4 5q-1 3 -4.5 4t-6 1t-6 -1t-5.5 -4l-95 -107q0 -1 -1.5 -2.5t-1.5 -3t-1 -3t0 -2.5q-1 -2 0 -3.5t1 -3t1.5 -3t1.5 -2.5v0zM366 343q-3 3 -5.5 4
t-6.5 1t-6 -1t-6 -4l-94 -107q-2 -1 -2.5 -2.5t-1.5 -3t-0.5 -3t-0.5 -2.5q1 -2 0.5 -3.5t0.5 -3t1.5 -3t2.5 -2.5l94 -107q3 -2 5.5 -3.5t6.5 -1.5t6.5 1.5t5.5 3.5q1 2 3 5t1.5 6t-1.5 6t-4 6l-84 96l84 95q3 3 4 6t1.5 6t-1.5 6t-3 5v0z" />
    <glyph glyph-name="nine" unicode="9" 
d="M379 235l-95 107q-2 2 -5.5 3.5t-6 1.5t-6 -1.5t-4.5 -3.5q-3 -2 -4 -5t-1.5 -6t1.5 -6t3 -6l86 -96l-86 -95q-1 -3 -3 -6t-1.5 -6t1.5 -6t4 -5q1 -3 4.5 -4t6 -1t6 1t5.5 4l95 107q0 1 1.5 2.5t1.5 3t1 3t0 2.5q1 2 0 3.5t-1 3t-1.5 3t-1.5 2.5v0zM146 105q3 -3 5.5 -4
t6.5 -1t6 1t6 4l94 107q2 1 2 2.5t1.5 3t1 3t0.5 2.5q-1 2 -0.5 3.5t-1 3t-1.5 3t-2 2.5l-94 107q-3 2 -5.5 3.5t-6.5 1.5t-6.5 -1.5t-5.5 -3.5q-1 -2 -3 -5t-1.5 -6t1.5 -6t4 -6l84 -96l-84 -95q-3 -3 -4 -6t-1.5 -6t1.5 -6t3 -5v0z" />
    <glyph glyph-name="colon" unicode=":" 
d="M284 282l-2 2t-2.5 1.5l-3 1t-3.5 0.5t-3.5 -0.5l-3 -1t-2.5 -1.5l-2 -2l-104 -104q-2 -2 -3.5 -5t-1.5 -6t1.5 -6t3.5 -5q2 -3 5 -4t6 -1t6 1t5 4l93 92l93 -92q2 -3 5 -4t6 -1t6 1t5 4q2 2 3.5 5t1.5 6t-1.5 6t-3.5 5l-104 104v0zM274 445q-49 0 -92.5 -19t-76 -51.5
t-51.5 -76t-19 -92.5q0 -50 19 -93.5t51.5 -75.5t76 -51t92.5 -19q50 0 93.5 19t75.5 51t51 75.5t19 93.5q0 49 -19 92.5t-51 76t-75.5 51.5t-93.5 19v0zM274 -1q-43 0 -80.5 16.5t-65.5 44.5t-44.5 65.5t-16.5 80.5t16.5 80.5t44.5 65.5t65.5 44.5t80.5 16.5t80.5 -16.5
t65.5 -44.5t44.5 -65.5t16.5 -80.5t-16.5 -80.5t-44.5 -65.5t-65.5 -44.5t-80.5 -16.5v0z" />
    <glyph glyph-name="semicolon" unicode=";" 
d="M365 259l-93 -93l-93 93q-2 2 -5 3.5t-6 1l-6 -1t-5 -4.5q-2 -1 -3.5 -4.5t-1.5 -6t1.5 -6t3.5 -4.5l104 -105q1 0 2.5 -1.5t2.5 -1.5t2.5 -1t3.5 0q2 -1 3.5 0t3 1t2.5 1.5t2 1.5l104 105q2 1 3.5 4.5t1.5 6t-1.5 6t-3.5 4.5q-2 4 -5 4.5l-6 1t-6 -1t-5 -3.5v0zM273 445
q-49 1 -92.5 -18.5t-76 -51.5t-51.5 -76t-19 -92q0 -51 19 -94t51.5 -75.5t76 -51t92.5 -19.5q50 1 93.5 19.5t75.5 51t51 75.5t19 94q0 48 -19 92t-51 76t-75.5 51.5t-93.5 18.5v0zM273 0q-43 -1 -80.5 16t-65.5 44.5t-44.5 65.5t-16.5 80q0 44 16.5 81t44.5 65.5
t65.5 44.5t80.5 17q43 -1 80.5 -17t65.5 -44.5t44.5 -65.5t16.5 -81q0 -42 -16.5 -80t-44.5 -65.5t-65.5 -44.5t-80.5 -16v0z" />
    <glyph glyph-name="less" unicode="&#x3c;" 
d="M323 323q-2 2 -5 3.5t-6 1.5t-6 -1.5t-5 -3.5l-104 -104l-2 -2t-1.5 -2.5l-1 -3t-0.5 -3.5t0.5 -3.5l1 -3t1.5 -2.5l2 -2l104 -104q2 -2 5 -3.5t6 -1.5t6 1.5t5 3.5q3 2 4 5t1 6t-1 6t-4 5l-92 93l92 93q3 2 4 5t1 6t-1 6t-4 5v0zM272 448q-50 0 -93.5 -19t-76 -51.5
t-51.5 -76t-19 -93.5t19 -93.5t51.5 -76t76 -51.5t93.5 -19t93.5 19t76 51.5t51.5 76t19 93.5t-19 93.5t-51.5 76t-76 51.5t-93.5 19v0zM272 0q-43 0 -81 16.5t-66 44.5t-44.5 66t-16.5 81t16.5 81t44.5 66t66 44.5t81 16.5t81 -16.5t66 -44.5t44.5 -66t16.5 -81t-16.5 -81
t-44.5 -66t-66 -44.5t-81 -16.5v0z" />
    <glyph glyph-name="equal" unicode="=" 
d="M347 219l-104 104q-2 2 -5 3.5t-6 1.5t-6 -1.5t-5 -3.5q-3 -2 -4 -5t-1 -6t1 -6t4 -5l92 -93l-92 -93q-3 -2 -4 -5t-1 -6t1 -6t4 -5q2 -2 5 -3.5t6 -1.5t6 1.5t5 3.5l104 104q1 1 2 2.5t1.5 2.5t1 2.5t0.5 3.5t-0.5 3.5l-1 3t-1.5 2.5l-2 2v0zM273 446q-49 0 -92.5 -19
t-76 -51.5t-51.5 -76t-19 -92.5q0 -50 19 -93.5t51.5 -75.5t76 -51t92.5 -19q50 0 93.5 19t75.5 51t51 75.5t19 93.5q0 49 -19 92.5t-51 76t-75.5 51.5t-93.5 19v0zM273 0q-43 0 -80.5 16.5t-65.5 44.5t-44.5 65.5t-16.5 80.5t16.5 80.5t44.5 65.5t65.5 44.5t80.5 16.5
t80.5 -16.5t65.5 -44.5t44.5 -65.5t16.5 -80.5t-16.5 -80.5t-44.5 -65.5t-65.5 -44.5t-80.5 -16.5v0z" />
    <glyph glyph-name="greater" unicode="&#x3e;" 
d="M284 331q-1 1 -2.5 2t-3 1.5l-3 1t-2.5 0.5q-2 0 -3.5 -0.5l-3 -1t-3 -1.5t-2.5 -2l-107 -94q-2 -3 -3.5 -6t-1.5 -6t1.5 -6t3.5 -5t5 -3.5t6 -1.5t6 1.5t6 3.5l96 85l95 -85q3 -2 6 -3.5t6 -1.5t6 1.5t5 3.5q3 2 4 5t1 6t-1 6t-4 6l-107 94v0zM284 217q-1 1 -2.5 2
t-3 1.5t-3 0.5h-2.5h-3.5t-3 -0.5t-3 -1.5t-2.5 -2l-107 -95q-2 -2 -3.5 -5t-1.5 -6.5t1.5 -6.5t3.5 -5t5 -3.5t6 -1.5t6 1.5t6 3.5l96 85l95 -85q3 -2 6 -3.5t6 -1.5t6 1.5t5 3.5q3 2 4 5t1 6.5t-1 6.5t-4 5l-107 95v0zM273 446q-49 0 -92.5 -19t-76 -51.5t-51.5 -76
t-19 -92.5q0 -50 19 -93.5t51.5 -75.5t76 -51t92.5 -19q50 0 93.5 19t75.5 51t51 75.5t19 93.5q0 49 -19 92.5t-51 76t-75.5 51.5t-93.5 19v0zM273 0q-43 0 -80.5 16.5t-65.5 44.5t-44.5 65.5t-16.5 80.5t16.5 80.5t44.5 65.5t65.5 44.5t80.5 16.5t80.5 -16.5t65.5 -44.5
t44.5 -65.5t16.5 -80.5t-16.5 -80.5t-44.5 -65.5t-65.5 -44.5t-80.5 -16.5v0z" />
    <glyph glyph-name="question" unicode="?" 
d="M367 202l-96 -85l-95 85q-3 3 -6 4t-6 1t-6 -1t-5 -4q-3 -2 -4 -5t-1 -6t1 -6t4 -6l107 -94q1 -1 2.5 -2t3 -1.5l3 -1t2.5 -0.5q2 0 3.5 0.5l3 1t3 1.5t2.5 2l107 94q2 3 3.5 6t1.5 6t-1.5 6t-3.5 5q-2 3 -5 4t-6 1t-6 -1t-6 -4v0zM367 317l-96 -85l-95 85q-3 2 -6 3.5
t-6 1.5t-6 -1.5t-5 -3.5q-3 -2 -4 -5t-1 -6.5t1 -6t4 -5.5l107 -95q1 -1 2.5 -1.5t3 -1.5t3 -1h2.5h3.5t3 1t3 1.5t2.5 1.5l107 95q2 3 3.5 5.5t1.5 6t-1.5 6.5t-3.5 5t-5 3.5t-6 1.5t-6 -1.5t-6 -3.5v0zM273 446q-49 0 -92.5 -19t-76 -51.5t-51.5 -76t-19 -92.5
q0 -50 19 -93.5t51.5 -75.5t76 -51t92.5 -19q50 0 93.5 19t75.5 51t51 75.5t19 93.5q0 49 -19 92.5t-51 76t-75.5 51.5t-93.5 19v0zM273 0q-43 0 -80.5 16.5t-65.5 44.5t-44.5 65.5t-16.5 80.5t16.5 80.5t44.5 65.5t65.5 44.5t80.5 16.5t80.5 -16.5t65.5 -44.5t44.5 -65.5
t16.5 -80.5t-16.5 -80.5t-44.5 -65.5t-65.5 -44.5t-80.5 -16.5v0z" />
    <glyph glyph-name="at" unicode="@" 
d="M181 209l85 96q2 2 3.5 5.5t1.5 6t-1.5 6t-3.5 4.5q-2 4 -5 4.5l-6 1t-6 -1t-6 -3.5l-94 -108q-1 0 -2 -2l-1.5 -3t-1 -3l-0.5 -2q0 -3 0.5 -4t1 -3t1.5 -3t2 -3l94 -106q3 -3 6 -4t6 -1.5t6 1.5t5 3q2 3 3.5 5.5t1.5 6t-1.5 6t-3.5 6.5l-85 95v0zM381 328q-2 2 -5 3.5
t-6.5 1t-6 -1t-5.5 -4.5l-95 -106q-1 -2 -2 -3t-1.5 -3t-0.5 -3v-3v-3t0.5 -3l1.5 -3t2 -2l95 -108q2 -1 5 -3t6.5 -1.5t6.5 1.5t5 4q2 1 3.5 4.5t1.5 6t-1.5 6t-3.5 5.5l-85 97l85 94q2 4 3.5 6.5t1.5 6t-1.5 6t-3.5 5.5v0zM272 448q-50 1 -93.5 -18.5t-76 -51.5t-51.5 -76
t-19 -93q0 -51 19 -94t51.5 -76t76 -51.5t93.5 -19.5q50 1 93.5 19.5t76 51.5t51.5 76t19 94q0 49 -19 93t-51.5 76t-76 51.5t-93.5 18.5v0zM272 1q-43 -1 -81 16t-66 44.5t-44.5 66t-16.5 80.5q0 44 16.5 81.5t44.5 66t66 44.5t81 17q43 -1 81 -17t66 -44.5t44.5 -66
t16.5 -81.5q0 -42 -16.5 -80.5t-44.5 -66t-66 -44.5t-81 -16v0z" />
    <glyph glyph-name="A" unicode="A" 
d="M395 219l-95 107q-2 2 -5.5 3.5t-6 1.5t-6 -1.5t-4.5 -3.5q-3 -2 -4 -5t-1.5 -6t1.5 -6t3 -6l86 -96l-86 -95q-1 -3 -3 -6t-1.5 -6t1.5 -6t4 -5q1 -3 4.5 -4t6 -1t6 1t5.5 4l95 107q0 1 1.5 2.5t1.5 3t1 3t0 2.5q1 2 0 3.5t-1 3t-1.5 3t-1.5 2.5v0zM284 207q1 2 0.5 3.5
t-0.5 3t-1.5 3t-1.5 2.5l-96 107q-1 2 -4.5 3.5t-6.5 1.5t-6.5 -1.5t-4.5 -3.5q-3 -2 -4 -5t-1.5 -6t1.5 -6t3 -6l86 -96l-86 -95q-1 -3 -3 -6t-1.5 -6t1.5 -6t4 -5q1 -3 4.5 -4t6.5 -1t6.5 1t4.5 4l96 107q0 1 1.5 2.5t1.5 3t0.5 3t-0.5 2.5v0zM272 448q-51 0 -94 -19
t-76 -51.5t-51.5 -76t-19.5 -93.5q1 -50 19.5 -93.5t51.5 -76t76 -51.5t94 -19q49 0 93 19t76 51.5t51.5 76t18.5 93.5q1 50 -18.5 93.5t-51.5 76t-76 51.5t-93 19v0zM271 0q-42 0 -80.5 16.5t-66 44.5t-44.5 66t-16 81q-1 43 16 81t44.5 66t66 44.5t80.5 16.5
q44 0 81.5 -16.5t66 -44.5t44.5 -66t17 -81q-1 -43 -17 -81t-44.5 -66t-66 -44.5t-81.5 -16.5v0z" />
    <glyph glyph-name="B" unicode="B" 
d="M144 160h223q2 0 3.5 0.5l3 1t3 1.5t2.5 3v0q2 2 3.5 5.5t1.5 7t-1.5 6.5t-3.5 6l-112 124q-2 2 -5 3.5t-6 1.5t-6 -1.5t-6 -3.5v0v-0.5v-0.5v0l-112 -123q-2 -3 -3 -6t-1 -6.5t1 -7t3 -5.5v0v-0.5t0.5 -0.5h0.5l2 -2t2.5 -1.5l3 -1t3.5 -0.5v0z" />
    <glyph glyph-name="C" unicode="C" 
d="M267 165v0v0.5v0.5v0l112 123q2 3 3.5 6t1.5 6.5t-1.5 7t-3.5 5.5v0v0.5v0.5v0q-1 1 -2.5 2t-3 1.5l-3 1t-3.5 0.5h-223q-2 0 -3.5 -0.5l-3 -1t-2.5 -1.5l-3 -3v0q-2 -2 -3 -5.5t-1 -7t1 -6.5t3 -6l112 -124q3 -2 6 -3.5t6 -1.5t6 1.5t5 3.5v0z" />
    <glyph glyph-name="D" unicode="D" 
d="M289 348l-124 -112q-2 -3 -3.5 -6t-1.5 -6t1.5 -6t3.5 -5v0h0.5h0.5v0l123 -112q3 -2 6 -3.5t6.5 -1.5t7 1.5t5.5 3.5v0h0.5h0.5v0q1 1 2 2.5t1.5 3l1 3t0.5 3.5v223q0 2 -0.5 3.5l-1 3t-1.5 2.5l-3 3v0q-2 2 -5.5 3t-7 1t-6.5 -1t-6 -3v0z" />
    <glyph glyph-name="E" unicode="E" 
d="M222 100l122 112q3 3 4 5.5t1.5 6t-1.5 6t-3 5.5q-1 -1 -1 -0.5t-0.5 0t-0.5 0.5v0l-122 113q-2 1 -5.5 2.5t-6.5 1t-6.5 -1t-6.5 -3.5q0 1 0 0.5v0t0 -0.5v0q-1 -2 -2 -2.5t-1.5 -2.5t-1 -3t-0.5 -4v-223q0 -3 0.5 -4t1 -3t1.5 -2.5t3 -3.5l-1 1q3 -3 6.5 -3.5t6.5 -1
t6.5 1t5.5 2.5z" />
    <glyph glyph-name="F" unicode="F" 
d="M272 448q-50 0 -93.5 -19t-76 -51.5t-51.5 -76t-19 -93.5t19 -93.5t51.5 -76t76 -51.5t93.5 -19t93.5 19t76 51.5t51.5 76t19 93.5t-19 93.5t-51.5 76t-76 51.5t-93.5 19v0zM272 0q-43 0 -81 16.5t-66 44.5t-44.5 66t-16.5 81t16.5 81t44.5 66t66 44.5t81 16.5t81 -16.5
t66 -44.5t44.5 -66t16.5 -81t-16.5 -81t-44.5 -66t-66 -44.5t-81 -16.5v0zM282 283q-2 2 -5 3.5t-5.5 1.5t-5 -1.5t-4.5 -3.5v0v-0.5v-0.5v0l-98 -123q-2 -3 -3 -6t-1 -6.5t1 -7t3 -5.5v0v-0.5v-0.5v0l2 -2t2.5 -1.5t2.5 -1t3 -0.5h195q2 0 3.5 0.5t2.5 1t2.5 1.5t2.5 3v0
q2 2 3 5.5t1 7t-1 6.5t-3 6l-98 124v0z" />
    <glyph glyph-name="G" unicode="G" 
d="M272 448q-50 0 -93.5 -19t-76 -51.5t-51.5 -76t-19 -93.5t19 -93.5t51.5 -76t76 -51.5t93.5 -19t93.5 19t76 51.5t51.5 76t19 93.5t-19 93.5t-51.5 76t-76 51.5t-93.5 19v0zM272 0q-43 0 -81 16.5t-66 44.5t-44.5 66t-16.5 81t16.5 81t44.5 66t66 44.5t81 16.5t81 -16.5
t66 -44.5t44.5 -66t16.5 -81t-16.5 -81t-44.5 -66t-66 -44.5t-81 -16.5v0zM380 251l-2 2t-2.5 1.5l-3 1t-2.5 0.5h-196q-1 0 -2.5 -0.5l-3 -1t-2.5 -1.5t-2 -3v0q-2 -2 -3 -5.5t-1 -7t1 -6.5t3 -6l98 -124q2 -2 4.5 -3.5t5.5 -1.5t5.5 1.5t4.5 3.5v0v0.5v0.5v0l98 123
q2 3 3 6t1 6.5t-1 7t-3 5.5v0v0.5v0.5v0v0z" />
    <glyph glyph-name="H" unicode="H" 
d="M272 448q-50 0 -93.5 -19t-76 -51.5t-51.5 -76t-19 -93.5t19 -93.5t51.5 -76t76 -51.5t93.5 -19t93.5 19t76 51.5t51.5 76t19 93.5t-19 93.5t-51.5 76t-76 51.5t-93.5 19v0zM272 0q-43 0 -81 16.5t-66 44.5t-44.5 66t-16.5 81t16.5 81t44.5 66t66 44.5t81 16.5t81 -16.5
t66 -44.5t44.5 -66t16.5 -81t-16.5 -81t-44.5 -66t-66 -44.5t-81 -16.5v0zM314 316q-2 2 -5.5 3t-7 1t-6.5 -1t-6 -3l-124 -98q-2 -2 -3.5 -4.5t-1.5 -5t1.5 -5t3.5 -5.5v0h0.5h0.5v0l123 -98q3 -2 6 -3t6.5 -1t7 1t5.5 3v0h0.5t0.5 0.5v0.5l2 2t1.5 2t1 2.5t0.5 3.5v195
q0 2 -0.5 3t-1 2.5t-1.5 2.5t-3 2v0v0z" />
    <glyph glyph-name="I" unicode="I" 
d="M272 448q-50 0 -93.5 -19t-76 -51.5t-51.5 -76t-19 -93.5t19 -93.5t51.5 -76t76 -51.5t93.5 -19t93.5 19t76 51.5t51.5 76t19 93.5t-19 93.5t-51.5 76t-76 51.5t-93.5 19v0zM272 0q-43 0 -81 16.5t-66 44.5t-44.5 66t-16.5 81t16.5 81t44.5 66t66 44.5t81 16.5t81 -16.5
t66 -44.5t44.5 -66t16.5 -81t-16.5 -81t-44.5 -66t-66 -44.5t-81 -16.5v0zM378 218l-123 98q-3 2 -6 3t-6.5 1t-7 -1t-5.5 -3v0h-0.5h-0.5v0l-2 -2t-1.5 -2.5t-1 -2.5t-0.5 -3v-195q0 -2 0.5 -3.5t1 -2.5t1.5 -2.5t3 -2.5v0q2 -2 5.5 -3t7 -1t6.5 1t6 3l124 98q2 2 3.5 5
t1.5 5.5t-1.5 5t-3.5 4.5v0h-0.5h-0.5v0v0z" />
    <glyph glyph-name="J" unicode="J" 
d="M37 229l96 -96q2 -3 5 -4t6 -1t6 1t5 4q3 2 4 5t1 6t-1 6t-4 5l-68 69h233q24 0 42 -10t30 -26t18 -36t6 -40q0 -3 1.5 -6t3.5 -5t5 -3.5t6 -1.5t6 1.5t5 3.5t3.5 5t1.5 6q0 26 -6.5 52t-21.5 46.5t-39.5 33t-60.5 12.5h-233l68 69q3 2 4 5t1 6t-1 6t-4 5q-2 3 -5 4t-6 1
t-6 -1t-5 -4l-96 -96q-3 -2 -4 -5t-1 -6t1 -6t4 -5v0z" />
    <glyph glyph-name="K" unicode="K" 
d="M144 192h256q3 0 6 1.5t5 3.5t3.5 5t1.5 6t-1.5 6t-3.5 5t-5 3.5t-6 1.5h-256q-3 0 -6 -1.5t-5 -3.5t-3.5 -5t-1.5 -6t1.5 -6t3.5 -5t5 -3.5t6 -1.5v0z" />
    <glyph glyph-name="L" unicode="L" 
d="M144 192h112v-112q0 -3 1.5 -6t3.5 -5t5 -3.5t6 -1.5t6 1.5t5 3.5t3.5 5t1.5 6v112h112q3 0 6 1.5t5 3.5t3.5 5t1.5 6t-1.5 6t-3.5 5t-5 3.5t-6 1.5h-112v112q0 3 -1.5 6t-3.5 5t-5 3.5t-6 1.5t-6 -1.5t-5 -3.5t-3.5 -5t-1.5 -6v-112h-112q-3 0 -6 -1.5t-5 -3.5t-3.5 -5
t-1.5 -6t1.5 -6t3.5 -5t5 -3.5t6 -1.5v0z" />
    <glyph glyph-name="M" unicode="M" 
d="M145 113q2 -2 5 -3.5t6 -1l6 1t5 4.5l89 87l89 -87q2 -4 5 -4.5l6 -1t6 1t5 3.5q3 3 4 5.5t1 6t-1 6t-4 5.5l-88 88l88 90q3 1 4 4.5t1 6t-1 6t-4 4.5q-2 4 -5 4.5l-6 1t-6 -1t-5 -3.5l-89 -89l-89 89q-2 2 -5 3.5t-6 1l-6 -1t-5 -4.5q-3 -1 -4 -4.5t-1 -6t1 -6t4 -4.5
l88 -90l-88 -88q-3 -3 -4 -5.5t-1 -6t1 -6t4 -5.5v0z" />
    <glyph glyph-name="N" unicode="N" 
d="M221 71v-0.5t0.5 0t0.5 -0.5v0l1 -1l0.5 -0.5t1 0t0.5 -0.5q1 0 1.5 -0.5t1 0t1 -0.5t0.5 0q1 -1 1 -0.5t0.5 0t1 0t1.5 -0.5q0 1 1 0t1.5 0t1.5 0.5t1 0.5q0 -1 0.5 -0.5t1 0t0.5 0t0 -0.5q1 1 2 1t1.5 1t1.5 0.5t2 1.5q0 -1 0 -0.5v0v0t1 0.5q0 1 0.5 0.5t1 0.5t1 1
t0.5 1q1 0 1 0.5t0.5 0.5t0.5 1v0q0 1 0 0.5v0v0t0 0.5l191 305q3 5 3.5 9t-0.5 8.5t-3.5 7.5t-5.5 7q-4 2 -8.5 3t-9 -0.5t-8 -3.5t-5.5 -6l-177 -282l-97 94q-3 4 -7.5 5t-8.5 1.5t-8 -2t-8 -4.5q-3 -5 -4.5 -8.5t-1 -8.5t2 -8.5t5.5 -7.5l117 -113q0 -1 0 -0.5v0v0
t1 -0.5v0z" />
    <glyph glyph-name="O" unicode="O" 
d="M272 448q-50 0 -93.5 -19t-76 -51.5t-51.5 -76t-19 -93.5t19 -93.5t51.5 -76t76 -51.5t93.5 -19t93.5 19t76 51.5t51.5 76t19 93.5t-19 93.5t-51.5 76t-76 51.5t-93.5 19v0zM272 0q-43 0 -81 16.5t-66 44.5t-44.5 66t-16.5 81t16.5 81t44.5 66t66 44.5t81 16.5t81 -16.5
t66 -44.5t44.5 -66t16.5 -81t-16.5 -81t-44.5 -66t-66 -44.5t-81 -16.5v0zM400 224h-256q-3 0 -6 -1.5t-5 -3.5t-3.5 -5t-1.5 -6t1.5 -6t3.5 -5t5 -3.5t6 -1.5h256q3 0 6 1.5t5 3.5t3.5 5t1.5 6t-1.5 6t-3.5 5t-5 3.5t-6 1.5v0z" />
    <glyph glyph-name="P" unicode="P" 
d="M272 448q-50 0 -93.5 -19t-76 -51.5t-51.5 -76t-19 -93.5t19 -93.5t51.5 -76t76 -51.5t93.5 -19t93.5 19t76 51.5t51.5 76t19 93.5t-19 93.5t-51.5 76t-76 51.5t-93.5 19v0zM272 0q-43 0 -81 16.5t-66 44.5t-44.5 66t-16.5 81t16.5 81t44.5 66t66 44.5t81 16.5t81 -16.5
t66 -44.5t44.5 -66t16.5 -81t-16.5 -81t-44.5 -66t-66 -44.5t-81 -16.5v0zM400 224h-112v112q0 3 -1.5 6t-3.5 5t-5 3.5t-6 1.5t-6 -1.5t-5 -3.5t-3.5 -5t-1.5 -6v-112h-112q-3 0 -6 -1.5t-5 -3.5t-3.5 -5t-1.5 -6t1.5 -6t3.5 -5t5 -3.5t6 -1.5h112v-112q0 -3 1.5 -6t3.5 -5
t5 -3.5t6 -1.5t6 1.5t5 3.5t3.5 5t1.5 6v112h112q3 0 6 1.5t5 3.5t3.5 5t1.5 6t-1.5 6t-3.5 5t-5 3.5t-6 1.5v0z" />
    <glyph glyph-name="Q" unicode="Q" 
d="M272 448q-50 0 -93.5 -19t-76 -51.5t-51.5 -76t-19 -93.5t19 -93.5t51.5 -76t76 -51.5t93.5 -19t93.5 19t76 51.5t51.5 76t19 93.5t-19 93.5t-51.5 76t-76 51.5t-93.5 19v0zM272 0q-43 0 -81 16.5t-66 44.5t-44.5 66t-16.5 81t16.5 81t44.5 66t66 44.5t81 16.5t81 -16.5
t66 -44.5t44.5 -66t16.5 -81t-16.5 -81t-44.5 -66t-66 -44.5t-81 -16.5v0zM361 319l-88 -88l-79 88q-3 3 -6 4t-6 1t-6 -1t-5 -4q-2 -2 -3.5 -5t-1.5 -6t1.5 -6t3.5 -5l79 -88l-89 -90q-3 -2 -4 -5t-1 -6t1 -6t4 -5q2 -3 5 -4t6 -1t6 1t5 4l88 88l79 -88q3 -3 6 -4t6 -1t6 1
t5 4q2 2 3.5 5t1.5 6t-1.5 6t-3.5 5l-79 88l89 90q3 2 4 5t1 6t-1 6t-4 5q-2 3 -5 4t-6 1t-6 -1t-5 -4v0z" />
    <glyph glyph-name="R" unicode="R" 
d="M257 480q-53 0 -99.5 -20t-81 -55t-55 -81.5t-20.5 -99.5t20.5 -99.5t55 -81.5t81 -55t99.5 -20t100 20t81.5 55t54.5 81.5t20 99.5t-20 99.5t-54.5 81.5t-81.5 55t-100 20v0zM257 0q-46 0 -87 17.5t-71 48t-48 71.5t-18 87t18 87t48 71.5t71 48t87 17.5q47 0 87.5 -17.5
t71 -48t48 -71.5t17.5 -87t-17.5 -87t-48 -71.5t-71 -48t-87.5 -17.5v0zM369 326q-3 2 -7.5 3t-9 0t-8 -3.5t-6.5 -6.5l-108 -165l-51 48q-4 3 -8 4.5t-8.5 1.5t-8.5 -2t-7 -5q-3 -4 -4.5 -8t-1.5 -8.5t2 -8.5t5 -7l72 -66v0v0v0h1v-1h0.5t0.5 -0.5v-0.5q1 0 1 -0.5
t0.5 -0.5h1h0.5q1 -1 1.5 -1h1t1 -0.5l0.5 -0.5h0.5h1h1h1.5l1 -0.5t1.5 0t1 0.5h1.5h0.5h1h0.5v0q1 0 2 0.5t1.5 1t1.5 0.5t2 1v0v0v0l1 1h0.5t1 0.5l1 1l0.5 0.5l1 1l0.5 0.5t0.5 1v0.5v0v0v0v0l123 188q2 4 3 8t0 8.5t-3.5 8t-6.5 6.5v0z" />
    <glyph glyph-name="S" unicode="S" 
d="M304 480q-43 0 -81 -16.5t-66 -44.5t-44.5 -66t-16.5 -81q0 -19 3 -36.5t9 -34t14.5 -31.5t19.5 -28l-135 -136q-4 -3 -5.5 -7t-1.5 -8.5t1.5 -8.5t5.5 -7q3 -4 7 -5.5t8.5 -1.5t8.5 1.5t7 5.5l136 135q13 -11 28 -19.5t31.5 -14.5t34 -9t36.5 -3q43 0 81 16.5t66 44.5
t44.5 66t16.5 81t-16.5 81t-44.5 66t-66 44.5t-81 16.5v0zM304 96q-36 0 -68 14t-56 38t-38 56t-14 68t14 68t38 56t56 38t68 14t68 -14t56 -38t38 -56t14 -68t-14 -68t-38 -56t-56 -38t-68 -14v0zM400 288h-192q-3 0 -6 -1.5t-5 -3.5t-3.5 -5t-1.5 -6t1.5 -6t3.5 -5t5 -3.5
t6 -1.5h192q3 0 6 1.5t5 3.5t3.5 5t1.5 6t-1.5 6t-3.5 5t-5 3.5t-6 1.5v0z" />
    <glyph glyph-name="T" unicode="T" 
d="M304 480q-43 0 -81 -16.5t-66 -44.5t-44.5 -66t-16.5 -81q0 -19 3 -36.5t9 -34t14.5 -31.5t19.5 -28l-135 -136q-4 -3 -5.5 -7t-1.5 -8.5t1.5 -8.5t5.5 -7q3 -4 7 -5.5t8.5 -1.5t8.5 1.5t7 5.5l136 135q13 -11 28 -19.5t31.5 -14.5t34 -9t36.5 -3q43 0 81 16.5t66 44.5
t44.5 66t16.5 81t-16.5 81t-44.5 66t-66 44.5t-81 16.5v0zM304 96q-36 0 -68 14t-56 38t-38 56t-14 68t14 68t38 56t56 38t68 14t68 -14t56 -38t38 -56t14 -68t-14 -68t-38 -56t-56 -38t-68 -14v0zM400 288h-80v80q0 3 -1.5 6t-3.5 5t-5 3.5t-6 1.5t-6 -1.5t-5 -3.5t-3.5 -5
t-1.5 -6v-80h-80q-3 0 -6 -1.5t-5 -3.5t-3.5 -5t-1.5 -6t1.5 -6t3.5 -5t5 -3.5t6 -1.5h80v-80q0 -3 1.5 -6t3.5 -5t5 -3.5t6 -1.5t6 1.5t5 3.5t3.5 5t1.5 6v80h80q3 0 6 1.5t5 3.5t3.5 5t1.5 6t-1.5 6t-3.5 5t-5 3.5t-6 1.5v0z" />
    <glyph glyph-name="U" unicode="U" 
d="M304 480q-43 0 -81 -16.5t-66 -44.5t-44.5 -66t-16.5 -81q0 -19 3 -36.5t9 -34t14.5 -31.5t19.5 -29l-137 -137q-4 -3 -5.5 -7t-1.5 -8.5t1.5 -8.5t5.5 -7q3 -4 7 -5.5t8.5 -1.5t8.5 1.5t7 5.5l137 137q14 -11 29 -19.5t31.5 -14.5t34 -9t36.5 -3q43 0 81 16.5t66 44.5
t44.5 66t16.5 81t-16.5 81t-44.5 66t-66 44.5t-81 16.5v0zM304 96q-36 0 -68 14t-56 38t-38 56t-14 68t14 68t38 56t56 38t68 14t68 -14t56 -38t38 -56t14 -68t-14 -68t-38 -56t-56 -38t-68 -14v0z" />
    <glyph glyph-name="V" unicode="V" 
d="M416 416h-320q-7 0 -12.5 -2.5t-10 -7t-7 -10t-2.5 -12.5v-320q0 -7 2.5 -12.5t7 -10t10 -7t12.5 -2.5h320q7 0 12.5 2.5t10 7t7 10t2.5 12.5v320q0 7 -2.5 12.5t-7 10t-10 7t-12.5 2.5v0zM416 64h-320v320h320v-320v0z" />
    <glyph glyph-name="W" unicode="W" 
d="M416 416h-320q-7 0 -12.5 -2.5t-10 -7t-7 -10t-2.5 -12.5v-320q0 -7 2.5 -12.5t7 -10t10 -7t12.5 -2.5h320q7 0 12.5 2.5t10 7t7 10t2.5 12.5v320q0 7 -2.5 12.5t-7 10t-10 7t-12.5 2.5v0zM416 64h-320v320h320v-320v0zM192 128h128q7 0 12.5 2.5t10 7t7 10t2.5 12.5v128
q0 7 -2.5 12.5t-7 10t-10 7t-12.5 2.5h-128q-7 0 -12.5 -2.5t-10 -7t-7 -10t-2.5 -12.5v-128q0 -7 2.5 -12.5t7 -10t10 -7t12.5 -2.5v0z" />
    <glyph glyph-name="X" unicode="X" 
d="M128 320v-224q0 -7 2.5 -12.5t7 -10t10 -7t12.5 -2.5h224q7 0 12.5 2.5t10 7t7 10t2.5 12.5v224q0 7 -2.5 12.5t-7 10t-10 7t-12.5 2.5h-224q-7 0 -12.5 -2.5t-10 -7t-7 -10t-2.5 -12.5v0zM384 96h-224v224h224v-224v0zM208 192h128q3 0 6 1.5t5 3.5t3.5 5t1.5 6t-1.5 6
t-3.5 5t-5 3.5t-6 1.5h-128q-3 0 -6 -1.5t-5 -3.5t-3.5 -5t-1.5 -6t1.5 -6t3.5 -5t5 -3.5t6 -1.5v0z" />
    <glyph glyph-name="Y" unicode="Y" 
d="M128 320v-224q0 -7 2.5 -12.5t7 -10t10 -7t12.5 -2.5h224q7 0 12.5 2.5t10 7t7 10t2.5 12.5v224q0 7 -2.5 12.5t-7 10t-10 7t-12.5 2.5h-224q-7 0 -12.5 -2.5t-10 -7t-7 -10t-2.5 -12.5v0zM384 96h-224v224h224v-224v0zM208 192h48v-48q0 -3 1.5 -6t3.5 -5t5 -3.5t6 -1.5
t6 1.5t5 3.5t3.5 5t1.5 6v48h48q3 0 6 1.5t5 3.5t3.5 5t1.5 6t-1.5 6t-3.5 5t-5 3.5t-6 1.5h-48v48q0 3 -1.5 6t-3.5 5t-5 3.5t-6 1.5t-6 -1.5t-5 -3.5t-3.5 -5t-1.5 -6v-48h-48q-3 0 -6 -1.5t-5 -3.5t-3.5 -5t-1.5 -6t1.5 -6t3.5 -5t5 -3.5t6 -1.5v0z" />
    <glyph glyph-name="Z" unicode="Z" 
d="M416 64h-320v320h236l20 32h-256q-7 0 -12.5 -2.5t-10 -7t-7 -10t-2.5 -12.5v-320q0 -7 2.5 -12.5t7 -10t10 -7t12.5 -2.5h320q7 0 12.5 2.5t10 7t7 10t2.5 12.5v211l-32 -51v-160v0zM470 444q-2 1 -3.5 2t-3 1.5t-3 0.5h-2.5q-3 0 -5.5 -0.5t-5 -2t-5 -3.5t-3.5 -4
l-174 -251l-67 77q-4 3 -8 4.5t-8.5 1.5t-8.5 -2t-7 -6q-3 -3 -4.5 -7t-1.5 -8.5t2 -8.5t5 -7l81 -92q0 -1 0.5 -1t0.5 -0.5t0.5 -0.5t0.5 -1l2 -2v0h0.5h0.5v-1h0.5t0.5 -0.5v-0.5h1q0 -1 0.5 -1t1 -0.5t1 -0.5h1.5v0l0.5 -0.5l0.5 -0.5v0h2t1.5 -0.5t1.5 -0.5h2v0v0v0v0
q2 0 4.5 0.5t4.5 1.5l4 2t4 3q0 1 0.5 1t0.5 0.5v1t1 0.5v0v0v0v0l190 275q3 4 3.5 8.5t0 8.5t-3 8t-6.5 6v0z" />
    <glyph glyph-name="bracketleft" unicode="[" 
d="M256 416q-40 0 -75 -15t-61 -41t-41 -61t-15 -75t15 -75t41 -61t61 -41t75 -15t75 15t61 41t41 61t15 75t-15 75t-41 61t-61 41t-75 15v0zM256 64q-33 0 -62 12.5t-51 34.5t-34.5 51t-12.5 62t12.5 62t34.5 51t51 34.5t62 12.5t62 -12.5t51 -34.5t34.5 -51t12.5 -62
t-12.5 -62t-34.5 -51t-51 -34.5t-62 -12.5v0z" />
    <glyph glyph-name="backslash" unicode="\" 
d="M256 416q-40 0 -75 -15t-61 -41t-41 -61t-15 -75t15 -75t41 -61t61 -41t75 -15t75 15t61 41t41 61t15 75t-15 75t-41 61t-61 41t-75 15v0zM256 64q-33 0 -62 12.5t-51 34.5t-34.5 51t-12.5 62t12.5 62t34.5 51t51 34.5t62 12.5t62 -12.5t51 -34.5t34.5 -51t12.5 -62
t-12.5 -62t-34.5 -51t-51 -34.5t-62 -12.5v0zM160 224q0 -20 7.5 -37.5t20.5 -30.5t30.5 -20.5t37.5 -7.5t37.5 7.5t30.5 20.5t20.5 30.5t7.5 37.5t-7.5 37.5t-20.5 30.5t-30.5 20.5t-37.5 7.5t-37.5 -7.5t-30.5 -20.5t-20.5 -30.5t-7.5 -37.5v0z" />
    <glyph glyph-name="bracketright" unicode="]" 
d="M256 480q-53 0 -99.5 -20t-81.5 -55t-55 -81.5t-20 -99.5t20 -99.5t55 -81.5t81.5 -55t99.5 -20t99.5 20t81.5 55t55 81.5t20 99.5t-20 99.5t-55 81.5t-81.5 55t-99.5 20v0zM256 0q-46 0 -87 17.5t-71.5 48t-48 71.5t-17.5 87t17.5 87t48 71.5t71.5 48t87 17.5t87 -17.5
t71.5 -48t48 -71.5t17.5 -87t-17.5 -87t-48 -71.5t-71.5 -48t-87 -17.5v0zM320 320h-128q-7 0 -12.5 -2.5t-10 -7t-7 -10t-2.5 -12.5v-128q0 -7 2.5 -12.5t7 -10t10 -7t12.5 -2.5h128q7 0 12.5 2.5t10 7t7 10t2.5 12.5v128q0 7 -2.5 12.5t-7 10t-10 7t-12.5 2.5v0z" />
    <glyph glyph-name="asciicircum" unicode="^" 
d="M320 128q7 0 12.5 2.5t10 7t7 10t2.5 12.5v128q0 7 -2.5 12.5t-7 10t-10 7t-12.5 2.5h-128q-7 0 -12.5 -2.5t-10 -7t-7 -10t-2.5 -12.5v-128q0 -7 2.5 -12.5t7 -10t10 -7t12.5 -2.5h128v0z" />
    <glyph glyph-name="underscore" unicode="_" 
d="M256 -32q53 0 99.5 20t81.5 55t55 81.5t20 99.5t-20 99.5t-55 81.5t-81.5 55t-99.5 20t-99.5 -20t-81.5 -55t-55 -81.5t-20 -99.5t20 -99.5t55 -81.5t81.5 -55t99.5 -20v0zM256 448q46 0 87 -17.5t71.5 -48t48 -71.5t17.5 -87t-17.5 -87t-48 -71.5t-71.5 -48t-87 -17.5
t-87 17.5t-71.5 48t-48 71.5t-17.5 87t17.5 87t48 71.5t71.5 48t87 17.5v0zM192 128q7 0 12.5 2.5t10 7t7 10t2.5 12.5v128q0 7 -2.5 12.5t-7 10t-10 7t-12.5 2.5t-12.5 -2.5t-10 -7t-7 -10t-2.5 -12.5v-128q0 -7 2.5 -12.5t7 -10t10 -7t12.5 -2.5v0zM320 128q7 0 12.5 2.5
t10 7t7 10t2.5 12.5v128q0 7 -2.5 12.5t-7 10t-10 7t-12.5 2.5t-12.5 -2.5t-10 -7t-7 -10t-2.5 -12.5v-128q0 -7 2.5 -12.5t7 -10t10 -7t12.5 -2.5v0z" />
    <glyph glyph-name="grave" unicode="`" 
d="M192 320q-7 0 -12.5 -2.5t-10 -7t-7 -10t-2.5 -12.5v-128q0 -7 2.5 -12.5t7 -10t10 -7t12.5 -2.5t12.5 2.5t10 7t7 10t2.5 12.5v128q0 7 -2.5 12.5t-7 10t-10 7t-12.5 2.5v0zM288 160q0 -7 2.5 -12.5t7 -10t10 -7t12.5 -2.5t12.5 2.5t10 7t7 10t2.5 12.5v128
q0 7 -2.5 12.5t-7 10t-10 7t-12.5 2.5t-12.5 -2.5t-10 -7t-7 -10t-2.5 -12.5v-128v0z" />
    <glyph glyph-name="a" unicode="a" 
d="M112 224h288q3 0 6 1.5t5 3.5t3.5 5t1.5 6t-1.5 6t-3.5 5t-5 3.5t-6 1.5h-288q-3 0 -6 -1.5t-5 -3.5t-3.5 -5t-1.5 -6t1.5 -6t3.5 -5t5 -3.5t6 -1.5v0zM112 320h288q3 0 6 1.5t5 3.5t3.5 5t1.5 6t-1.5 6t-3.5 5t-5 3.5t-6 1.5h-288q-3 0 -6 -1.5t-5 -3.5t-3.5 -5t-1.5 -6
t1.5 -6t3.5 -5t5 -3.5t6 -1.5v0zM112 128h288q3 0 6 1.5t5 3.5t3.5 5t1.5 6t-1.5 6t-3.5 5t-5 3.5t-6 1.5h-288q-3 0 -6 -1.5t-5 -3.5t-3.5 -5t-1.5 -6t1.5 -6t3.5 -5t5 -3.5t6 -1.5v0z" />
    <glyph glyph-name="b" unicode="b" 
d="M480 448h-416q-7 0 -12.5 -2.5t-10 -7t-7 -10t-2.5 -12.5v-416q0 -7 2.5 -12.5t7 -10t10 -7t12.5 -2.5h416q7 0 12.5 2.5t10 7t7 10t2.5 12.5v416q0 7 -2.5 12.5t-7 10t-10 7t-12.5 2.5v0zM480 0h-416v416h416v-416v0zM144 192h256q3 0 6 1.5t5 3.5t3.5 5t1.5 6t-1.5 6
t-3.5 5t-5 3.5t-6 1.5h-256q-3 0 -6 -1.5t-5 -3.5t-3.5 -5t-1.5 -6t1.5 -6t3.5 -5t5 -3.5t6 -1.5v0zM144 288h256q3 0 6 1.5t5 3.5t3.5 5t1.5 6t-1.5 6t-3.5 5t-5 3.5t-6 1.5h-256q-3 0 -6 -1.5t-5 -3.5t-3.5 -5t-1.5 -6t1.5 -6t3.5 -5t5 -3.5t6 -1.5v0zM144 96h256
q3 0 6 1.5t5 3.5t3.5 5t1.5 6t-1.5 6t-3.5 5t-5 3.5t-6 1.5h-256q-3 0 -6 -1.5t-5 -3.5t-3.5 -5t-1.5 -6t1.5 -6t3.5 -5t5 -3.5t6 -1.5v0z" />
    <glyph glyph-name="c" unicode="c" 
d="M272 448q-50 0 -93.5 -19t-76 -51.5t-51.5 -76t-19 -93.5t19 -93.5t51.5 -76t76 -51.5t93.5 -19t93.5 19t76 51.5t51.5 76t19 93.5t-19 93.5t-51.5 76t-76 51.5t-93.5 19v0zM272 0q-43 0 -81 16.5t-66 44.5t-44.5 66t-16.5 81t16.5 81t44.5 66t66 44.5t81 16.5t81 -16.5
t66 -44.5t44.5 -66t16.5 -81t-16.5 -81t-44.5 -66t-66 -44.5t-81 -16.5v0zM400 224h-256q-3 0 -6 -1.5t-5 -3.5t-3.5 -5t-1.5 -6t1.5 -6t3.5 -5t5 -3.5t6 -1.5h256q3 0 6 1.5t5 3.5t3.5 5t1.5 6t-1.5 6t-3.5 5t-5 3.5t-6 1.5v0zM400 320h-256q-3 0 -6 -1.5t-5 -3.5t-3.5 -5
t-1.5 -6t1.5 -6t3.5 -5t5 -3.5t6 -1.5h256q3 0 6 1.5t5 3.5t3.5 5t1.5 6t-1.5 6t-3.5 5t-5 3.5t-6 1.5v0zM400 128h-256q-3 0 -6 -1.5t-5 -3.5t-3.5 -5t-1.5 -6t1.5 -6t3.5 -5t5 -3.5t6 -1.5h256q3 0 6 1.5t5 3.5t3.5 5t1.5 6t-1.5 6t-3.5 5t-5 3.5t-6 1.5v0z" />
    <glyph glyph-name="d" unicode="d" 
d="M176 224h256q3 0 6 1.5t5 3.5t3.5 5t1.5 6t-1.5 6t-3.5 5t-5 3.5t-6 1.5h-256q-3 0 -6 -1.5t-5 -3.5t-3.5 -5t-1.5 -6t1.5 -6t3.5 -5t5 -3.5t6 -1.5v0zM176 352h256q3 0 6 1.5t5 3.5t3.5 5t1.5 6t-1.5 6t-3.5 5t-5 3.5t-6 1.5h-256q-3 0 -6 -1.5t-5 -3.5t-3.5 -5t-1.5 -6
t1.5 -6t3.5 -5t5 -3.5t6 -1.5v0zM176 96h256q3 0 6 1.5t5 3.5t3.5 5t1.5 6t-1.5 6t-3.5 5t-5 3.5t-6 1.5h-256q-3 0 -6 -1.5t-5 -3.5t-3.5 -5t-1.5 -6t1.5 -6t3.5 -5t5 -3.5t6 -1.5v0zM64 368q0 -3 1.5 -6t3.5 -5t5 -3.5t6 -1.5t6 1.5t5 3.5t3.5 5t1.5 6t-1.5 6t-3.5 5
t-5 3.5t-6 1.5t-6 -1.5t-5 -3.5t-3.5 -5t-1.5 -6v0zM64 240q0 -3 1.5 -6t3.5 -5t5 -3.5t6 -1.5t6 1.5t5 3.5t3.5 5t1.5 6t-1.5 6t-3.5 5t-5 3.5t-6 1.5t-6 -1.5t-5 -3.5t-3.5 -5t-1.5 -6v0zM64 112q0 -3 1.5 -6t3.5 -5t5 -3.5t6 -1.5t6 1.5t5 3.5t3.5 5t1.5 6t-1.5 6t-3.5 5
t-5 3.5t-6 1.5t-6 -1.5t-5 -3.5t-3.5 -5t-1.5 -6v0z" />
    <glyph glyph-name="e" unicode="e" 
d="M432 256h-256q-3 0 -6 -1.5t-5 -3.5t-3.5 -5t-1.5 -6t1.5 -6t3.5 -5t5 -3.5t6 -1.5h256q3 0 6 1.5t5 3.5t3.5 5t1.5 6t-1.5 6t-3.5 5t-5 3.5t-6 1.5v0zM432 384h-256q-3 0 -6 -1.5t-5 -3.5t-3.5 -5t-1.5 -6t1.5 -6t3.5 -5t5 -3.5t6 -1.5h256q3 0 6 1.5t5 3.5t3.5 5t1.5 6
t-1.5 6t-3.5 5t-5 3.5t-6 1.5v0zM432 128h-256q-3 0 -6 -1.5t-5 -3.5t-3.5 -5t-1.5 -6t1.5 -6t3.5 -5t5 -3.5t6 -1.5h256q3 0 6 1.5t5 3.5t3.5 5t1.5 6t-1.5 6t-3.5 5t-5 3.5t-6 1.5v0zM111 329v78h-9l-17 -9l2 -8l14 8v0v-69h10zM86 215l-8 -8v-6h50v8h-35v1l6 5
q6 6 11 11.5t8.5 10.5t5.5 10t2 11q0 4 -1.5 8t-4.5 7.5t-7.5 5.5t-10.5 2q-4 0 -7 -0.5t-5.5 -2l-5 -3t-4.5 -2.5l3 -8q1 1 3 2.5t4 2.5t4.5 1.5t5.5 0.5q4 0 7 -1.5t5 -3.5t2.5 -5t0.5 -6q0 -4 -1.5 -8.5t-5 -9t-9 -10.5t-13.5 -13v0zM99 81q-3 0 -5.5 0.5t-5 1.5t-4 1.5
t-2.5 1.5l-3 -8q1 -1 3 -2t5 -2t6 -1h6q7 0 12.5 1.5t9 5t5.5 7.5t2 9q0 4 -1.5 7.5t-4 6t-5.5 4.5t-7 2v1q4 1 7 3t4.5 4.5t2.5 5t1 5.5q0 4 -1.5 7.5t-4 6t-7 4t-10.5 1.5q-3 0 -6 -0.5t-5.5 -1.5l-5 -2t-3.5 -2l3 -8q1 1 2.5 2t3.5 2t4.5 1h4.5q4 0 6.5 -0.5t4.5 -2.5
t2.5 -4t0.5 -4q0 -4 -1.5 -6.5t-4 -4t-6 -2.5t-5.5 -1h-6v-8h6q3 0 7 -1t6.5 -2.5t4.5 -4.5t2 -8q0 -2 -1 -4.5t-3 -5t-5.5 -4t-8.5 -1.5v0z" />
    <glyph glyph-name="f" unicode="f" 
d="M432 384h-48q0 7 -2.5 12.5t-7 10t-10 7t-12.5 2.5h-32q-7 0 -12.5 -2.5t-10 -7t-7 -10t-2.5 -12.5h-208q-3 0 -6 -1.5t-5 -3.5t-3.5 -5t-1.5 -6t1.5 -6t3.5 -5t5 -3.5t6 -1.5h208q0 -7 2.5 -12.5t7 -10t10 -7t12.5 -2.5h32q7 0 12.5 2.5t10 7t7 10t2.5 12.5h48
q3 0 6 1.5t5 3.5t3.5 5t1.5 6t-1.5 6t-3.5 5t-5 3.5t-6 1.5v0zM352 352h-32v32h32v-32v0zM432 256h-208q0 7 -2.5 12.5t-7 10t-10 7t-12.5 2.5h-32q-7 0 -12.5 -2.5t-10 -7t-7 -10t-2.5 -12.5h-48q-3 0 -6 -1.5t-5 -3.5t-3.5 -5t-1.5 -6t1.5 -6t3.5 -5t5 -3.5t6 -1.5h48
q0 -7 2.5 -12.5t7 -10t10 -7t12.5 -2.5h32q7 0 12.5 2.5t10 7t7 10t2.5 12.5h208q3 0 6 1.5t5 3.5t3.5 5t1.5 6t-1.5 6t-3.5 5t-5 3.5t-6 1.5v0zM192 224h-32v32h32v-32v0zM432 128h-112q0 7 -2.5 12.5t-7 10t-10 7t-12.5 2.5h-32q-7 0 -12.5 -2.5t-10 -7t-7 -10t-2.5 -12.5
h-144q-3 0 -6 -1.5t-5 -3.5t-3.5 -5t-1.5 -6t1.5 -6t3.5 -5t5 -3.5t6 -1.5h144q0 -7 2.5 -12.5t7 -10t10 -7t12.5 -2.5h32q7 0 12.5 2.5t10 7t7 10t2.5 12.5h112q3 0 6 1.5t5 3.5t3.5 5t1.5 6t-1.5 6t-3.5 5t-5 3.5t-6 1.5v0zM288 96h-32v32h32v-32v0z" />
    <glyph glyph-name="g" unicode="g" 
d="M160 352v48q0 3 -1.5 6t-3.5 5t-5 3.5t-6 1.5t-6 -1.5t-5 -3.5t-3.5 -5t-1.5 -6v-48q-7 0 -12.5 -2.5t-10 -7t-7 -10t-2.5 -12.5v-32q0 -7 2.5 -12.5t7 -10t10 -7t12.5 -2.5v-208q0 -3 1.5 -6t3.5 -5t5 -3.5t6 -1.5t6 1.5t5 3.5t3.5 5t1.5 6v208q7 0 12.5 2.5t10 7t7 10
t2.5 12.5v32q0 7 -2.5 12.5t-7 10t-10 7t-12.5 2.5v0zM128 320h32v-32h-32v32v0zM288 192v208q0 3 -1.5 6t-3.5 5t-5 3.5t-6 1.5t-6 -1.5t-5 -3.5t-3.5 -5t-1.5 -6v-208q-7 0 -12.5 -2.5t-10 -7t-7 -10t-2.5 -12.5v-32q0 -7 2.5 -12.5t7 -10t10 -7t12.5 -2.5v-48
q0 -3 1.5 -6t3.5 -5t5 -3.5t6 -1.5t6 1.5t5 3.5t3.5 5t1.5 6v48q7 0 12.5 2.5t10 7t7 10t2.5 12.5v32q0 7 -2.5 12.5t-7 10t-10 7t-12.5 2.5v0zM256 160h32v-32h-32v32v0zM416 288v112q0 3 -1.5 6t-3.5 5t-5 3.5t-6 1.5t-6 -1.5t-5 -3.5t-3.5 -5t-1.5 -6v-112
q-7 0 -12.5 -2.5t-10 -7t-7 -10t-2.5 -12.5v-32q0 -7 2.5 -12.5t7 -10t10 -7t12.5 -2.5v-144q0 -3 1.5 -6t3.5 -5t5 -3.5t6 -1.5t6 1.5t5 3.5t3.5 5t1.5 6v144q7 0 12.5 2.5t10 7t7 10t2.5 12.5v32q0 7 -2.5 12.5t-7 10t-10 7t-12.5 2.5v0zM384 256h32v-32h-32v32v0z" />
    <glyph glyph-name="h" unicode="h" 
d="M64 -32h384q7 0 12.5 2.5t10 7t7 10t2.5 12.5v448q0 7 -2.5 12.5t-7 10t-10 7t-12.5 2.5h-384q-7 0 -12.5 -2.5t-10 -7t-7 -10t-2.5 -12.5v-448q0 -7 2.5 -12.5t7 -10t10 -7t12.5 -2.5v0zM64 448h384v-448h-384v448v0zM368 384h-128q-3 0 -6 -1.5t-5 -3.5t-3.5 -5
t-1.5 -6t1.5 -6t3.5 -5t5 -3.5t6 -1.5h128q3 0 6 1.5t5 3.5t3.5 5t1.5 6t-1.5 6t-3.5 5t-5 3.5t-6 1.5v0zM368 288h-224q-3 0 -6 -1.5t-5 -3.5t-3.5 -5t-1.5 -6t1.5 -6t3.5 -5t5 -3.5t6 -1.5h224q3 0 6 1.5t5 3.5t3.5 5t1.5 6t-1.5 6t-3.5 5t-5 3.5t-6 1.5v0zM368 192h-224
q-3 0 -6 -1.5t-5 -3.5t-3.5 -5t-1.5 -6t1.5 -6t3.5 -5t5 -3.5t6 -1.5h224q3 0 6 1.5t5 3.5t3.5 5t1.5 6t-1.5 6t-3.5 5t-5 3.5t-6 1.5v0zM368 96h-224q-3 0 -6 -1.5t-5 -3.5t-3.5 -5t-1.5 -6t1.5 -6t3.5 -5t5 -3.5t6 -1.5h224q3 0 6 1.5t5 3.5t3.5 5t1.5 6t-1.5 6t-3.5 5
t-5 3.5t-6 1.5v0z" />
    <glyph glyph-name="i" unicode="i" 
d="M64 32h32v-32q0 -7 2.5 -12.5t7 -10t10 -7t12.5 -2.5h320q7 0 12.5 2.5t10 7t7 10t2.5 12.5v384q0 7 -2.5 12.5t-7 10t-10 7t-12.5 2.5h-32v32q0 7 -2.5 12.5t-7 10t-10 7t-12.5 2.5h-320q-7 0 -12.5 -2.5t-10 -7t-7 -10t-2.5 -12.5v-384q0 -7 2.5 -12.5t7 -10t10 -7
t12.5 -2.5v0zM384 64h-320v384h320v-384v0zM448 384v-384h-320v32h256q7 0 12.5 2.5t10 7t7 10t2.5 12.5v320h32v0zM160 368q0 -3 1.5 -6t3.5 -5t5 -3.5t6 -1.5h160q3 0 6 1.5t5 3.5t3.5 5t1.5 6t-1.5 6t-3.5 5t-5 3.5t-6 1.5h-160q-3 0 -6 -1.5t-5 -3.5t-3.5 -5t-1.5 -6v0z
M112 256h224q3 0 6 1.5t5 3.5t3.5 5t1.5 6t-1.5 6t-3.5 5t-5 3.5t-6 1.5h-224q-3 0 -6 -1.5t-5 -3.5t-3.5 -5t-1.5 -6t1.5 -6t3.5 -5t5 -3.5t6 -1.5v0zM112 192h224q3 0 6 1.5t5 3.5t3.5 5t1.5 6t-1.5 6t-3.5 5t-5 3.5t-6 1.5h-224q-3 0 -6 -1.5t-5 -3.5t-3.5 -5t-1.5 -6
t1.5 -6t3.5 -5t5 -3.5t6 -1.5v0zM112 128h224q3 0 6 1.5t5 3.5t3.5 5t1.5 6t-1.5 6t-3.5 5t-5 3.5t-6 1.5h-224q-3 0 -6 -1.5t-5 -3.5t-3.5 -5t-1.5 -6t1.5 -6t3.5 -5t5 -3.5t6 -1.5v0z" />
    <glyph glyph-name="j" unicode="j" 
d="M482 -2l-34 102l-271 271l-68 -68l271 -271zM64 348l68 68l-34 34q-7 7 -16 10.5t-18 3.5t-18 -3.5t-16 -10.5t-10.5 -16t-3.5 -18t3.5 -18t10.5 -16l34 -34v0z" />
    <glyph glyph-name="k" unicode="k" 
d="M330 93l86 -29l-29 86l-164 165l-58 -58zM132 291l57 57l-42 43q-6 6 -13.5 9t-15.5 3t-15.5 -3t-13.5 -9t-9 -13.5t-3 -15.5t3 -15.5t9 -13.5l43 -42v0zM480 480h-448q-7 0 -12.5 -2.5t-10 -7t-7 -10t-2.5 -12.5v-448q0 -7 2.5 -12.5t7 -10t10 -7t12.5 -2.5h448
q7 0 12.5 2.5t10 7t7 10t2.5 12.5v448q0 7 -2.5 12.5t-7 10t-10 7t-12.5 2.5v0zM480 0h-448v448h448v-448v0z" />
    <glyph glyph-name="l" unicode="l" 
d="M339 141l-29 86l-164 165l-58 -58l165 -164zM12 468q-6 -6 -9 -13.5t-3 -15.5t3 -15.5t9 -13.5l42 -42l58 58l-42 42q-6 6 -13.5 9t-15.5 3t-15.5 -3t-13.5 -9v0zM480 384h-227l32 -32h195v-352h-352v195l-32 32v-227q0 -7 2.5 -12.5t7 -10t10 -7t12.5 -2.5h352
q7 0 12.5 2.5t10 7t7 10t2.5 12.5v352q0 7 -2.5 12.5t-7 10t-10 7t-12.5 2.5v0z" />
    <glyph glyph-name="m" unicode="m" 
d="M480 448h-145q-6 0 -13 -2t-13.5 -5.5t-11.5 -9.5t-9 -15l-1 -4.5t-4.5 -10.5t-10 -11t-16.5 -6h-224q-7 0 -12.5 -2.5t-10 -6.5t-7 -10t-2.5 -12v-289q0 -7 2.5 -12.5t7 -10t10 -7t12.5 -2.5h448q7 0 12.5 2.5t10 7t7 10t2.5 12.5v352q0 7 -2.5 12.5t-7 10t-10 7
t-12.5 2.5v0zM480 353v-289h-448v288h224h0.5h1h1h0.5q11 1 20.5 5.5t16.5 10.5t12 13.5t8 16.5q3 6 7 10.5t7.5 5.5t6 1.5t2.5 -0.5l141 1v-64v1z" />
    <glyph glyph-name="n" unicode="n" 
d="M512 353v63q0 7 -2.5 12.5t-7 10t-10 7t-12.5 2.5h-160q-7 0 -12.5 -2.5t-10 -7t-7 -10t-2.5 -12.5l-1 -4.5t-4.5 -10.5t-10 -11t-16.5 -6h-224q-7 0 -12.5 -2.5t-10 -6.5t-7 -10t-2.5 -12v-33h512v33v0zM32 0h448q7 0 12.5 2.5t10 7t7 10t2.5 12.5v256h-512v-256
q0 -7 2.5 -12.5t7 -10t10 -7t12.5 -2.5v0zM32 256h448v-224h-448v224v0z" />
    <glyph glyph-name="o" unicode="o" 
d="M448 416h-113q-6 0 -13 -2t-13.5 -5.5t-11.5 -9.5t-9 -15l-1 -4.5t-4.5 -10.5t-10 -11t-16.5 -6h-224q-7 0 -12.5 -2.5t-10 -6.5t-7 -10t-2.5 -12v-289q0 -7 2.5 -12.5t7 -10t10 -7t12.5 -2.5h416q7 0 12.5 2.5t10 7t7 10t2.5 12.5v352q0 7 -2.5 12.5t-7 10t-10 7
t-12.5 2.5v0zM448 321v-289h-416v288h224h0.5h1h1h0.5q11 1 20.5 5.5t16.5 10.5t12 14t8 16q3 7 7 11t7.5 5.5t6 1.5h2.5h109v-63v0zM320 192h-64v64q0 3 -1.5 6t-3.5 5t-5 3.5t-6 1.5t-6 -1.5t-5 -3.5t-3.5 -5t-1.5 -6v-64h-64q-3 0 -6 -1.5t-5 -3.5t-3.5 -5t-1.5 -6
t1.5 -6t3.5 -5t5 -3.5t6 -1.5h64v-64q0 -3 1.5 -6t3.5 -5t5 -3.5t6 -1.5t6 1.5t5 3.5t3.5 5t1.5 6v64h64q3 0 6 1.5t5 3.5t3.5 5t1.5 6t-1.5 6t-3.5 5t-5 3.5t-6 1.5v0z" />
    <glyph glyph-name="p" unicode="p" 
d="M256 480q-53 0 -99.5 -20t-81.5 -55t-55 -81.5t-20 -99.5t20 -99.5t55 -81.5t81.5 -55t99.5 -20t99.5 20t81.5 55t55 81.5t20 99.5t-20 99.5t-55 81.5t-81.5 55t-99.5 20v0zM256 0q-46 0 -87 17.5t-71.5 48t-48 71.5t-17.5 87t17.5 87t48 71.5t71.5 48t87 17.5t87 -17.5
t71.5 -48t48 -71.5t17.5 -87t-17.5 -87t-48 -71.5t-71.5 -48t-87 -17.5v0zM256 288q-7 0 -12.5 -2.5t-10 -7t-7 -10t-2.5 -12.5v-160q0 -7 2.5 -12.5t7 -10t10 -7t12.5 -2.5t12.5 2.5t10 7t7 10t2.5 12.5v160q0 7 -2.5 12.5t-7 10t-10 7t-12.5 2.5v0zM224 351q0 -6 2.5 -12
t7 -10t10 -7t12.5 -3t12.5 3t10 7t7 10t2.5 12q0 7 -2.5 13t-7 10t-10 6.5t-12.5 2.5t-12.5 -2.5t-10 -6.5t-7 -10t-2.5 -13v0z" />
    <glyph glyph-name="q" unicode="q" 
d="M371 471q-2 2 -4.5 3.5t-5.5 3t-6 2t-6 0.5h-186q-3 0 -6 -0.5t-6 -2t-5.5 -3t-4.5 -3.5l-132 -132q-2 -2 -3.5 -4.5t-3 -5.5t-2 -6t-0.5 -6v-186q0 -3 0.5 -6t2 -6t3 -5.5t3.5 -4.5l132 -132q2 -2 4.5 -3.5t5.5 -3t6 -2t6 -0.5h186q3 0 6 0.5t6 2t5.5 3t4.5 3.5l132 132
q2 2 3.5 4.5t3 5.5t2 6t0.5 6v186q0 3 -0.5 6t-2 6t-3 5.5t-3.5 4.5l-132 132v0zM480 131l-131 -131h-186l-131 131v186l131 131h186l131 -131v-186v0zM256 384q-7 0 -12.5 -2.5t-10 -7t-7 -10t-2.5 -12.5v-160q0 -7 2.5 -12.5t7 -10t10 -7t12.5 -2.5t12.5 2.5t10 7t7 10
t2.5 12.5v160q0 7 -2.5 12.5t-7 10t-10 7t-12.5 2.5v0zM224 96q0 -7 2.5 -12.5t7 -10t10 -7t12.5 -2.5t12.5 2.5t10 7t7 10t2.5 12.5t-2.5 12.5t-7 10t-10 7t-12.5 2.5t-12.5 -2.5t-10 -7t-7 -10t-2.5 -12.5v0z" />
    <glyph glyph-name="r" unicode="r" 
d="M256 480q-53 0 -99.5 -20t-81.5 -55t-55 -81.5t-20 -99.5t20 -99.5t55 -81.5t81.5 -55t99.5 -20t99.5 20t81.5 55t55 81.5t20 99.5t-20 99.5t-55 81.5t-81.5 55t-99.5 20v0zM256 0q-46 0 -87 17.5t-71.5 48t-48 71.5t-17.5 87t17.5 87t48 71.5t71.5 48t87 17.5t87 -17.5
t71.5 -48t48 -71.5t17.5 -87t-17.5 -87t-48 -71.5t-71.5 -48t-87 -17.5v0zM256 384q-7 0 -12.5 -2.5t-10 -7t-7 -10t-2.5 -12.5v-160q0 -7 2.5 -12.5t7 -10t10 -7t12.5 -2.5t12.5 2.5t10 7t7 10t2.5 12.5v160q0 7 -2.5 12.5t-7 10t-10 7t-12.5 2.5v0zM224 97q0 -7 2.5 -13
t7 -10t10 -6.5t12.5 -2.5t12.5 2.5t10 6.5t7 10t2.5 13q0 6 -2.5 12t-7 10t-10 7t-12.5 3t-12.5 -3t-10 -7t-7 -10t-2.5 -12v0z" />
    <glyph glyph-name="s" unicode="s" 
d="M506 47l-222 416q-2 4 -5 7t-6.5 5.5t-8 3.5t-8.5 1v0q-4 0 -8.5 -1t-8 -3.5t-6.5 -5.5t-5 -7l-223 -416q-2 -4 -3 -8t-1 -8t1 -8t4 -7q2 -4 5 -7t6.5 -5t7.5 -3t8 -1h445q4 0 8 1t7.5 3t6.5 5t5 7q3 3 4 7t1 8t-1 8t-3 8v0zM33 32l223 416l222 -416h-445v0zM224 287v-96
q0 -6 2.5 -12t7 -10t10 -7t12.5 -3t12.5 3t10 7t7 10t2.5 12v96q0 7 -2.5 13t-7 10t-10 6.5t-12.5 2.5t-12.5 -2.5t-10 -6.5t-7 -10t-2.5 -13v0zM224 96q0 -7 2.5 -12.5t7 -10t10 -7t12.5 -2.5t12.5 2.5t10 7t7 10t2.5 12.5t-2.5 12.5t-7 10t-10 7t-12.5 2.5t-12.5 -2.5
t-10 -7t-7 -10t-2.5 -12.5v0z" />
    <glyph glyph-name="t" unicode="t" 
d="M256 480q-53 0 -99.5 -20t-81.5 -55t-55 -81.5t-20 -99.5t20 -99.5t55 -81.5t81.5 -55t99.5 -20t99.5 20t81.5 55t55 81.5t20 99.5t-20 99.5t-55 81.5t-81.5 55t-99.5 20v0zM256 0q-46 0 -87 17.5t-71.5 48t-48 71.5t-17.5 87t17.5 87t48 71.5t71.5 48t87 17.5t87 -17.5
t71.5 -48t48 -71.5t17.5 -87t-17.5 -87t-48 -71.5t-71.5 -48t-87 -17.5v0zM220 64v0v0v0v0q0 -7 3 -13t7.5 -10.5t10.5 -7t12 -2.5q7 0 13 2.5t10.5 7t7 10.5t2.5 13v0v0v0v0v0v0v0v0q0 6 -2.5 12t-7 10.5t-10.5 7.5t-13 3q-6 0 -12 -3t-10.5 -7.5t-7.5 -10.5t-3 -12v0v0v0
v0v0zM253 416q-23 0 -46 -8.5t-41 -24.5t-29.5 -40t-11.5 -56q0 -6 2.5 -12t7 -10.5t10.5 -7t12 -2.5q7 0 13 2.5t10 7t6.5 10.5t2.5 12q0 17 6 29t15 20t20.5 12t22.5 4q9 0 20.5 -2t21 -7.5t16 -16t6.5 -28.5q0 -6 -1 -13t-5 -13.5t-11 -13.5t-19 -14q-9 -5 -19 -12.5
t-19 -18.5t-15.5 -24.5t-6.5 -28.5q0 -7 2.5 -12.5t7 -10t10.5 -7t12 -2.5q7 0 13 2.5t10 7t6.5 10t2.5 12.5q0 2 2.5 5.5t6 7.5t8 8t9.5 7q18 10 31 21.5t22 25.5t13 29.5t4 33.5q0 31 -11 53t-29 36.5t-41 21.5t-47 7v0z" />
    <glyph glyph-name="u" unicode="u" 
d="M220 64v0v0v0v0q0 -7 3 -13t7.5 -10.5t10.5 -7t12 -2.5q7 0 13 2.5t10.5 7t7 10.5t2.5 13v0v0v0v0v0v0v0v0q0 6 -2.5 12t-7 10.5t-10.5 7.5t-13 3q-6 0 -12 -3t-10.5 -7.5t-7.5 -10.5t-3 -12v0v0v0v0v0zM311 188q18 10 31 21.5t22 25.5t13 29.5t4 33.5q0 31 -11 53
t-29 36.5t-41 21.5t-47 7q-23 0 -46 -8.5t-41 -24.5t-29.5 -40t-11.5 -56q0 -6 2.5 -12t7 -10.5t10.5 -7t12 -2.5q7 0 13 2.5t10 7t6.5 10.5t2.5 12q0 17 6 29t15 20t20.5 12t22.5 4q9 0 20.5 -2t21 -7.5t16 -16t6.5 -28.5q0 -6 -1 -13t-5 -13.5t-11 -13.5t-19 -14
q-9 -5 -19 -12.5t-19 -18.5t-15.5 -24.5t-6.5 -28.5q0 -7 2.5 -12.5t7 -10t10.5 -7t12 -2.5q7 0 13 2.5t10 7t6.5 10t2.5 12.5q0 2 2.5 5.5t6 7.5t8 8t9.5 7v0z" />
    <glyph glyph-name="v" unicode="v" 
d="M30 10q1 -2 2.5 -4t3.5 -3t4.5 -1.5t4.5 -0.5q17 0 33 2t32 6.5t31.5 11.5t32.5 17q8 -1 19 -2.5t23 -2.5t22.5 -2t17.5 -1q53 0 99 16.5t80.5 45t54.5 66.5t20 81t-20 81t-54.5 66.5t-80.5 44.5t-99 16t-99 -16t-80.5 -44.5t-54.5 -66.5t-20 -81q0 -21 5 -40.5t14 -38
t22.5 -35.5t30.5 -32l-8.5 -17t-9.5 -17t-11 -16l-12 -16q-2 -2 -3 -4t-1 -4.5v-4.5t1 -4v0zM34 239q0 36 17.5 68.5t47.5 56.5t70.5 37.5t86.5 13.5t86.5 -13.5t70.5 -37.5t47.5 -56.5t17.5 -68.5q0 -37 -17.5 -69t-47.5 -56t-70.5 -38t-86.5 -14q-7 0 -18.5 1t-23.5 2
t-23 2.5t-17 2.5q-2 1 -3.5 1t-3 -0.5t-2.5 -1l-3 -1.5q-11 -7 -21.5 -12t-21 -9.5t-20.5 -7t-20 -4.5l8 14l8 14t7 14.5t6 15.5q1 2 1.5 4.5t-0.5 5t-2.5 5t-3.5 3.5q-17 13 -29.5 27.5t-21.5 31t-13.5 34t-4.5 35.5v0z" />
    <glyph glyph-name="w" unicode="w" 
d="M447 291q1 -5 1.5 -9.5t1 -10t1 -10t0.5 -10.5q0 -37 -15.5 -72.5t-43 -62.5t-64.5 -46.5t-80 -25.5q9 -4 18.5 -6.5t20 -5t21 -3t21.5 -1.5q10 1 20 1.5t19.5 2.5l19 4t18.5 7q11 -5 22.5 -7l23 -4t22 -2t20.5 -1q-5 7 -9.5 13t-8 12t-6.5 11.5t-6 11.5q11 9 20 21
t15 24.5t9.5 26.5t3.5 28q0 18 -4.5 33.5t-13 30.5t-20.5 27t-27 23v0zM24 72q1 -1 2.5 -3t3 -2.5t4 -1.5t4.5 0q0 -1 0 -0.5v0v0t0 -0.5q7 1 16 3t20.5 6.5t24 10.5t26.5 15q7 -2 17.5 -3t22 -3t21.5 -2.5t15 -1.5q43 1 79.5 14t63.5 37.5t42.5 57t15.5 70.5q0 36 -15.5 69
t-43 57t-64 38.5t-78.5 13.5q-41 1 -77.5 -13.5t-64 -38.5t-43 -57t-15.5 -69q0 -18 3.5 -34t10.5 -32.5t17.5 -30.5t23.5 -27q-3 -6 -6 -13.5t-7 -14t-8.5 -13.5t-9.5 -13l-2 -4t-1 -4.5v-4.5t2 -5v0zM33 268q0 29 13 56.5t36 47t54 31.5t66 11q34 1 65 -11t54 -31.5
t36 -47t13 -56.5q0 -32 -12.5 -58.5t-35.5 -46.5t-53.5 -30.5t-66.5 -11.5q-5 1 -16 1.5t-22.5 2.5t-22.5 3.5t-16 3.5q-2 -1 -3.5 -0.5t-3 0t-3 -0.5t-2.5 -2q-6 -3 -11 -6.5t-9.5 -5.5t-9 -4.5t-8.5 -3.5q2 3 4 8t4 9t4 9t3 8q1 4 1 6t-0.5 4.5t-1.5 4l-3 4.5
q-13 10 -23 22.5t-16.5 25.5t-10 28t-3.5 29v1z" />
    <glyph glyph-name="x" unicode="x" 
d="M32 92h73q2 -2 24.5 -21t48 -40.5t46.5 -39l21 -17.5q2 -2 4.5 -3t5 -1.5t4.5 -1t4 -0.5h0.5h0.5h0.5h0.5q5 1 8.5 2.5t6.5 4.5t5 7t3 8v468q-1 4 -3 8t-5 7t-6.5 4.5t-8.5 2.5h-0.5h-0.5h-0.5h-0.5q-2 0 -4 -0.5t-4.5 -1t-5 -1.5t-4.5 -3l-21 -18t-46.5 -40.5t-48 -42
t-24.5 -21.5h-73q-7 0 -12.5 -2.5t-10 -7t-7 -10t-2.5 -12.5v-196q0 -7 2.5 -12.5t7 -10t10 -7t12.5 -2.5v0zM32 128v192h73q3 0 6 0.5t6 2t5.5 3t5.5 3.5q2 2 15 14t32 28.5t40.5 35t40.5 35.5v-436q-19 16 -40.5 34t-40 34t-32 27.5t-15.5 13.5t-5 3.5t-5.5 3t-6 2
t-6.5 0.5h-73v4v0zM506 307q-3 3 -6.5 4.5t-7 1.5t-7 -1.5t-6.5 -4.5l-56 -55l-55 55q-3 3 -6.5 4.5t-7 1.5t-7.5 -1.5t-6 -4.5q-3 -3 -4.5 -6.5t-1.5 -7.5t1.5 -7.5t4.5 -6.5l55 -55l-55 -55q-3 -3 -4.5 -6.5t-1.5 -7.5t1.5 -7.5t4.5 -6.5q2 -3 6 -4.5t7.5 -1.5t7 1.5
t6.5 4.5l55 55l56 -55q3 -3 6.5 -4.5t7 -1.5t7 1.5t6.5 4.5t4.5 6.5t1.5 7.5t-1.5 7.5t-4.5 6.5l-55 55l55 55q3 3 4.5 6.5t1.5 7.5t-1.5 7.5t-4.5 6.5v0z" />
    <glyph glyph-name="y" unicode="y" 
d="M327 480q-2 0 -4 -0.5t-4.5 -1t-5 -1.5t-4.5 -3l-21 -18t-46.5 -40.5t-48 -42t-24.5 -21.5h-73q-7 0 -12.5 -2.5t-10 -7t-7 -10t-2.5 -12.5v-196q0 -7 2.5 -12.5t7 -10t10 -7t12.5 -2.5h73q2 -2 24.5 -21t48 -40.5t46.5 -39l21 -17.5q2 -2 4.5 -3t5 -1.5t4.5 -1t4 -0.5
h0.5h0.5h0.5h0.5q5 1 8.5 2.5t6.5 4.5t5 7t3 8v468q-1 4 -3 8t-5 7t-6.5 4.5t-8.5 2.5h-0.5h-0.5h-0.5h-0.5v0zM320 6q-19 16 -40.5 34t-40 34t-32 27.5t-15.5 13.5t-5 3.5t-5.5 3t-6 2t-6.5 0.5h-73v196h73q3 0 6 0.5t6 2t5.5 3t5.5 3.5q2 2 15 14t32 28.5t40.5 35
t40.5 35.5v-436v0zM401 168q-3 -1 -5 -3.5t-3 -5.5t-0.5 -6t1.5 -6q1 -2 2.5 -4t3.5 -3t4 -1.5t4 -0.5h2h2t2 0.5t2 0.5q12 7 21.5 15.5t16.5 19.5t10.5 24t3.5 26t-3.5 26t-10.5 24t-16.5 19.5t-21.5 15.5q-3 1 -6.5 1t-6 -1t-5 -3t-4.5 -5q-1 -3 -1.5 -6t0.5 -6t3 -5.5
t5 -3.5q8 -4 14.5 -10t11 -13t7 -15.5t2.5 -17.5t-2.5 -17.5t-7 -15.5t-11 -13t-14.5 -10v0z" />
    <glyph glyph-name="z" unicode="z" 
d="M32 92h73q2 -2 24.5 -21t48 -40.5t46.5 -39l21 -17.5q2 -2 4.5 -3t5 -1.5t4.5 -1t4 -0.5h0.5h0.5h0.5h0.5q5 1 8.5 2.5t6.5 4.5t5 7t3 8v468q-1 4 -3 8t-5 7t-6.5 4.5t-8.5 2.5h-0.5h-0.5h-0.5h-0.5q-2 0 -4 -0.5t-4.5 -1t-5 -1.5t-4.5 -3l-21 -18t-46.5 -40.5t-48 -42
t-24.5 -21.5h-73q-7 0 -12.5 -2.5t-10 -7t-7 -10t-2.5 -12.5v-196q0 -7 2.5 -12.5t7 -10t10 -7t12.5 -2.5v0zM32 128v192h73q3 0 6 0.5t6 2t5.5 3t5.5 3.5q2 2 15 14t32 28.5t40.5 35t40.5 35.5v-436q-19 16 -40.5 34t-40 34t-32 27.5t-15.5 13.5t-5 3.5t-5.5 3t-6 2
t-6.5 0.5h-73v4v0zM337 168q-3 -1 -5 -3.5t-3 -5.5t-0.5 -6t1.5 -6q1 -2 2.5 -4t3.5 -3t4 -1.5t4 -0.5h2h2t2 0.5t2 0.5q12 7 21.5 15.5t16.5 19.5t10.5 24t3.5 26t-3.5 26t-10.5 24t-16.5 19.5t-21.5 15.5q-3 1 -6.5 1t-6 -1t-5 -3t-4.5 -5q-1 -3 -1.5 -6t0.5 -6t3 -5.5
t5 -3.5q8 -4 14.5 -10t11 -13t7 -15.5t2.5 -17.5t-2.5 -17.5t-7 -15.5t-11 -13t-14.5 -10v0zM315 40q1 -3 2.5 -5t3.5 -4t4.5 -3t5.5 -1h0.5t1 0.5t1 0.5h0.5q35 7 65 25t51.5 44t33.5 58.5t12 68.5t-12 68.5t-33.5 58.5t-51.5 44t-65 25q-3 1 -6 0.5t-5.5 -2.5t-4.5 -4.5
t-3 -5.5q0 -4 0.5 -7t2 -5.5t4.5 -4t6 -2.5q30 -6 54.5 -21t43 -37t28.5 -49.5t10 -57.5t-10 -57.5t-28.5 -49.5t-43 -37t-54.5 -21q-3 -1 -6 -2.5t-4.5 -4t-2 -5.5t-0.5 -7v0z" />
    <glyph glyph-name="braceleft" unicode="{" 
d="M128 270q0 -10 3.5 -19t10 -15.5t15 -10.5t18.5 -4q3 0 6 0.5t6 1.5t5.5 2t5.5 3q-1 -10 -4 -22t-10.5 -25.5t-19.5 -27.5t-30 -29q-2 -2 -3.5 -4.5t-2 -5.5t0 -6.5t2.5 -5.5l3 -3t3 -2t3.5 -1.5t3.5 -0.5q1 0 2 0.5t2.5 1t2.5 1t2 1.5q22 18 36.5 36t23 34.5t12.5 31.5
t4 28q2 15 0.5 27.5t-5 21.5t-7.5 15.5t-9 10.5q0 1 -0.5 1.5t-1 0.5t-1 0.5t-0.5 1.5q-1 0 -2 1t-2 1.5l-2 1t-1 1.5h-0.5h-0.5v0v0v0v0v0v0q-1 1 -2 1.5l-2 1t-1.5 0.5h-0.5l1 -1l-4 2t-4 1.5t-4.5 0.5h-4.5q-10 0 -18.5 -4t-15 -10.5t-10 -15.5t-3.5 -19v0zM283 270
q0 -10 4 -19t10 -15.5t14.5 -10.5t18.5 -4q3 0 6 0.5t6 1.5l6 2t5 3q-1 -10 -4 -22t-10.5 -25.5t-19.5 -27.5t-30 -29q-2 -2 -3.5 -4.5t-2 -5.5t0.5 -6.5t3 -5.5q1 -2 2.5 -3l3 -2t3 -1.5t3.5 -0.5q1 0 2.5 0.5t2.5 1l2 1t2 1.5q23 18 37 36t22.5 34.5t12.5 31.5t4 28
q2 15 0.5 27.5t-5 21.5t-7.5 15.5t-9 10.5q0 1 -0.5 1.5t-1 0.5t-0.5 0.5t-1 1.5q-1 0 -2 1t-2 1.5l-2 1t-1 1.5v0v0h-0.5h-0.5v0v0v0v0q-1 1 -2 1.5l-2 1t-1.5 0.5h-0.5l1 -1l-4 2t-4 1.5t-4.5 0.5h-4.5q-10 0 -18.5 -4t-14.5 -10.5t-10 -15.5t-4 -19v0z" />
    <glyph glyph-name="bar" unicode="|" 
d="M256 480q-53 0 -99.5 -20t-81.5 -55t-55 -81.5t-20 -99.5t20 -99.5t55 -81.5t81.5 -55t99.5 -20t99.5 20t81.5 55t55 81.5t20 99.5t-20 99.5t-55 81.5t-81.5 55t-99.5 20v0zM256 0q-46 0 -87 17.5t-71.5 48t-48 71.5t-17.5 87t17.5 87t48 71.5t71.5 48t87 17.5t87 -17.5
t71.5 -48t48 -71.5t17.5 -87t-17.5 -87t-48 -71.5t-71.5 -48t-87 -17.5v0zM205 308q-1 0 -2 1t-2 1.5l-2 1t-1 1.5h-0.5h-0.5v0v0v0v0v0v0q-1 1 -2 1.5l-2 1t-1.5 0.5h-0.5l1 -1l-4 2t-4 1.5t-4.5 0.5h-4.5q-10 0 -18.5 -4t-15 -10.5t-10 -15.5t-3.5 -19t3.5 -19t10 -15.5
t15 -10.5t18.5 -4q3 0 6 0.5t6 1.5t5.5 2t5.5 3q-1 -10 -4 -22t-10.5 -25.5t-19.5 -27.5t-30 -29q-2 -2 -3.5 -4.5t-2 -5.5t0 -6.5t2.5 -5.5l3 -3t3 -2t3.5 -1.5t3.5 -0.5q1 0 2 0.5t2.5 1t2.5 1t2 1.5q22 18 36.5 36t23 34.5t12.5 31.5t4 28q2 15 0.5 27.5t-5 21.5
t-7.5 15.5t-9 10.5q0 1 -0.5 1.5t-1 0.5t-1 0.5t-0.5 1.5v0zM360 308q-1 0 -2 1t-2 1.5t-1.5 1l-1.5 1.5v0v0h-0.5h-0.5v0v0v0v0q-1 1 -2 1.5l-2 1l-1 0.5v0v-1l-4 2t-4 1.5t-4.5 0.5h-4.5q-10 0 -18.5 -4t-14.5 -10.5t-10 -15.5t-4 -19t4 -19t10 -15.5t14.5 -10.5t18.5 -4
q3 0 6 0.5t6 1.5l6 2t5 3q-1 -10 -4 -22t-10.5 -25.5t-19.5 -27.5t-30 -29q-2 -2 -3.5 -4.5t-2 -5.5t0.5 -6.5t3 -5.5q1 -2 2.5 -3l3 -2t3 -1.5t3.5 -0.5q1 0 2.5 0.5t2.5 1l2 1t2 1.5q23 18 37 36t22.5 34.5t12.5 31.5t4 28q2 15 0.5 27.5t-5 21.5t-7.5 15.5t-9 10.5
q0 1 -0.5 1.5t-1 0.5t-0.5 0.5t-1 1.5v0z" />
    <glyph glyph-name="braceright" unicode="}" 
d="M273 446q-23 0 -45.5 -4.5t-44 -13t-41.5 -22t-38 -30.5q-35 -35 -52.5 -79t-17.5 -90t17.5 -90t52.5 -79q18 -18 38 -31t41.5 -21.5t44 -13t45.5 -4.5t45.5 4.5t44.5 13t42 21.5t37 31q35 35 52.5 79t17.5 90t-17.5 90t-52.5 79q-17 17 -37 30.5t-42 22t-44.5 13
t-45.5 4.5v0zM419 61q-14 -15 -31 -26.5t-35.5 -19t-38.5 -11.5t-41 -4t-41 4t-38.5 11.5t-35.5 19t-31 26.5q-15 14 -26.5 31t-19 35.5t-11.5 38.5t-4 41t4 41t11.5 38.5t19 35.5t26.5 31q14 15 31 26.5t35.5 19t38.5 11.5t41 4t41 -4t38.5 -11.5t35.5 -19t31 -26.5
q15 -14 26.5 -31t19 -35.5t11.5 -38.5t4 -41t-4 -41t-11.5 -38.5t-19 -35.5t-26.5 -31v0zM368 224h-80v112q0 4 -1.5 6.5t-3.5 5t-5 3.5t-6 1t-6 -1t-5 -3.5t-3.5 -5t-1.5 -6.5v-128v0v0v0v0v0q0 -3 1.5 -6t3.5 -5t5 -3.5t6 -1.5h96q3 0 6 1.5t5 3.5t3.5 5t1.5 6t-1.5 6
t-3.5 5t-5 3.5t-6 1.5v0z" />
    <glyph glyph-name="asciitilde" unicode="~" 
d="M256 480q-33 0 -62 -13t-51 -35t-34.5 -51.5t-12.5 -62.5v-30h-32q-7 0 -12.5 -2.5t-10 -7t-7 -10t-2.5 -12.5v-256q0 -7 2.5 -12.5t7 -10t10 -7t12.5 -2.5h384q7 0 12.5 2.5t10 7t7 10t2.5 12.5v256q0 7 -2.5 12.5t-7 10t-10 7t-12.5 2.5h-32v30q0 33 -12.5 62.5
t-34.5 51.5t-51 35t-62 13v0zM128 318q0 27 10 50.5t27.5 41t41 28t49.5 10.5t49.5 -10.5t41 -28t27.5 -41t10 -50.5v-30h-256v30v0zM448 0h-384v256h384v-256v0zM320 128q0 13 -5 25t-13.5 20.5t-20.5 13.5t-25 5t-25 -5t-20.5 -13.5t-13.5 -20.5t-5 -25t5 -25t13.5 -20.5
t20.5 -13.5t25 -5t25 5t20.5 13.5t13.5 20.5t5 25v0zM256 96q-7 0 -12.5 2.5t-10 7t-7 10t-2.5 12.5t2.5 12.5t7 10t10 7t12.5 2.5t12.5 -2.5t10 -7t7 -10t2.5 -12.5t-2.5 -12.5t-7 -10t-10 -7t-12.5 -2.5v0z" />
    <glyph glyph-name="uniE000" unicode="&#xe000;" 
d="M480 0v256q0 7 -2.5 12.5t-7 10t-10 7t-12.5 2.5h-320v14q0 32 9.5 59t26.5 46t41 30t53 11q20 0 39.5 -6t36.5 -16.5t30.5 -26t22.5 -35.5q2 -3 4.5 -5t5 -3t6 -1t6.5 2q3 1 5 3.5t3 5.5t1 6t-2 6q-11 23 -27.5 42t-37 32.5t-44.5 20.5t-49 7q-36 0 -65.5 -13.5t-51 -37
t-33.5 -56.5t-12 -71v-14h-32q-7 0 -12.5 -2.5t-10 -7t-7 -10t-2.5 -12.5v-256q0 -7 2.5 -12.5t7 -10t10 -7t12.5 -2.5h384q7 0 12.5 2.5t10 7t7 10t2.5 12.5v0zM64 256h384v-256h-384v256v0zM256 192q-13 0 -25 -5t-20.5 -13.5t-13.5 -20.5t-5 -25t5 -25t13.5 -20.5
t20.5 -13.5t25 -5t25 5t20.5 13.5t13.5 20.5t5 25t-5 25t-13.5 20.5t-20.5 13.5t-25 5v0zM256 96q-7 0 -12.5 2.5t-10 7t-7 10t-2.5 12.5t2.5 12.5t7 10t10 7t12.5 2.5t12.5 -2.5t10 -7t7 -10t2.5 -12.5t-2.5 -12.5t-7 -10t-10 -7t-12.5 -2.5v0z" />
    <glyph glyph-name="uniE001" unicode="&#xe001;" 
d="M176 80q0 4 -0.5 7.5t-1 6.5t-2 6.5t-2.5 6.5q-4 9 -10 15.5t-13.5 11.5t-16.5 7.5t-18 2.5q-13 0 -25 -5t-20.5 -13.5t-13.5 -20.5t-5 -25v-4.5t0.5 -4.5t1 -4.5t1.5 -4.5q4 -7 8.5 -13t10 -11.5t11.5 -10t13 -8.5q2 -1 4.5 -1.5t4.5 -1t4.5 -0.5h4.5q13 0 25 5
t20.5 13.5t13.5 20.5t5 25v0zM112 112q5 0 9 -1.5t8 -3.5t7 -5.5t5 -7.5q1 -2 1.5 -3.5t1 -3.5t0.5 -3.5v-3.5q0 -7 -2.5 -12.5t-7 -10t-10 -7t-12.5 -2.5t-12.5 2.5t-10 7t-7 10t-2.5 12.5t2.5 12.5t7 10t10 7t12.5 2.5v0zM496 480h-69h-3t-2.5 -0.5t-2.5 -1.5t-3 -2
l-226 -191q-4 1 -8 1.5t-7.5 1t-7 0.5h-7.5q-33 0 -62 -12.5t-51 -34.5t-34.5 -51t-12.5 -62t12.5 -62t34.5 -51t51 -34.5t62 -12.5t62 12.5t51 34.5t34.5 51t12.5 62q0 6 -0.5 12.5t-1.5 12.5t-2.5 12.5t-3.5 12.5l49 31l2.5 2.5t2.5 3.5t1.5 4t0.5 4v58l61 3q3 0 5.5 1.5
t4.5 3t3.5 4.5t1.5 5l6 62l53 26q2 1 3.5 2.5l3 3t2 4t0.5 4.5v64q0 3 -1.5 6t-3.5 5t-5 3.5t-6 1.5v0zM480 410l-52 -25q-2 -1 -3.5 -2t-3 -3t-2 -4t-0.5 -4l-6 -57l-62 -3q-3 0 -6 -1.5t-5 -3.5t-3 -5t-1 -6v-65l-52 -34q-3 -1 -4.5 -3.5t-2.5 -5t-0.5 -5.5t1.5 -5
q2 -6 4 -12.5t3.5 -12.5t2 -12.5t0.5 -12.5q0 -26 -10 -49.5t-27.5 -41t-41 -27.5t-49.5 -10q-9 0 -18 1.5t-17 3.5t-16 5.5t-15 8.5q-7 4 -13 8.5t-11.5 10t-10 11.5t-8.5 13q-5 7 -8.5 15t-5.5 16t-3.5 17t-1.5 18q0 26 10 49.5t27.5 41t41 27.5t49.5 10h7.5t7 -0.5
t7.5 -1.5l8 -2h4h4t3.5 1t2.5 2l229 193h47v-38v0z" />
    <glyph glyph-name="uniE002" unicode="&#xe002;" 
d="M416 256h-0.5h-1h-1h-0.5q1 4 1.5 8l1 8t0.5 8v8q0 33 -12.5 62t-34.5 51t-51 34.5t-62 12.5t-62 -12.5t-51 -34.5t-34.5 -51t-12.5 -62v-0.5v-0.5v0v-1q-20 -3 -37.5 -12.5t-30.5 -24t-20.5 -33.5t-7.5 -40t7.5 -40t20.5 -33.5t30.5 -24t37.5 -12.5v-2h320
q20 0 37.5 7.5t30.5 20.5t20.5 30.5t7.5 37.5t-7.5 37.5t-20.5 30.5t-30.5 20.5t-37.5 7.5v0zM416 96h-310q-1 0 -1.5 0.5t-1 0.5h-1.5h-1q-15 2 -27.5 9t-22 18t-14.5 24t-5 28t5 28t14.5 24t22 18t27.5 9q6 1 11 3.5t8.5 7t5.5 10t2 11.5v0.5v1v0.5v1q0 26 10.5 49
t27.5 40t40.5 27t49.5 10t49.5 -10t41 -27.5t27.5 -41t10 -49.5v-6.5t-0.5 -6.5t-1 -6.5t-1.5 -6.5v-7t1 -7.5t2.5 -6.5t3.5 -6q3 -3 5.5 -5t5.5 -3.5t6.5 -2t7.5 -0.5v0v0h0.5h0.5h0.5h1h1h0.5q13 0 24.5 -5.5t20 -14t13.5 -20t5 -24.5t-5 -25t-13.5 -20.5t-20.5 -13.5
t-25 -5v0z" />
    <glyph glyph-name="uniE003" unicode="&#xe003;" 
d="M417 256h-1.5h-1h-1h-0.5q1 4 1.5 8l1 8t0.5 8v8q0 33 -12.5 62t-34.5 51t-51 34.5t-62 12.5t-62 -12.5t-51 -34t-34.5 -50.5t-12.5 -61v-0.5v-1.5v-1.5v-0.5v0q-20 -3 -38 -12.5t-30.5 -24.5t-20 -33.5t-7.5 -39.5t7 -40t20 -34t30.5 -25t38.5 -13h80q3 0 6 1.5t5 3.5
t3.5 5t1.5 6t-1.5 6t-3.5 5t-5 3.5t-6 1.5h-78q-14 2 -26 9t-21 18t-14 24.5t-5 28.5t5 28t14.5 24t22 18t27.5 9l13 2q3 0 5.5 1.5t4.5 3.5t3 5t1 6v17q0 26 10 49t27.5 40t41 27t49.5 10t49.5 -10t41 -27.5t27.5 -41t10 -49.5v-6.5t-0.5 -6.5t-1 -6.5t-1.5 -6.5l-4 -20v-4
t0.5 -4t1.5 -3.5t2 -2.5q1 -2 3 -3t3.5 -1.5t3.5 -1t4 0.5h2t5 0.5t7 0.5h8q13 0 24.5 -5t20 -13.5t13.5 -20.5t5 -25t-5 -25t-13.5 -20.5t-20.5 -13.5t-25 -5h-112q-17 0 -26.5 4.5t-14.5 10t-6 10.5t-1 7v106l38 -38q2 -2 5 -3t6 -1t6 1t5 3q3 3 4 6t1 6t-1 6t-4 5l-64 64
q-1 2 -2.5 2.5l-3 1l-3 1t-2.5 0.5h-0.5h-0.5v0v0q-2 0 -3.5 -0.5l-3 -1t-2.5 -1.5t-3 -2l-64 -64q-2 -3 -3.5 -6t-1.5 -6t1.5 -6t3.5 -5t5 -3.5t6 -1.5t6 1.5t6 3.5l37 37v-105q0 -8 3.5 -19t12.5 -21t24.5 -17t39.5 -7h112q20 0 37.5 7.5t30.5 20.5t20.5 30.5t7.5 37.5
t-7.5 37.5t-20.5 30.5t-30 20.5t-37 7.5v0z" />
    <glyph glyph-name="uniE004" unicode="&#xe004;" 
d="M419 256q11 26 14 47t1 37.5t-7.5 28.5t-11.5 20q-8 12 -20 21t-25 15t-27.5 7.5t-28.5 -0.5q-23 -5 -40.5 -15.5t-28.5 -28t-16 -42.5t-5 -58v-74l-37 37q-2 2 -5 3.5t-6 1.5t-6 -1.5t-6 -3.5q-2 -2 -3 -5t-1 -6t1 -6t3 -6l65 -64q1 -1 2.5 -2t3 -1.5l3 -1t2.5 -0.5
q2 0 3.5 0.5l3 1t3 1.5t2.5 2l65 65q2 2 3.5 5t1.5 6t-1.5 6t-3.5 5q-3 3 -5.5 4t-6 1t-6 -1t-5.5 -4l-38 -38v75q0 35 5.5 56t14.5 32.5t20.5 16.5t23.5 7q8 2 17.5 1t18.5 -4.5t17.5 -10t15.5 -15.5q8 -12 11.5 -25.5t2 -29.5t-8 -34t-17.5 -37q-1 -2 -1.5 -4t-0.5 -4.5
t1 -4.5l2 -4l3.5 -3.5t3.5 -2t4.5 -1t4.5 0.5q2 0 4.5 0.5t5.5 0.5t6.5 0.5t6.5 0.5q13 0 24.5 -5t20 -13.5t13.5 -20.5t5 -25t-5 -25t-13.5 -20.5t-20.5 -13.5t-25 -5h-318q-14 2 -26 9t-21 18t-14 24.5t-5 28.5t5 28t14.5 24t22 18t27.5 9l13 2q3 0 5.5 1.5t4.5 3.5t3 5
t1 6v17q0 21 6.5 40t17.5 34t26.5 25t33.5 13q3 0 6 1.5t4.5 4t2.5 6t0 6.5q0 3 -2 5.5t-4 4.5t-5.5 3t-6.5 0q-24 -4 -44.5 -16.5t-35 -31.5t-23 -43.5t-8.5 -51.5v-0.5v-1.5v-1.5v-0.5v0q-20 -3 -38 -12.5t-30.5 -24.5t-20 -33.5t-7.5 -39.5t7 -40t20 -34t30.5 -25
t38.5 -13h320q20 0 37.5 7.5t30.5 20.5t20.5 30.5t7.5 37.5t-7.5 37t-20 30t-29.5 21t-36 8v0z" />
    <glyph glyph-name="uniE005" unicode="&#xe005;" 
d="M276 325q0 -9 3.5 -17t9.5 -14.5t14 -10t17 -3.5t17.5 3.5t14.5 10t9.5 14.5t3.5 17t-3.5 17t-9.5 14.5t-14.5 10t-17.5 3.5t-17 -3.5t-14 -10t-9.5 -14.5t-3.5 -17v0zM416 64h32v192l-128 -96l-160 128l-96 -96v-128h32h320zM480 448h-448q-7 0 -12.5 -2.5t-10 -7
t-7 -10t-2.5 -12.5v-384q0 -7 2.5 -12.5t7 -10t10 -7t12.5 -2.5h448q7 0 12.5 2.5t10 7t7 10t2.5 12.5v384q0 7 -2.5 12.5t-7 10t-10 7t-12.5 2.5v0zM480 32h-448v384h448v-384v0z" />
    <glyph glyph-name="uniE006" unicode="&#xe006;" 
d="M480 384h-32v64q0 7 -2.5 12.5t-7 10t-10 7t-12.5 2.5h-384q-7 0 -12.5 -2.5t-10 -7t-7 -10t-2.5 -12.5v-352q0 -7 2.5 -12.5t7 -10t10 -7t12.5 -2.5h32v-64q0 -7 2.5 -12.5t7 -10t10 -7t12.5 -2.5h384q7 0 12.5 2.5t10 7t7 10t2.5 12.5v352q0 7 -2.5 12.5t-7 10t-10 7
t-12.5 2.5v0zM32 96v352h384v-352h-384v0zM480 0h-384v64h32v-32h320v320h32v-352v0zM237 349q0 -9 3.5 -17t9.5 -14.5t14 -10t17 -3.5t17.5 3.5t14.5 10t9.5 14.5t3.5 17t-3.5 17t-9.5 14.5t-14.5 10t-17.5 3.5t-17 -3.5t-14 -10t-9.5 -14.5t-3.5 -17v0zM160 320l-96 -64
v-128h320v160l-128 -64z" />
    <glyph glyph-name="uniE007" unicode="&#xe007;" 
d="M256 480q-40 0 -75 -15t-61 -41t-41 -61t-15 -75q0 -23 5.5 -45.5t16 -42.5t25.5 -37.5t34 -30.5v-1h0.5t1 -0.5l0.5 -0.5q4 -2 6.5 -7t4 -10.5t2 -9.5t-0.5 -6v-0.5v-0.5v-0.5v-0.5v-63q0 -5 1.5 -9t3.5 -7.5t5.5 -6.5t7.5 -5l64 -33l4 -2t3.5 -1.5t3.5 -0.5h4h4
t3.5 0.5t3.5 1.5t3 1l66 33q4 2 7 5.5t5.5 7t3.5 7.5t1 9v63q0 11 3 19.5t7 13t7 7l3 2.5q1 0 2 0.5t1.5 1l1.5 1.5t2 1q16 14 28.5 30.5t21.5 35.5t13.5 39.5t4.5 41.5q0 40 -15 75t-41 61t-61 41t-75 15v0zM191 95v0v0.5v0.5v0h130v-0.5v-0.5v0v0v-9.5v-8v-7v-6.5h-130v31
v0zM256 -1l-65 33h130l-65 -33v0zM359 166l-3.5 -2t-8.5 -6.5t-10.5 -12t-9.5 -17.5h-141q-1 4 -3 8t-5 8t-6.5 7.5t-8.5 6.5q-15 11 -27.5 25t-21 30.5t-13.5 35.5t-5 39q0 33 12.5 62t34.5 51t51 34.5t62 12.5t62 -12.5t51 -34.5t34.5 -51t12.5 -62q0 -18 -4 -35.5
t-11.5 -33t-18 -29t-23.5 -24.5v0zM272 416q-3 0 -6 -1.5t-5 -3.5t-3.5 -5t-1.5 -6t1.5 -6t3.5 -5t5 -3.5t6 -1.5q13 0 27.5 -6t25.5 -16.5t19 -25.5t7 -34l2 -6t3.5 -5t5 -3.5t6.5 -1.5q2 0 5.5 1.5t5 3.5t3.5 5t1 6q1 28 -9.5 49t-25.5 35.5t-35.5 22t-40.5 7.5v0z" />
    <glyph glyph-name="uniE008" unicode="&#xe008;" 
d="M480 352h-448q-7 0 -12.5 -2.5t-10 -7t-7 -10t-2.5 -12.5v-96h32v-224q0 -7 2.5 -12.5t7 -10t10 -7t12.5 -2.5h384q7 0 12.5 2.5t10 7t7 10t2.5 12.5v224h32v96q0 7 -2.5 12.5t-7 10t-10 7t-12.5 2.5v0zM32 320h192v-64h-192v64v0zM64 0v224h160v-224h-160v0zM448 0h-159
v224h159v-224v0zM480 256h-191v64h191v-64v0zM256 384v0v0v0v0v0v0v0v0v0h14h33.5h41.5h39t29 4t19.5 10.5t11.5 15t4 18.5t-4 18.5t-11.5 15t-19.5 10.5t-29 4q-16 0 -29.5 -3t-25.5 -9t-22.5 -13t-18.5 -15q-4 2 -7.5 3.5t-8 3t-8.5 2t-9 0.5q-4 0 -8.5 -0.5t-8.5 -1.5
t-7.5 -3t-7.5 -4q-8 8 -18 15.5t-22 13t-26 8.5t-29 3q-17 0 -29 -4t-19.5 -10.5t-11.5 -15t-4 -18.5t4 -18.5t11.5 -15t19.5 -10.5t29 -4h39h41.5h33.5h14v0zM416 432q0 -5 -3 -8t-7.5 -5t-10.5 -2.5t-11 -0.5h-73v0.5v0.5v0v0q6 6 13.5 11.5t16.5 10t20 7t23 2.5
q5 0 11 -0.5t10.5 -2.5t7.5 -5t3 -8v0zM96 432q0 5 3 8t7.5 5t10.5 2.5t11 0.5q12 0 22.5 -2.5t19.5 -6.5t16.5 -9.5t13.5 -11.5v0l-0.5 -0.5t-0.5 -1v-0.5h-71q-5 0 -11 0.5t-10.5 2.5t-7.5 5t-3 8v0z" />
    <glyph glyph-name="uniE009" unicode="&#xe009;" 
d="M26 227l38 30v-225q0 -8 2.5 -13t7 -10t10 -7t12.5 -3l96 1q7 -1 12.5 2t10 7t7 10t2.5 12v129l64 -1v-127q0 -8 2.5 -13t7 -10t10 -7t12.5 -3l96 1q7 -1 12.5 2t10 7t7 10t2.5 12v227l38 -32q1 1 2.5 -0.5t2.5 -1.5t2.5 -0.5t2.5 0.5q2 -1 3.5 0t3 1t3 2t3.5 2
q2 4 2.5 6.5t0.5 6t-1.5 5.5l-4.5 6l-240 191q-2 2 -4.5 2.5t-5.5 1t-5.5 -1t-4.5 -1.5l-86 -70v41q0 6 -2.5 12t-7 10t-10 7t-12.5 2q-7 1 -12.5 -2t-10 -7t-7 -10t-2.5 -12v-92l-90 -71l-4.5 -6t-1.5 -5.5t0.5 -6t3.5 -6.5q2 -2 4.5 -4t5.5 -1.5t6 0.5t6 3v0zM256 411
l160 -127v-253l-96 1v159l-128 1v-161l-96 1v250l160 130v-1z" />
    <glyph glyph-name="uniE00A" unicode="&#xe00a;" 
d="M41 86q3 -4 7.5 -9t11.5 -8.5t16 -6.5t22 -2q8 -1 16.5 1t18.5 3.5t20.5 5t21.5 6.5q5 -20 12 -40t17 -34.5t22.5 -24t29.5 -8.5q17 -1 30 8.5t23 24.5t17 35.5t11 41.5q12 -3 22.5 -6.5t20 -5t18.5 -3t17 -0.5q13 -1 23 2t17 6.5t12 9t8 9.5q9 16 7 32.5t-11 34.5
t-24.5 35t-32.5 34q3 2 6 5.5t6 6t6 6t6 5.5q15 19 24.5 34t14 29.5t3 26.5t-8.5 23q-3 4 -7.5 9t-11.5 8.5t-16 6.5t-22 2v1q-8 -1 -16.5 -2t-18.5 -3.5t-20.5 -5t-21.5 -7.5q-5 22 -12 41t-17 34.5t-22.5 24t-29.5 9.5q-17 -1 -30 -9.5t-23 -24.5t-17 -35.5t-11 -42.5
q-12 5 -22.5 7.5t-20 5t-18.5 3t-17 1.5v-1q-13 1 -23 -2t-17 -6.5t-12 -9t-8 -9.5q-9 -16 -7 -32.5t11 -34.5t24.5 -35t32.5 -34q-3 -2 -6 -5.5t-6 -6t-6 -6t-6 -5.5q-15 -19 -24.5 -34t-14 -29.5t-3 -26.5t8.5 -23v0zM256 1q-8 -1 -15 5.5t-13.5 17.5t-12 28t-10.5 36
q7 4 13 6.5t12.5 6t13.5 6.5t13 7q7 -4 13 -6.5t12.5 -6t12.5 -5.5t12 -6q-4 -19 -9.5 -36.5t-12 -28.5t-14 -18t-15.5 -6v0zM192 224v9v9t0.5 8.5t0.5 8.5q3 2 6.5 5t7 5t7.5 4.5t7 4.5q5 4 9 6t8.5 5t8.5 5t8 5q4 -3 8.5 -5t8.5 -5t8.5 -5t8.5 -5q4 -2 8 -4.5t7.5 -4.5
t7.5 -5t7 -5q0 -5 0.5 -9t0.5 -9v-8.5v-9.5v-8v-9t-0.5 -8.5t-0.5 -7.5q-3 -4 -6.5 -6t-7 -5t-7.5 -4.5t-7 -5.5q-5 -2 -9 -5t-8.5 -5t-8.5 -5t-8 -4q-4 1 -8.5 4t-8.5 5t-8.5 5t-8.5 4q-4 4 -8 5.5t-7.5 4.5t-7.5 5t-7 6q0 3 -0.5 8t-0.5 9v8.5v8.5v0zM160 213q-2 0 -3.5 2
t-3.5 3t-3.5 2.5t-3.5 2.5q2 2 3.5 3t3.5 3t3.5 3t3.5 3v-4v-2.5v-2v-2.5v-1.5v-2.5v-3.5v-3.5v0zM196 299q0 4 0.5 7t1 7t1 6.5t0.5 6.5q3 -2 5.5 -2.5t5.5 -2.5t6 -2.5t5 -3.5q-2 0 -4 -2t-4 -2.5t-4.5 -2.5t-4.5 -2q-1 -2 -2 -2t-2 -1.5t-2 -1.5t-2 -2v0zM288 317
q4 1 7 3t6 3t6 2.5t6 2.5q0 -3 0.5 -7t1 -7t1 -7t0.5 -6q-1 0 -3 1.5t-3 1.5t-2 1t-2 1q-2 2 -4.5 3t-4.5 2.5t-4 2.5t-5 3v0zM352 236q2 0 3.5 -2t3.5 -3t3.5 -2.5t3.5 -2.5q-2 -2 -3.5 -3t-3.5 -3t-3.5 -3t-3.5 -3v4v2.5v2v2.5v1.5v2.5v3.5v3.5v0zM316 150q0 -4 -0.5 -7
t-1 -7t-1 -6.5t-0.5 -6.5q-3 2 -5.5 2.5t-5.5 2.5t-6 2.5t-5 3.5q2 0 4 2t4 2.5t4.5 2.5t4.5 2q1 2 2 2t2 1.5t2 1.5t2 2v0zM206 142q2 0 4.5 -2t4.5 -2.5t4 -2.5t5 -2q-4 -3 -7 -4t-6 -3t-6 -2.5t-6 -3.5q0 5 -0.5 8t-1 7t-1 7t-0.5 7q1 -2 3 -2.5t3 -1.5t2 -1t2 -2v0z
M447 108q-2 -4 -5 -5.5l-7 -3.5t-9 -2.5t-11 -1.5q-7 1 -15 1.5t-17 3t-19 5t-21 7.5q2 7 3 15.5t1.5 16t1.5 15.5t1 13q5 5 10.5 8.5t10.5 8t9.5 8t9.5 8.5q17 -16 29.5 -30t20 -27t10 -23t-2.5 -18v1zM414 358q6 -1 10.5 -1.5t8.5 -2.5l7 -3.5t4 -5.5q5 -6 3 -17t-9 -23
t-19.5 -27.5t-28.5 -29.5q-6 3 -11 7.5t-10 7.5t-9.5 7.5t-9.5 6.5q-1 8 -1.5 15t-1.5 15.5t-2 16.5t-2 17q10 3 20 6.5t19 5t17 3.5t15 1v1zM256 449q8 -1 15 -6.5t13.5 -17.5t12 -28t10.5 -37q-7 -2 -13 -5.5t-12.5 -6t-13.5 -6.5t-13 -6q-7 2 -13 5.5t-12.5 6t-12.5 5.5
t-12 5q4 21 9.5 37.5t12 28.5t14 18t15.5 7v0zM65 341q2 4 5 5.5l7 3.5t9 2.5t11 1.5q7 -1 15 -1.5t17 -3t19 -5t21 -7.5q-2 -7 -3 -15.5t-1.5 -16t-1.5 -15.5t-1 -13q-5 -5 -10.5 -8.5t-10.5 -8t-9.5 -8t-9.5 -8.5q-17 16 -29.5 30t-20 27t-10 23t2.5 18v-1zM162 171
q1 -6 1.5 -14t1.5 -15.5t2 -16.5t2 -16q-11 -5 -20.5 -7.5t-18.5 -5t-17 -3.5t-15 -2q-6 1 -10.5 1.5t-8.5 2.5l-7 3.5t-4 5.5q-5 6 -3 17t9 23t19.5 27.5t28.5 29.5q6 -3 11 -7.5t10 -7.5t9.5 -7t9.5 -7v-1z" />
    <glyph glyph-name="uniE00B" unicode="&#xe00b;" 
d="M384 -32q7 0 12.5 2.5t10 7t7 10t2.5 12.5v448q0 7 -2.5 12.5t-7 10t-10 7t-12.5 2.5h-224q-7 0 -12.5 -2.5t-10 -7t-7 -10t-2.5 -12.5v-448q0 -7 2.5 -12.5t7 -10t10 -7t12.5 -2.5h224v0zM256 18q0 4 1.5 7t4 5.5t5.5 4t7 1.5t7 -1.5t5.5 -4t4 -5.5t1.5 -7t-1.5 -7
t-4 -5.5t-5.5 -4t-7 -1.5t-7 1.5t-5.5 4t-4 5.5t-1.5 7v0zM336 448q3 0 6 -1.5t5 -3.5t3.5 -5t1.5 -6t-1.5 -6t-3.5 -5t-5 -3.5t-6 -1.5h-32q-3 0 -6 1.5t-5 3.5t-3.5 5t-1.5 6t1.5 6t3.5 5t5 3.5t6 1.5h32v0zM256 432q0 -3 -1.5 -6t-3.5 -5t-5 -3.5t-6 -1.5t-6 1.5t-5 3.5
t-3.5 5t-1.5 6t1.5 6t3.5 5t5 3.5t6 1.5t6 -1.5t5 -3.5t3.5 -5t1.5 -6v0zM160 384h224v-320h-224v320v0z" />
    <glyph glyph-name="uniE00C" unicode="&#xe00c;" 
d="M416 -32q7 0 12.5 2.5t10 7t7 10t2.5 12.5v448q0 7 -2.5 12.5t-7 10t-10 7t-12.5 2.5h-320q-7 0 -12.5 -2.5t-10 -7t-7 -10t-2.5 -12.5v-448q0 -7 2.5 -12.5t7 -10t10 -7t12.5 -2.5h320v0zM256 -18q-4 0 -7 1.5t-5.5 4t-4 5.5t-1.5 7t1.5 7t4 5.5t5.5 4t7 1.5t7 -1.5
t5.5 -4t4 -5.5t1.5 -7t-1.5 -7t-4 -5.5t-5.5 -4t-7 -1.5v0zM128 416h256v-384h-256v384v0z" />
    <glyph glyph-name="uniE00D" unicode="&#xe00d;" 
d="M495 96h-15v288q0 7 -2.5 12.5t-7 10t-10 7t-12.5 2.5h-384q-7 0 -12.5 -2.5t-10 -7t-7 -10t-2.5 -12.5v-288h-15q-4 0 -7 -1.5t-5 -3.5t-3.5 -5t-1.5 -6t1.5 -6t3.5 -5t5 -3.5t7 -1.5h478q4 0 7 1.5t5 3.5t3.5 5t1.5 6t-1.5 6t-3.5 5t-5 3.5t-7 1.5v0zM448 384v-255
h-384v255h384v0z" />
    <glyph glyph-name="uniE00E" unicode="&#xe00e;" 
d="M480 448h-448q-7 0 -12.5 -2.5t-10 -7t-7 -10t-2.5 -12.5v-288q0 -7 2.5 -12.5t7 -10t10 -7t12.5 -2.5h160q0 -9 -0.5 -18.5t-1.5 -18t-3 -16t-5 -11.5h-6q-4 0 -6.5 -1.5t-5 -3.5t-3.5 -5t-1 -6t1 -6t3.5 -5t5 -3.5t6.5 -1.5h160q3 0 6 1.5t5 3.5t3.5 5t0.5 6
q1 3 -0.5 6t-3.5 5t-5 3.5t-6 1.5h-7q-3 4 -5 11.5t-2.5 16t-1.5 18t0 18.5h159q8 0 13 2.5t10 7t7 10t3 12.5l-1 288q1 7 -2 12.5t-7 10t-10 7t-12 2.5v0zM223 96h1q-1 0 -0.5 0t0 0t0 0t-0.5 0h1h-1zM287 96h1h-1q1 0 0.5 0t0 0t0 0t0.5 0h-1zM479 160h-447l-1 256h449
l-1 -256v0z" />
    <glyph glyph-name="uniE00F" unicode="&#xe00f;" 
d="M480 352h-64l-3 0.5t-8 3.5t-10.5 9.5t-10.5 18.5q-3 6 -5.5 12t-6.5 10.5t-8.5 7t-11.5 2.5h-128q-7 0 -11.5 -2.5t-8.5 -7t-7 -10.5t-5 -12q-5 -12 -10.5 -18.5t-10.5 -9.5t-8 -3.5l-3 -0.5h-32q0 7 -2.5 12.5t-7 10t-10 7t-12.5 2.5h-32q-7 0 -12.5 -2.5t-10 -7
t-7 -10t-2.5 -12.5q-7 0 -12.5 -2.5t-10 -7t-7 -10t-2.5 -12.5v-256q0 -7 2.5 -12.5t7 -10t10 -7t12.5 -2.5h448q7 0 12.5 2.5t10 7t7 10t2.5 12.5v256q0 7 -2.5 12.5t-7 10t-10 7t-12.5 2.5v0zM480 64h-448v128h146q3 -20 12.5 -37.5t24 -30.5t33.5 -20.5t40 -7.5
q22 0 41 7.5t34 21t24.5 32t11.5 39.5h81v-132v0zM208 208q0 17 6.5 31.5t17 25t25 17t31.5 6.5t31.5 -6.5t25 -17t17 -25t6.5 -31.5t-6.5 -31.5t-17 -25t-25 -17t-31.5 -6.5t-31.5 6.5t-25 17t-17 25t-6.5 31.5v0zM398 224q-3 20 -12.5 37.5t-24 30.5t-33.5 20.5t-40 7.5
t-40 -7.5t-33.5 -20.5t-24 -30.5t-12.5 -37.5h-146v96h128q7 0 15.5 2.5t16.5 9t16 16.5t14 24q1 2 1.5 4t1.5 3.5t1.5 2.5t0.5 2h122q0 -1 1 -3t2 -3.5t1.5 -3.5t1.5 -2q7 -19 17 -29.5t19 -15.5t16 -6t9 -1h64v-96h-82v0zM64 272q0 -4 1.5 -6.5t3.5 -5t5 -3.5t6 -1t6 1
t5 3.5t3.5 5t1.5 6.5q0 3 -1.5 6t-3.5 5t-5 3.5t-6 1.5t-6 -1.5t-5 -3.5t-3.5 -5t-1.5 -6v0z" />
    <glyph glyph-name="uniE010" unicode="&#xe010;" 
d="M480 416h-448q-7 0 -12.5 -2.5t-10 -7t-7 -10t-2.5 -12.5v-320q0 -7 2.5 -12.5t7 -10t10 -7t12.5 -2.5h448q7 0 12.5 2.5t10 7t7 10t2.5 12.5v320q0 7 -2.5 12.5t-7 10t-10 7t-12.5 2.5v0zM182 191l74 -50l74 50l127 -127h-402l127 127v0zM32 87v206l123 -84l-123 -122v0
zM357 210l123 85v-208l-123 123v0zM480 384v-52l-1 1l-223 -154l-224 153v52h448v0z" />
    <glyph glyph-name="uniE011" unicode="&#xe011;" 
d="M399 160l-12 32h-262l-12 -32l-49 -128h384l-49 128v0zM147 160h218l37 -96h-292l37 96v0zM329 256h34l-12 32l-65 172q-2 4 -5 8t-7 6.5t-8.5 4t-9.5 1.5t-9.5 -1.5t-8.5 -4t-7 -6.5t-5 -8l-77 -204h180v0zM256 448l61 -160h-122l61 160v0zM496 0h-480q-3 0 -6 -1
t-5 -3.5t-3.5 -5t-1.5 -6.5q0 -3 1.5 -6t3.5 -5t5 -3.5t6 -1.5h480q3 0 6 1.5t5 3.5t3.5 5t1.5 6q0 4 -1.5 6.5t-3.5 5t-5 3.5t-6 1v0z" />
    <glyph glyph-name="uniE012" unicode="&#xe012;" 
d="M84 -30q1 -1 2.5 -1t3 -1t3 -0.5t3.5 -0.5q3 1 6 1t6 2t5.5 3t5.5 4l137 137l137 -137q3 -3 5.5 -4t5.5 -3t6 -2t6 -1q2 1 3.5 0.5t3 0.5t3 1t2.5 1q5 1 8.5 4.5t6 7t4 8.5t1.5 9v449q0 6 -2.5 12t-7 10t-10 7t-12.5 2l-320 1q-7 -1 -12.5 -3t-10 -7t-7 -10t-2.5 -13
v-447q0 -6 1.5 -10t4 -8.5t6 -7t8.5 -5.5v1zM256 160l-160 -161v353l320 -1v-351l-160 159v1zM416 448v-65l-320 1v63l320 1v0z" />
    <glyph glyph-name="uniE013" unicode="&#xe013;" 
d="M96 -32h320q7 0 12.5 2.5t10 7t7 10t2.5 12.5v352q0 7 -2.5 12.5t-7 10t-10 7t-12.5 2.5h-64q0 20 -8 37.5t-21 30.5t-30 20.5t-37 7.5t-37 -7.5t-30 -20.5t-21 -30.5t-8 -37.5h-64q-7 0 -12.5 -2.5t-10 -7t-7 -10t-2.5 -12.5v-352q0 -7 2.5 -12.5t7 -10t10 -7t12.5 -2.5
v0zM416 352v-352h-320v352h320v0zM256 448q13 0 24.5 -5t20 -13.5t14 -20.5t5.5 -25h-128q0 13 5.5 25t14 20.5t20 13.5t24.5 5v0zM208 288h96q3 0 6 1.5t5 3.5t3.5 5t1.5 6t-1.5 6t-3.5 5t-5 3.5t-6 1.5h-96q-3 0 -6 -1.5t-5 -3.5t-3.5 -5t-1.5 -6t1.5 -6t3.5 -5t5 -3.5
t6 -1.5v0z" />
    <glyph glyph-name="uniE014" unicode="&#xe014;" 
d="M480 416h-448q-7 0 -12.5 -2.5t-10 -7t-7 -10t-2.5 -12.5v-320q0 -7 2.5 -12.5t7 -10t10 -7t12.5 -2.5h448q7 0 12.5 2.5t10 7t7 10t2.5 12.5v320q0 7 -2.5 12.5t-7 10t-10 7t-12.5 2.5v0zM480 64h-448v192h448v-192v0zM32 319v65h448v-65h-448v0zM80 96h160q3 0 6 1.5
t5 3.5t3.5 5t1.5 6t-1.5 6t-3.5 5t-5 3.5t-6 1.5h-160q-3 0 -6 -1.5t-5 -3.5t-3.5 -5t-1.5 -6t1.5 -6t3.5 -5t5 -3.5t6 -1.5v0zM288 112q0 -3 1.5 -6t3.5 -5t5 -3.5t6 -1.5t6 1.5t5 3.5t3.5 5t1.5 6t-1.5 6t-3.5 5t-5 3.5t-6 1.5t-6 -1.5t-5 -3.5t-3.5 -5t-1.5 -6v0z
M352 112q0 -3 1.5 -6t3.5 -5t5 -3.5t6 -1.5t6 1.5t5 3.5t3.5 5t1.5 6t-1.5 6t-3.5 5t-5 3.5t-6 1.5t-6 -1.5t-5 -3.5t-3.5 -5t-1.5 -6v0zM416 112q0 -3 1.5 -6t3.5 -5t5 -3.5t6 -1.5t6 1.5t5 3.5t3.5 5t1.5 6t-1.5 6t-3.5 5t-5 3.5t-6 1.5t-6 -1.5t-5 -3.5t-3.5 -5t-1.5 -6
v0z" />
    <glyph glyph-name="uniE015" unicode="&#xe015;" 
d="M96 32q0 -7 2.5 -12.5t7 -10t10 -7t12.5 -2.5t12.5 2.5t10 7t7 10t2.5 12.5t-2.5 12.5t-7 10t-10 7t-12.5 2.5t-12.5 -2.5t-10 -7t-7 -10t-2.5 -12.5v0zM384 32q0 -7 2.5 -12.5t7 -10t10 -7t12.5 -2.5t12.5 2.5t10 7t7 10t2.5 12.5t-2.5 12.5t-7 10t-10 7t-12.5 2.5
t-12.5 -2.5t-10 -7t-7 -10t-2.5 -12.5v0zM-1 432q0 -3 1.5 -6t3.5 -5t5 -3.5t6 -1.5h33l20 -85l28 -139v-0.5v-1t0.5 -1l0.5 -0.5l-17 -74v-3t0.5 -3.5t1 -3.5t2.5 -3q1 -1 2 -2.5t3 -2t3.5 -1t3.5 -0.5h363q3 0 6 1.5t5 3.5t3.5 5t1.5 6t-1.5 6t-3.5 5t-5 3.5t-6 1.5h-343
l7 33h1.5t1 -0.5t1 -0.5h1.5h292q6 0 11.5 1t10 3.5t8 7t7.5 12.5l51 159q4 11 2.5 18.5t-6 12.5t-11 7.5t-13.5 2.5h-384h-2t-1.5 -0.5t-1.5 -0.5h-2l-12 53q-1 2 -2.5 4.5t-3.5 4t-4.5 2.5t-5.5 1h-46q-3 0 -6 -1.5t-5 -3.5t-3.5 -5t-1.5 -6v0zM97 352h381l-51 -157
q-1 0 -1 -0.5v-1t-0.5 -1l-0.5 -0.5h-0.5h-1.5h-1.5h-1.5h-292v3l-1 3l-30 154v0z" />
    <glyph glyph-name="uniE016" unicode="&#xe016;" 
d="M225 368q-13 13 -26.5 20t-28 8t-27.5 -4t-25 -17q-10 -11 -15.5 -24t-4 -27t8 -28t19.5 -27l182 -183q4 -2 6.5 -3t6 -1t6 1t5.5 3q1 3 3 5.5t1.5 6t-1.5 6t-4 5.5l-182 183q-7 6 -11.5 13.5t-6.5 15.5t0.5 16t9.5 16q8 7 15.5 9t16 0.5t15.5 -6t15 -10.5l202 -204
q23 -22 36 -38.5t18.5 -30.5t1 -26t-16.5 -25q-14 -13 -27.5 -18t-29.5 -1.5t-33 15.5t-39 34l-226 226q-14 14 -24.5 31.5t-14.5 36.5t1.5 38.5t22.5 37.5q23 21 44.5 24t41 -4t34 -19t22.5 -19l207 -207q3 -3 5.5 -4t6 -1t6 1t6.5 4l2.5 5t1 6l-1 6t-3.5 5l-207 208
q-25 24 -49 37t-49 15t-47 -6.5t-42 -27.5q-19 -20 -28.5 -43.5t-7 -48.5t14.5 -50t36 -48l225 -226q8 -7 18.5 -17.5t25 -20t30.5 -16t35 -6.5q7 0 15.5 1.5t16.5 5t17 9.5t16 14q25 24 27.5 47t-6 44t-26 40t-32.5 35l-205 203h1z" />
    <glyph glyph-name="uniE017" unicode="&#xe017;" 
d="M497 480v0h-0.5h-0.5v0v0v0h-0.5h-0.5h-201q-2 0 -4.5 -1.5t-5.5 -3t-5 -3l-2 -1.5l-236 -236q-4 -4 -6.5 -10t-2.5 -12.5t2.5 -12t6.5 -10.5l181 -181q2 -2 5 -4t5.5 -3t6 -1.5t6.5 -0.5t6 0.5t6 1.5t5.5 3t4.5 4l236 236l1.5 2t3 4.5t3 5.5t1.5 5v202q0 3 -1 6t-3 5
t-5 3.5t-6 1.5v0zM480 268l-0.5 -0.5l-0.5 -0.5v-0.5v-0.5l-234 -234l-181 181l234 234h0.5h0.5l0.5 0.5l0.5 0.5h180v-180v0zM416 400q0 -3 1.5 -6t3.5 -5t5 -3.5t6 -1.5t6 1.5t5 3.5t3.5 5t1.5 6t-1.5 6t-3.5 5t-5 3.5t-6 1.5t-6 -1.5t-5 -3.5t-3.5 -5t-1.5 -6v0z" />
    <glyph glyph-name="uniE018" unicode="&#xe018;" 
d="M465 480v0v0v0v0v0v0h-0.5h-0.5v0v0v0v0v0v0v0v0v0v0v0v0h-170q-1 0 -4 -1.5t-5.5 -3t-4.5 -3t-3 -1.5l-204 -204q-4 -5 -6.5 -10.5t-2.5 -12t2.5 -12t6.5 -10.5l26 -26l-26 -25q-4 -5 -6.5 -10.5t-2.5 -12t2.5 -12t6.5 -10.5l149 -149q2 -2 5 -4t5.5 -3t6 -1.5t6.5 -0.5
t6 0.5t6 1.5t5.5 3t4.5 4l204 204l1.5 2t3.5 4.5t3 5.5t1 5v266q0 3 -1 6t-3 5.5t-4.5 3.5t-6.5 1v0zM448 204v0v-0.5v-0.5v0v0v0v0v0l-203 -203l-149 148l25 26l101 -101q2 -2 5 -4t5.5 -3t6 -1.5t6.5 -0.5t6 0.5t6 1.5t5.5 3t4.5 4l181 181v-50v0zM448 352v-52v0v-0.5
v-0.5v0v0v0v0v0v0l-203 -203l-149 148l202 203h0.5h0.5l0.5 0.5t-0.5 0.5h149l-1 -96h1zM384 400q-1 -3 1 -6t3.5 -5t5 -3.5t5.5 -1.5q5 0 7 1.5t5 3.5t3.5 5t1.5 6q-1 3 -1.5 6t-3.5 5.5t-5 3.5t-7 1q-2 0 -5.5 -1t-5 -3.5t-3.5 -5.5t-1 -6v0z" />
    <glyph glyph-name="uniE019" unicode="&#xe019;" 
d="M416 448h-64q0 7 -2.5 12.5t-7 10t-10 7t-12.5 2.5h-96q-7 0 -12.5 -2.5t-10 -7t-7 -10t-2.5 -12.5h-64q-7 0 -12.5 -2.5t-10 -7t-7 -10t-2.5 -12.5h352q0 7 -2.5 12.5t-7 10t-10 7t-12.5 2.5v0zM96 0q0 -7 2.5 -12.5t7 -10t10 -7t12.5 -2.5h288q7 0 12.5 2.5t10 7t7 10
t2.5 12.5v384h-352v-384v0zM128 352h288v-352h-288v352v0zM176 320q-3 0 -6 -1.5t-5 -3.5t-3.5 -5t-1.5 -6v-256q0 -3 1.5 -6t3.5 -5t5 -3.5t6 -1.5t6 1.5t5 3.5t3.5 5t1.5 6v256q0 3 -1.5 6t-3.5 5t-5 3.5t-6 1.5v0zM272 320q-3 0 -6 -1.5t-5 -3.5t-3.5 -5t-1.5 -6v-256
q0 -3 1.5 -6t3.5 -5t5 -3.5t6 -1.5t6 1.5t5 3.5t3.5 5t1.5 6v256q0 3 -1.5 6t-3.5 5t-5 3.5t-6 1.5v0zM368 320q-3 0 -6 -1.5t-5 -3.5t-3.5 -5t-1.5 -6v-256q0 -3 1.5 -6t3.5 -5t5 -3.5t6 -1.5t6 1.5t5 3.5t3.5 5t1.5 6v256q0 3 -1.5 6t-3.5 5t-5 3.5t-6 1.5v0z" />
    <glyph glyph-name="uniE01A" unicode="&#xe01a;" 
d="M157 474q-2 2 -4 3.5t-4.5 2t-4.5 0.5t-5 -1q-2 -1 -4.5 -2.5t-3 -3.5t-2 -4t-0.5 -5l-1 -418q1 -2 1.5 -4.5t2 -4.5t3.5 -3.5t5 -2.5h1h1l1 -0.5l1 -0.5q3 0 4 0.5t3.5 1.5t3.5 2l3 3l70 96l51 -142q1 -6 6.5 -11.5t11 -8t13 -3t12.5 1.5q8 2 12.5 7t8 11t3.5 13t-1 13
l-50 140l113 -22h5t4.5 1t4 2.5t2.5 4.5q2 2 2 4.5t0.5 4.5t-1 4.5t-2.5 4.5l-267 316h1zM247 196h-5t-4.5 -1t-3.5 -2.5t-4 -2.5l-69 -95l-1 325l210 -248l-124 24h1z" />
    <glyph glyph-name="uniE01B" unicode="&#xe01b;" 
d="M224 67v-67h-48q-3 0 -6 -1.5t-5 -3.5t-3.5 -5t-1.5 -6t1.5 -6t3.5 -5t5 -3.5t6 -1.5h160q3 0 6 1.5t5 3.5t3.5 5t1.5 6t-1.5 6t-3.5 5t-5 3.5t-6 1.5h-48v67q25 5 48 17.5t41 32.5t28.5 46.5t10.5 60.5v48q0 3 -1.5 6t-3.5 5t-5 3.5t-6 1.5t-6 -1.5t-5 -3.5t-3.5 -5
t-1.5 -6v-48q0 -32 -11 -55.5t-29 -40t-41 -24.5t-47 -8q-23 0 -46 7.5t-41 23.5t-29.5 40t-11.5 57v48q0 3 -1.5 6t-3.5 5t-5 3.5t-6 1.5t-6 -1.5t-5 -3.5t-3.5 -5t-1.5 -6v-48q0 -34 10.5 -61t28 -46.5t41 -32t48.5 -17.5v0zM256 128q20 0 37.5 7.5t30.5 20.5t20.5 30.5
t7.5 37.5v160q0 20 -7.5 37.5t-20.5 30.5t-30.5 20.5t-37.5 7.5t-37.5 -7.5t-30.5 -20.5t-20.5 -30.5t-7.5 -37.5v-160q0 -20 7.5 -37.5t20.5 -30.5t30.5 -20.5t37.5 -7.5v0zM192 384q0 13 5 25t13.5 20.5t20.5 13.5t25 5t25 -5t20.5 -13.5t13.5 -20.5t5 -25v-160
q0 -13 -5 -25t-13.5 -20.5t-20.5 -13.5t-25 -5t-25 5t-20.5 13.5t-13.5 20.5t-5 25v160v0z" />
    <glyph glyph-name="uniE01C" unicode="&#xe01c;" 
d="M256 480q-53 0 -99.5 -20t-81.5 -55t-55 -81.5t-20 -99.5t20 -99.5t55 -81.5t81.5 -55t99.5 -20t99.5 20t81.5 55t55 81.5t20 99.5t-20 99.5t-55 81.5t-81.5 55t-99.5 20v0zM256 0q-46 0 -87 17.5t-71.5 48t-48 71.5t-17.5 87t17.5 87t48 71.5t71.5 48t87 17.5t87 -17.5
t71.5 -48t48 -71.5t17.5 -87t-17.5 -87t-48 -71.5t-71.5 -48t-87 -17.5v0zM360 350l-100 -62q12 -1 22.5 -6t18.5 -13t13 -18.5t6 -22.5l62 100q1 2 1.5 4.5t0.5 5t-1.5 5t-3.5 4.5t-4.5 3.5t-5 1.5t-5 -0.5t-4.5 -1.5v0zM192 220l-62 -100q-1 -2 -1.5 -4.5t-0.5 -5t1.5 -5
t3.5 -4.5q1 -1 2.5 -2t2.5 -1.5t2.5 -1t3.5 -0.5h2t2 0.5t2.5 1l1.5 0.5l100 62q-12 1 -22.5 6t-18.5 13t-13 18.5t-6 22.5v0zM260 288h-0.5h-1h-1h-1.5q-13 0 -25 -5t-20.5 -13.5t-13.5 -20.5t-5 -25v-1.5v-1v-1v-0.5q1 -12 6 -22.5t13 -18.5t18.5 -13t22.5 -6h0.5h1h1h1.5
q13 0 25 5t20.5 13.5t13.5 20.5t5 25v1.5v1v1v0.5q-1 12 -6 22.5t-13 18.5t-18.5 13t-22.5 6v0zM224 224q0 7 2.5 12.5t7 10t10 7t12.5 2.5t12.5 -2.5t10 -7t7 -10t2.5 -12.5t-2.5 -12.5t-7 -10t-10 -7t-12.5 -2.5t-12.5 2.5t-10 7t-7 10t-2.5 12.5v0z" />
    <glyph glyph-name="uniE01D" unicode="&#xe01d;" 
d="M259 217q17 0 32.5 6.5t26.5 18t18 26.5t6 33q1 17 -6 32t-18 26.5t-26.5 18t-32.5 6.5q-18 0 -32.5 -6.5t-26.5 -18t-18 -26.5t-7 -32q1 -18 7 -33t18 -26.5t26.5 -18t32.5 -6.5v0zM258 352q12 0 21 -4t16.5 -11t11 -16.5t4.5 -19.5q-1 -11 -4.5 -20.5t-11 -16.5
t-16.5 -11t-21 -4q-9 0 -19 4t-16.5 11t-11 16.5t-3.5 20.5q-1 10 3.5 19.5t11 16.5t16.5 11t19 4v0zM248 -23q0 -1 1.5 -2t2 -2t2 -1.5t1.5 -1.5q1 0 0.5 0t0 0t0 0t0.5 0q-1 0 0.5 -0.5l1.5 -0.5h1h1h1.5h1.5t1 0.5t2 0.5q-1 0 -0.5 0t0 0t0 0t-0.5 0q2 1 2.5 1.5t2 1.5
t2 2t2.5 2q-1 0 23 27.5t52.5 71t55.5 97t31 106.5q2 2 1.5 5t0.5 5.5t0.5 5.5t0.5 6q-1 37 -14.5 69.5t-38.5 57t-57 38.5t-71 14q-36 0 -69 -14t-57 -38.5t-38.5 -57t-13.5 -69.5q-1 -3 -0.5 -6t0.5 -5.5t0.5 -5.5t0.5 -6q6 -52 32.5 -106t56.5 -97t53.5 -70.5t24.5 -27.5
v0zM258 448q32 0 58.5 -11.5t47 -31.5t31.5 -47t12 -57q-1 -2 -0.5 -4.5t-0.5 -4.5t-0.5 -4.5t-1.5 -5.5q-3 -40 -22 -82t-41.5 -79.5t-45.5 -66.5t-34 -44q-14 15 -36.5 44t-46 66t-42 79.5t-24.5 82.5q1 3 0 5.5t-0.5 4.5t0 4.5t0.5 4.5q-1 30 11 57t31.5 47t47 31.5
t56.5 11.5v0z" />
    <glyph glyph-name="uniE01E" unicode="&#xe01e;" 
d="M139 196q-3 -3 -4.5 -6.5t-2.5 -7t-1 -7.5t1 -8q1 -3 2.5 -6.5t4 -6.5t5.5 -5.5t7 -3.5q8 -4 19.5 -6.5t25 -5t29 -3.5t31.5 -2v0v0v0v0v-96q0 -7 1.5 -17.5t3.5 -21t5 -18t6 -7.5t6 7.5t5 18t3.5 21t1.5 17.5v96v0v0v0v0q16 1 31.5 2t29 3.5t25 5t19.5 6.5q4 1 7 3.5
t5.5 5.5t4 6.5t2.5 6.5q1 4 1 8t-1 7.5t-2.5 7t-4.5 6.5q-5 5 -11.5 9.5t-13.5 8t-14.5 5.5t-13.5 4v166q6 2 12 4.5t11 5t10 5.5t9 6t6.5 6t4 7t2 8.5t0.5 9.5q-1 4 -3 8t-4.5 7.5t-6 6t-8.5 3.5q-6 2 -15.5 4.5t-23.5 4.5t-32.5 3.5t-41.5 1.5q-25 0 -44 -1.5t-33 -4
t-23.5 -5t-14.5 -3.5q-4 -2 -7.5 -4.5t-6 -5.5t-4.5 -7t-3 -9q0 -4 0.5 -8.5t2 -8.5t4 -7.5t6.5 -5.5q4 -4 9 -6.5t10 -5.5t11 -5.5t13 -4.5v0v-165q-6 -2 -13.5 -4t-14.5 -5.5t-13.5 -8t-11.5 -9.5v0zM202 419q-6 2 -11.5 4t-9.5 4t-7.5 4t-5.5 4q6 3 16 5t23 4t29 3t36 1
q19 0 35.5 -1t29 -3t22.5 -4t16 -4q-2 -2 -5.5 -4t-7.5 -4.5t-9 -4.5t-11 -4l-22 -7v-214l24 -6q7 -2 12.5 -4t10.5 -4t8.5 -4.5t5.5 -5.5q-6 -2 -15.5 -4.5t-23 -4.5t-31 -3.5t-39.5 -1.5t-39.5 1.5t-31 3.5t-23 4.5t-15.5 4.5q2 3 5.5 5.5t8.5 4.5t10.5 4t12.5 4l24 6v213
l-22 8v0z" />
    <glyph glyph-name="uniE01F" unicode="&#xe01f;" 
d="M487 415l-144 64q-1 0 -2 0.5t-1.5 0.5h-1.5h-2h-1.5h-1.5h-1.5t-1.5 -1l-154 -62l-137 62q-1 0 -2 0.5t-1.5 0.5h-1.5h-2q-3 0 -5.5 -0.5t-5 -1.5l-5 -2t-4.5 -3q-3 -2 -5 -5t-3.5 -6t-2.5 -6.5t-1 -7.5v-384q0 -6 2 -11t5 -9t8 -7t10 -4l143 -64q1 0 2 -0.5t2 -0.5h1.5
h1.5h2h1.5h1.5t2 1l154 62l137 -62q1 0 2 -0.5t1.5 -0.5h1.5h2q3 0 5.5 0.5t5 1.5l5 2t4.5 3q3 2 5 5t3.5 6t2.5 6.5t1 7.5v384q0 6 -2 11t-5 9t-8 7t-10 4v0zM192 391l128 51v-384l-128 -51v384v0zM32 448l128 -57v-384l-128 57v384v0zM480 0l-128 57v384l128 -57v-384v0z
" />
    <glyph glyph-name="uniE020" unicode="&#xe020;" 
d="M405 448h-301q-7 0 -13 -2t-11 -6.5t-9 -10t-7 -13.5l-64 -223v-177q0 -3 1.5 -6t3.5 -5t5 -3.5t6 -1.5h480q3 0 6 1.5t5 3.5t3.5 5t1.5 6v175l-64 225q-3 7 -8 13t-10.5 10t-11.5 6.5t-13 1.5v1zM94 405q1 1 2 3t2 3.5t2.5 3t3.5 0.5l301 1q2 -1 3.5 -1.5t3 -2.5
t3.5 -3.5t3 -4.5l60 -212l-142 -1q-3 1 -6 -1t-5 -3.5t-3.5 -5t-1.5 -5.5v-49l-128 1v47q0 4 -1.5 6.5t-3.5 5t-5 3.5l-6 2l-143 -1l61 214v0zM480 31l-448 1v127l128 1v-49q0 -2 1.5 -5.5t3.5 -5t5 -3.5t6 -1l160 -1l6 2t5 3.5t3.5 5t1.5 6.5v47l128 1v-129v0z" />
    <glyph glyph-name="uniE021" unicode="&#xe021;" 
d="M480 384h-128q0 -7 -2.5 -12.5t-7 -10t-10 -7t-12.5 -2.5h160v-64h-160q7 0 12.5 -2.5t10 -7t7 -10t2.5 -12.5h128v-192h-448v192h128q0 7 2.5 12.5t7 10t10 7t12.5 2.5h-160v64h160q-7 0 -12.5 2.5t-10 7t-7 10t-2.5 12.5h-128q-7 0 -12.5 -2.5t-10 -7t-7 -10
t-2.5 -12.5v-288q0 -7 2.5 -12.5t7 -10t10 -7t12.5 -2.5h448q7 0 12.5 2.5t10 7t7 10t2.5 12.5v288q0 7 -2.5 12.5t-7 10t-10 7t-12.5 2.5v0zM192 352h128q7 0 12.5 2.5t10 7t7 10t2.5 12.5v32q0 7 -2.5 12.5t-7 10t-10 7t-12.5 2.5h-128q-7 0 -12.5 -2.5t-10 -7t-7 -10
t-2.5 -12.5v-32q0 -7 2.5 -12.5t7 -10t10 -7t12.5 -2.5v0zM192 416h128v-32h-128v32v0zM160 256v-32q0 -7 2.5 -12.5t7 -10t10 -7t12.5 -2.5h128q7 0 12.5 2.5t10 7t7 10t2.5 12.5v32q0 7 -2.5 12.5t-7 10t-10 7t-12.5 2.5h-128q-7 0 -12.5 -2.5t-10 -7t-7 -10t-2.5 -12.5v0
zM320 224h-128v32h128v-32v0z" />
    <glyph glyph-name="uniE022" unicode="&#xe022;" 
d="M465 480h-352q-17 0 -31.5 -6t-25.5 -17t-17.5 -25.5t-6.5 -30.5v0v-352q0 -17 6.5 -31.5t17.5 -25.5t25.5 -17.5t31.5 -6.5h272q6 0 12 2.5t10 7t6.5 10t2.5 12.5v336q0 3 -1 6t-3 5t-5 3.5t-6 1.5h-288q-10 0 -19 3.5t-15.5 10t-10.5 15t-4 18.5t4 19t10.5 15.5
t15.5 10.5t19 4h335v-368q0 -3 1.5 -6t3.5 -5t5 -3.5t7 -1.5q3 0 6 1.5t5 3.5t3 5t1 6v384q0 3 -1 6t-3 5t-5 3.5t-6 1.5v0zM113 320h271l1 -320h-272q-10 0 -19 4t-15.5 10.5t-10.5 15.5t-4 19v287q5 -4 10.5 -7t12 -5t13 -3t13.5 -1v0z" />
    <glyph glyph-name="uniE023" unicode="&#xe023;" 
d="M510 390q-2 5 -4.5 9t-7 7t-9 5t-10.5 2h-31l-1 -50q1 -10 -3.5 -18.5t-10.5 -15t-15 -10.5t-18 -4q-11 0 -19 4t-15 10.5t-10.5 15t-4.5 18.5l1 50h-193l1 -50q-1 -10 -4.5 -18.5t-10.5 -15t-15 -10.5t-19 -4q-9 0 -18.5 4t-15.5 10.5t-10 15t-3 18.5l-1 50h-31
q-6 0 -10.5 -2t-9 -5t-7 -7t-4.5 -9h-1l-1 -390q1 -7 3 -12.5t7 -10t10 -7t13 -2.5h447q8 0 13 2.5t10 7t7 10t3 12.5l-1 390h-1v0zM479 0h-447l-1 256h449l-1 -256v0zM112 347q2 0 5.5 1.5t5 3.5t3.5 5t1 6l1 101l-2 6t-3.5 5t-5 3.5t-6.5 1.5q-2 0 -5.5 -1.5t-5.5 -3.5
t-3.5 -5t-0.5 -6l-1 -101q1 -3 1.5 -6t3.5 -5t5.5 -3.5t6.5 -1.5v0zM399 347q4 0 6.5 1.5t5 3.5t3.5 5l2 6l-1 101q1 3 -1 6t-3.5 5t-5 3.5t-5.5 1.5q-4 0 -6.5 -1.5t-5 -3.5t-3.5 -5l-2 -6l1 -101q-1 -3 1 -6t3.5 -5t5 -3.5t5.5 -1.5v0z" />
    <glyph glyph-name="uniE024" unicode="&#xe024;" 
d="M480 480h-448q-7 0 -12.5 -2.5t-10 -7t-7 -10t-2.5 -12.5v-448q0 -7 2.5 -12.5t7 -10t10 -7t12.5 -2.5h448q7 0 12.5 2.5t10 7t7 10t2.5 12.5v448q0 7 -2.5 12.5t-7 10t-10 7t-12.5 2.5v0zM96 192v-64h-64v64h64v0zM32 256v64h64v-64h-64v0zM128 160h256v-160h-256v160v0
zM384 192h-256v256h256v-256v0zM416 192h64v-64h-64v64v0zM416 256v64h64v-64h-64v0zM416 384v64h64v-64h-64v0zM96 384h-64v64h64v-64v0zM32 64h64v-64h-64v64v0zM416 64h64v-64h-64v64v0z" />
    <glyph glyph-name="uniE025" unicode="&#xe025;" 
d="M511 418q-1 6 -3 11.5t-7 9.5t-10 6.5t-12 2.5h-447q-7 0 -12 -2.5t-10 -6.5t-7 -9.5t-3 -11.5v0l-1 -418q1 -7 3 -12.5t7 -10t10 -7t13 -2.5h447q8 0 13 2.5t10 7t7 10t3 12.5l-1 418v0v0zM191 256l1 96h127l1 -96h-129v0zM320 224l-1 -99h-127l-1 99h129v0zM159 352
l1 -96h-129l1 96h127v0zM32 224h127l1 -99h-129l1 99v0zM31 0l1 96h127l1 -96h-129v0zM192 0l-1 96h129l-1 -96h-127v0zM479 0h-127l-1 96h129l-1 -96v0zM480 125h-129l1 99h127l1 -99v0zM479 256h-127l-1 96h129l-1 -96v0z" />
    <glyph glyph-name="uniE026" unicode="&#xe026;" 
d="M416 480h-384q-7 0 -12.5 -2.5t-10 -7t-7 -10t-2.5 -12.5v-448q0 -7 2.5 -12.5t7 -10t10 -7t12.5 -2.5h384q7 0 12.5 2.5t10 7t7 10t2.5 12.5v448q0 7 -2.5 12.5t-7 10t-10 7t-12.5 2.5v0zM32 448h64v-448h-64v448v0zM416 0h-288v448h288v-448v0zM222 308v0v0v0v0
q0 -10 3.5 -18.5t10.5 -15.5t15.5 -10.5t18.5 -3.5t19 3.5t15.5 10.5t10.5 15.5t4 18.5v0v0v0v0v0v0v0v0q0 10 -4 19t-10.5 15.5t-15.5 10.5t-19 4t-18.5 -4t-15.5 -10.5t-10.5 -15.5t-3.5 -19v0v0v0v0v0zM271 240q-16 0 -30.5 -8t-25.5 -22.5t-17 -34t-6 -41.5t25 -33
t54.5 -11t54 11t24.5 33t-6 41.5t-16.5 34t-25 22.5t-31.5 8v0zM480 448h32v-96h-32v96zM480 320h32v-96h-32v96zM480 192h32v-96h-32v96z" />
    <glyph glyph-name="uniE027" unicode="&#xe027;" 
d="M480 160v64q0 55 -19.5 97t-51 70t-71.5 42.5t-82 14.5q-41 0 -81 -14.5t-72 -43t-51.5 -70t-19.5 -96.5v-64q-7 0 -12.5 -2.5t-10 -7t-7 -10t-2.5 -12.5v-64q0 -7 2.5 -12.5t7 -10t10 -7t12.5 -2.5q0 -7 2.5 -12.5t7 -10t10 -7t12.5 -2.5t12.5 2.5t10 7t7 10t2.5 12.5
v128q0 7 -2.5 12.5t-7 10t-10 7t-12.5 2.5v32q0 47 16.5 83t43.5 60t61.5 36.5t70.5 12.5q35 0 69 -11.5t61.5 -35t44.5 -60t17 -85.5v-32q-7 0 -12.5 -2.5t-10 -7t-7 -10t-2.5 -12.5v-128q0 -7 2.5 -12.5t7 -10t10 -7t12.5 -2.5t12.5 2.5t10 7t7 10t2.5 12.5q7 0 12.5 2.5
t10 7t7 10t2.5 12.5v64q0 7 -2.5 12.5t-7 10t-10 7t-12.5 2.5v0z" />
    <glyph glyph-name="uniE028" unicode="&#xe028;" 
d="M256 480q-25 0 -49 -4.5t-47 -14t-44.5 -23.5t-40.5 -33q-38 -37 -56.5 -84.5t-18.5 -96.5t18.5 -96.5t56.5 -84.5q19 -19 40.5 -33t44.5 -23.5t47 -14t49 -4.5t49 4.5t47 14t44.5 23.5t40.5 33q38 37 56.5 84.5t18.5 96.5t-18.5 96.5t-56.5 84.5q-19 19 -40.5 33
t-44.5 23.5t-47 14t-49 4.5v0zM166 134q-10 9 -17 19t-11.5 21.5t-7 24t-2.5 25.5t2.5 25.5t7 24t11.5 21.5t17 19q9 10 19 17t21.5 11.5t24 7t25.5 2.5t25.5 -2.5t24 -7t21.5 -11.5t19 -17q10 -9 17 -19t11.5 -21.5t7 -24t2.5 -25.5t-2.5 -25.5t-7 -24t-11.5 -21.5t-17 -19
q-9 -10 -19 -17t-21.5 -11.5t-24 -7t-25.5 -2.5t-25.5 2.5t-24 7t-21.5 11.5t-19 17v0zM355 425l-49 -50q-6 2 -12.5 4t-12.5 3t-12.5 1.5t-12.5 0.5t-11.5 -0.5t-11 -1.5t-11.5 -2.5t-11 -2.5l-50 50q11 5 22.5 9t23.5 6.5t24 4t25 1.5t26 -1.5t25.5 -4.5t24.5 -7.5
t23 -9.5v0zM53 319l50 -50q-3 -11 -4.5 -23t-1.5 -24t2 -24t6 -24l-50 -49q-5 11 -9.5 23t-7.5 24.5t-4.5 25.5t-1.5 26t1.5 25t4 24t6.5 23.5t9 22.5v0zM98 66v0v0v0v0v0v0v0zM165 20l50 50q5 -1 10 -2.5t10.5 -2t10.5 -1t10 -0.5q6 0 11.5 0.5t11 1.5t11.5 2.5t11 2.5
l50 -50q-11 -5 -22.5 -9t-23.5 -6.5t-24 -4t-25 -1.5q-12 0 -24 1.5t-23 4t-22.5 6t-21.5 8.5v0zM459 129l-50 50q3 10 4.5 21t1.5 22t-1 21.5t-4 21.5l50 50q10 -22 15 -45.5t4.5 -47.5t-5.5 -47.5t-15 -45.5v0z" />
    <glyph glyph-name="uniE029" unicode="&#xe029;" 
d="M256 -32q31 0 60 7t55 20t48 31.5t40 41.5l-203 156v256q-53 0 -99.5 -20t-81.5 -55t-55 -81.5t-20 -99.5t20 -99.5t55 -81.5t81.5 -55t99.5 -20v0zM224 446v-222q0 -4 1 -7.5t2.5 -6.5t4 -6t4.5 -5l176 -136q-16 -15 -34 -26.5t-37.5 -20t-41 -12.5t-43.5 -4
q-46 0 -87 17.5t-71.5 48t-48 71.5t-17.5 87q0 42 15 80t40.5 67.5t60.5 49t76 25.5v0zM300 476v-229l183 -141q7 13 12.5 27t9 29t5.5 30.5t2 31.5q0 47 -16 89.5t-44.5 76t-67.5 56t-84 30.5v0z" />
    <glyph glyph-name="uniE02A" unicode="&#xe02a;" 
d="M480 480q-7 0 -13 -2.5t-10.5 -7t-7 -10.5t-2.5 -12v-76q-14 17 -29.5 35.5t-38 35t-53 27t-73.5 10.5q-53 0 -99 -20t-80 -54t-54 -80t-20 -99q0 -52 20 -98t54 -80t80 -54t99 -20q41 0 78.5 12.5t69 35.5t55.5 55t37 71q2 6 1.5 12.5t-3.5 12t-8 10t-11 6.5
q-7 2 -13.5 1.5t-12 -3t-10 -7.5t-6.5 -12q-10 -29 -27.5 -52.5t-40.5 -40.5t-51 -26t-58 -9q-39 0 -73 14.5t-59.5 40t-40 59.5t-14.5 72q0 39 14.5 73t40 59t59.5 40t73 15q27 0 48.5 -8t39 -21t32 -29.5t26.5 -34.5h-82q-6 0 -12 -2.5t-10.5 -7t-7 -10.5t-2.5 -13
q0 -6 2.5 -12t7 -10.5t10.5 -7t12 -2.5h163q6 0 12 2.5t10.5 7t7 10.5t2.5 12v160q0 6 -2.5 12t-7 10.5t-10.5 7t-12 2.5v0z" />
    <glyph glyph-name="uniE02B" unicode="&#xe02b;" 
d="M153 415q7 7 16 10.5t18 3.5t18 -3.5t16 -10.5l171 -172q4 12 4 24.5t-3 24.5t-9.5 23.5t-15.5 20.5l-113 113q-14 14 -32 21t-36.5 7t-36 -7t-31.5 -21l-25 -25q-15 -14 -22 -32t-7 -36.5t7 -36t22 -31.5l113 -113q9 -10 20 -16t23 -9t24.5 -3t24.5 3l-172 172
q-7 7 -10.5 15.5t-3.5 18t3.5 18.5t10.5 16l26 25v0zM257 -1q14 -14 32 -21t36.5 -7t36 7t31.5 21l25 25q15 15 22 32.5t7 36t-7 36t-22 31.5l-113 113q-9 10 -20 16t-23 9t-24.5 3t-24.5 -3l172 -172q7 -7 10.5 -16t3.5 -18t-3.5 -18t-10.5 -16l-26 -25q-7 -7 -16 -10.5
t-18 -3.5t-18 3.5t-16 10.5l-171 172q-4 -12 -4 -24.5t3 -24.5t9.5 -23.5t15.5 -20.5l113 -113v0z" />
    <glyph glyph-name="uniE02C" unicode="&#xe02c;" 
d="M121 228q8 -8 17 -13t19.5 -7.5t20.5 -2.5t22 3l-153 151q0 2 -2 4.5t-2.5 5t-1.5 5.5t0 6q-1 5 0.5 11t3.5 11.5t5.5 10.5t6.5 9q6 5 13.5 9.5t17.5 6.5t18.5 1.5t15.5 -6.5l150 -151q2 2 2 5t1 6t0.5 5.5t0.5 5.5q-1 8 -2 15.5t-4.5 14.5t-7 13.5t-10.5 11.5l-101 103
q-13 11 -28.5 15t-33.5 2t-33.5 -9.5t-27.5 -18.5q-6 -7 -11.5 -15t-9 -17t-6 -19t-1.5 -20q-1 -7 1 -14t4 -13.5t6 -12t7 -10.5l104 -102h-1zM391 220q-6 8 -16 13t-19.5 7.5t-20.5 2.5t-21 -3l151 -151q2 -2 3 -4.5t2.5 -5t1.5 -5.5t1 -6q-1 -5 -1.5 -11t-3.5 -11.5
t-5.5 -10.5t-7.5 -9q-4 -5 -12.5 -9.5t-17.5 -6.5t-18.5 -1.5t-14.5 6.5l-152 151q0 -2 -1 -5t-1 -6t-0.5 -5.5t0.5 -5.5q-1 -8 1 -15.5t4.5 -14.5t7 -13.5t9.5 -11.5l103 -103q11 -11 27.5 -15t33.5 -2t33.5 9.5t26.5 18.5q8 7 12.5 15t9 17t6 19t2.5 20l-2 14t-4 13.5
t-6 12t-8 10.5l-102 102h-1zM147 333q-1 -1 -2.5 -3t-2 -4t-1.5 -4t0 -4q-1 -2 0 -4t1.5 -4t2 -4t2.5 -3l189 -188q2 -4 6.5 -5.5t8 -1.5t8 1.5t6.5 5.5q3 1 3.5 3t2 4t1.5 4t1 4q-1 2 -1 4t-1.5 4t-2 4t-3.5 3l-187 188q-4 4 -7.5 5.5t-8 1.5t-8 -1.5t-7.5 -5.5v0z" />
    <glyph glyph-name="uniE02D" unicode="&#xe02d;" 
d="M432 115q0 -1 0.5 -1.5l1 -1t1 -0.5h0.5h1.5t1 0.5t0.5 1v1.5v0v0v0v0v1t-0.5 1t-1 0.5t-1.5 0.5l-0.5 -0.5t-1 -0.5t-1 -1l-0.5 -1v0v0v0v0v0zM368 49v0v0v0v0q0 -2 0.5 -3t1.5 -1.5l2 -1t2 -0.5t2 0.5l2 1t1.5 1.5t0.5 3v0v0v0v0v0v0v0v0q0 1 -0.5 2t-1.5 1.5l-2 1
t-2 0.5t-2 -0.5l-2 -1t-1.5 -1.5t-0.5 -2v0v0v0v0v0zM281 14q0 -1 1 -3t2 -3t2.5 -1.5t3.5 -0.5t3.5 0.5t2.5 1.5t2 3t1 3q0 2 -1 3.5l-2 3t-2.5 2t-3.5 0.5t-3.5 -0.5t-2.5 -2l-2 -3t-1 -3.5v0zM188 19v0v0v0v0q0 -2 1 -4.5t2.5 -4t3.5 -2.5t5 -1q2 0 4 1t3.5 2.5t2.5 4
t1 4.5v0v0v0v0v0v0v0v0q0 2 -1 4.5t-2.5 4t-3.5 2.5t-4 1q-3 0 -5 -1t-3.5 -2.5t-2.5 -4t-1 -4.5v0v0v0v0v0zM105 61q0 -3 1.5 -5.5t3.5 -4.5t4.5 -3t5.5 -1t5.5 1t4.5 3t3 4.5t1 5.5v0v0v0v0q0 3 -1 6t-3 5t-4.5 3t-5.5 1t-5.5 -1t-4.5 -3t-3.5 -5t-1.5 -6v0v0v0v0v0z
M48 134q0 -4 1.5 -7t3.5 -5.5t5.5 -4t6.5 -1.5q4 0 7 1.5t5.5 4t4 5.5t1.5 7q0 3 -1.5 6.5t-4 5.5t-5.5 3.5t-7 1.5q-3 0 -6.5 -1.5t-5.5 -3.5t-3.5 -5.5t-1.5 -6.5v0zM27 222q0 -4 1.5 -7.5t4 -6.5t6.5 -4.5t8 -1.5t7.5 1.5t6.5 4.5t4.5 6.5t1.5 7.5t-1.5 8t-4.5 6.5
t-6.5 4.5t-7.5 2t-8 -2t-6.5 -4.5t-4 -6.5t-1.5 -8v0zM44 310q0 -4 2 -8.5t5 -7.5t7.5 -5t8.5 -2q5 0 9.5 2t7.5 5t5 7.5t2 8.5q0 5 -2 9.5t-5 7.5t-7.5 5t-9.5 2q-4 0 -8.5 -2t-7.5 -5t-5 -7.5t-2 -9.5v0zM97 381q0 -5 2 -10t6 -8.5t8.5 -5.5t9.5 -2q6 0 10.5 2t8 5.5
t6 8.5t2.5 10v0v0v0v0q0 6 -2.5 10.5t-6 8t-8 5.5t-10.5 2q-5 0 -9.5 -2t-8.5 -5.5t-6 -8t-2 -10.5v0v0v0v0v0zM175 422v0v0v0v0q0 -6 2.5 -11.5t6.5 -9t9 -6t11 -2.5t11.5 2.5t9.5 6t6 9t2 11.5v0v0v0v0v0v0v0v0q0 6 -2 11.5t-6 9t-9.5 6t-11.5 2.5t-11 -2.5t-9 -6t-6.5 -9
t-2.5 -11.5v0v0v0v0v0zM263 425q0 -7 2.5 -13t6.5 -10t10 -6.5t13 -2.5q6 0 12 2.5t10.5 6.5t7 10t2.5 13v0v0v0v0q0 6 -2.5 12t-7 10t-10.5 6.5t-12 2.5q-7 0 -13 -2.5t-10 -6.5t-6.5 -10t-2.5 -12v0v0v0v0v0zM343 388v0v0v0v0q0 -7 2.5 -13t7.5 -11t11.5 -7.5t13.5 -2.5
t13.5 2.5t11 7.5t7.5 11t3 13v0v0v0v0v0v0v0v0q0 8 -3 14t-7.5 11t-11 7.5t-13.5 2.5t-13.5 -2.5t-11.5 -7.5t-7.5 -11t-2.5 -14v0v0v0v0v0zM400 321q0 -8 3 -15t8 -12t12 -8t15 -3q7 0 14 3t12 8t8 12t3 15t-3 14.5t-8 12t-12 8t-14 2.5q-8 0 -15 -2.5t-12 -8t-8 -12
t-3 -14.5v0zM423 233q0 -8 3 -15.5t8.5 -13t13 -9t15.5 -3.5q9 0 16 3.5t12.5 9t9 13t3.5 15.5t-3.5 15.5t-9 13t-12.5 9t-16 3.5q-8 0 -15.5 -3.5t-13 -9t-8.5 -13t-3 -15.5v0z" />
    <glyph glyph-name="uniE02E" unicode="&#xe02e;" 
d="M256 480q-53 0 -99.5 -20t-81.5 -55t-55 -81.5t-20 -99.5t20 -99.5t55 -81.5t81.5 -55t99.5 -20t99.5 20t81.5 55t55 81.5t20 99.5t-20 99.5t-55 81.5t-81.5 55t-99.5 20v0zM256 416q40 0 75 -15t61 -41t41 -61t15 -75q0 -16 -2.5 -30.5t-7 -28.5t-11 -27t-15.5 -25
l-267 267q12 9 25 15.5t27 11t28.5 7t30.5 2.5v0zM64 224q0 16 2.5 30.5t7 28.5t11 27t15.5 25l267 -267q-12 -9 -25 -15.5t-27 -11t-28.5 -7t-30.5 -2.5q-40 0 -75 15t-61 41t-41 61t-15 75v0z" />
    <glyph glyph-name="uniE02F" unicode="&#xe02f;" 
d="M480 416h-448q-7 0 -12.5 -2.5t-10 -7t-7 -10t-2.5 -12.5v-64h512v64q0 7 -2.5 12.5t-7 10t-10 7t-12.5 2.5v0zM480 352h-448v32h448v-32v0zM32 0q0 -7 2.5 -12.5t7 -10t10 -7t12.5 -2.5h384q7 0 12.5 2.5t10 7t7 10t2.5 12.5v288h-448v-288v0zM64 256h384v-256h-384v256
v0zM336 224h-160q-3 0 -6 -1.5t-5 -3.5t-3.5 -5t-1.5 -6t1.5 -6t3.5 -5t5 -3.5t6 -1.5h160q3 0 6 1.5t5 3.5t3.5 5t1.5 6t-1.5 6t-3.5 5t-5 3.5t-6 1.5v0z" />
    <glyph glyph-name="uniE030" unicode="&#xe030;" 
d="M512 291q-1 29 -12.5 56t-31 47.5t-45 32.5t-55.5 12q-17 0 -33 -4t-30 -12t-26.5 -18.5t-22.5 -24.5q-10 14 -22.5 24.5t-26.5 18.5t-30 12t-33 4q-30 0 -55.5 -12t-45 -32.5t-31 -47.5t-12.5 -56v0v-1v0v-0.5v-0.5v0v0v-0.5v-0.5v-1.5v-1.5t0.5 -1.5t0.5 -1.5
q2 -75 42 -128.5t87 -87.5t85.5 -50l38.5 -16l39 16t86.5 50t88.5 87.5t43 128.5q0 1 0.5 1.5t0.5 1.5v1.5v1.5v0.5v0.5v0v0v0.5v0.5v0v1v0v0zM479 283q-2 -58 -31 -101.5t-66.5 -74t-74 -48.5t-53.5 -25q-16 7 -52 25t-73 48.5t-65.5 74.5t-30.5 102v0.5t-0.5 1.5t-0.5 1.5
v0.5v1v0v0.5v0.5q1 24 10 45t24.5 37t35.5 25.5t42 9.5q12 0 24 -3t23 -9t21 -14.5t18 -19.5l5.5 -5.5t6 -4t7 -2.5t7.5 -1t7.5 1t7 2.5t6 4l5.5 5.5q8 11 18 19.5t21 14.5t23 9t24 3q22 0 42 -9.5t35.5 -25.5t24.5 -37t10 -45v-0.5v-0.5v0v-1v-1t-0.5 -1.5t-0.5 -1v-1.5v0z
" />
    <glyph glyph-name="uniE031" unicode="&#xe031;" 
d="M510 273q-1 4 -3.5 8t-6 6.5t-7.5 4.5t-9 3l-138 20l-61 125q-2 4 -5 7t-7 5.5t-8 4t-9 1.5t-9 -1.5t-8 -4t-7 -5.5t-5 -7l-61 -125l-138 -20q-5 -1 -9 -3t-7.5 -4.5t-6 -6.5t-3.5 -8q-2 -4 -2 -8.5t1 -9t3.5 -8.5t5.5 -7l100 -97l-24 -138q-1 -4 -0.5 -8.5t2.5 -8.5
t4.5 -7.5t6.5 -6.5q2 -1 4.5 -2.5t4.5 -2t4.5 -1t5.5 -0.5h3.5t3.5 0.5t4 1.5l4 2l123 65l123 -65l4 -2t4 -1.5t3.5 -0.5h3.5q3 0 5.5 0.5t4.5 1t4.5 2t4.5 2.5q4 3 6.5 6.5t4.5 7.5t2.5 8.5t-0.5 8.5l-24 138l100 97q3 3 5.5 7t3.5 8.5t1 9t-2 8.5v0zM368 154l26 -154
l-138 73l-138 -73l26 154l-112 109l155 22l69 141l69 -141l155 -22l-112 -109v0z" />
    <glyph glyph-name="uniE032" unicode="&#xe032;" 
d="M510 273q-1 4 -3.5 8t-6 6.5t-7.5 4.5t-9 3l-138 20l-61 125q-2 4 -5 7t-7 5.5t-8 4t-9 1.5t-9 -1.5t-8 -4t-7 -5.5t-5 -7l-61 -125l-138 -20q-5 -1 -9 -3t-7.5 -4.5t-6 -6.5t-3.5 -8q-2 -4 -2 -8.5t1 -9t3.5 -8.5t5.5 -7l100 -97l-24 -138q-1 -4 -0.5 -8.5t2.5 -8.5
t4.5 -7.5t6.5 -6.5q2 -1 4.5 -2.5t4.5 -2t4.5 -1t5.5 -0.5h3.5t3.5 0.5t4 1.5l4 2l123 65l123 -65l4 -2t4 -1.5t3.5 -0.5h3.5q3 0 5.5 0.5t4.5 1t4.5 2t4.5 2.5q4 3 6.5 6.5t4.5 7.5t2.5 8.5t-0.5 8.5l-24 138l100 97q3 3 5.5 7t3.5 8.5t1 9t-2 8.5v0zM368 154l26 -154
l-138 73v353l69 -141l155 -22l-112 -109v0z" />
    <glyph glyph-name="uniE033" unicode="&#xe033;" 
d="M332 292l-78 159l-79 -159l-175 -26l127 -123l-30 -175l157 82l156 -82l-29 175l126 123z" />
    <glyph glyph-name="uniE034" unicode="&#xe034;" 
d="M256 50v400l-78 -158l-176 -27l127 -122l-30 -176z" />
    <glyph glyph-name="uniE035" unicode="&#xe035;" 
d="M14 49q-7 -7 -10.5 -15.5t-3.5 -18t3.5 -18t10.5 -15.5q3 -4 7 -6.5t8.5 -4.5t9 -2.5t9.5 -0.5q4 0 8.5 0.5t9 2.5t8.5 4.5t7 6.5l158 157l-68 68l-157 -158v0zM407 342l69 35l36 69l-34 34l-69 -36l-35 -69l-84 -83l34 -34zM422 159l-1 0.5t-2 0.5h-1.5h-1.5
q-4 0 -8.5 -0.5t-8.5 -1t-8 -2t-8 -2.5l-197 197q1 4 2.5 8t2 8t1 8.5t0.5 8.5v1.5v1.5t-0.5 2l-0.5 1q-1 19 -9 35.5t-20.5 28.5t-29.5 19t-36 7q-6 0 -11 -0.5t-10.5 -2t-10 -3t-9.5 -4.5l64 -63q1 -2 2 -3t2 -2.5t1.5 -3t1.5 -3.5q1 -4 1.5 -8.5t-0.5 -9t-3 -8.5t-5 -8
q-3 -2 -5.5 -3.5t-5.5 -3t-6 -2t-6 -0.5h-2.5t-3 0.5l-3 1t-2.5 0.5q-2 1 -3.5 1.5t-3 1.5t-2.5 2t-3 2l-63 64q-3 -5 -4.5 -9.5t-3 -10t-2 -10.5t-0.5 -11q0 -19 7 -36t19 -29.5t28.5 -20.5t35.5 -9l1 -0.5t2 -0.5h1.5h1.5q4 0 8.5 0.5t8.5 1t8 2t8 2.5l197 -197
q-1 -4 -2.5 -8t-2 -8t-1 -8.5t-0.5 -8.5v-1.5v-1.5t0.5 -2l0.5 -1q1 -19 9 -35.5t20.5 -28.5t29.5 -19t36 -7q6 0 11 0.5t10.5 2t10 3t9.5 4.5l-64 63q-1 2 -2 3t-2 2.5t-1.5 3t-1.5 3.5q-1 4 -1.5 8.5t0.5 9t3 8.5t5 8q3 2 5.5 3.5t5.5 3t6 2t6 0.5h2.5t3 -0.5l3 -1
t2.5 -0.5q2 -1 3.5 -1.5t3 -1.5t2.5 -2t3 -2l63 -64q3 5 4.5 9.5t3 10t2 10.5t0.5 11q0 19 -7 36t-19 29.5t-28.5 20.5t-35.5 9v0z" />
    <glyph glyph-name="uniE036" unicode="&#xe036;" 
d="M416 96h2.5t3 -0.5l3 -1t2.5 -0.5q2 -1 3.5 -1.5t3 -1.5t2.5 -2t3 -2l63 -64q3 5 4.5 9.5t3 10t2 10.5t0.5 11q0 19 -7 36t-19 29.5t-28.5 20.5t-35.5 9l-1 0.5t-2 0.5h-1.5h-1.5q-4 0 -8.5 -0.5t-8.5 -1t-8 -2t-8 -2.5l-197 197q1 4 2.5 8t2 8t1 8.5t0.5 8.5v1.5v1.5
t-0.5 2l-0.5 1q-1 19 -9 35.5t-20.5 28.5t-29.5 19t-36 7q-6 0 -11 -0.5t-10.5 -2t-10 -3t-9.5 -4.5l64 -63q1 -2 2 -3t2 -2.5t1.5 -3t1.5 -3.5q1 -4 1.5 -8.5t-0.5 -9t-3 -8.5t-5 -8q-3 -2 -5.5 -3.5t-5.5 -3t-6 -2t-6 -0.5h-2.5t-3 0.5l-3 1t-2.5 0.5q-2 1 -3.5 1.5
t-3 1.5t-2.5 2t-3 2l-63 64q-3 -5 -4.5 -9.5t-3 -10t-2 -10.5t-0.5 -11q0 -19 7 -36t19 -29.5t28.5 -20.5t35.5 -9l1 -0.5t2 -0.5h1.5h1.5q4 0 8.5 0.5t8.5 1t8 2t8 2.5l197 -197q-1 -4 -2.5 -8t-2 -8t-1 -8.5t-0.5 -8.5v-1.5v-1.5t0.5 -2l0.5 -1q1 -19 9 -35.5t20.5 -28.5
t29.5 -19t36 -7q6 0 11 0.5t10.5 2t10 3t9.5 4.5l-64 63q-1 2 -2 3t-2 2.5t-1.5 3t-1.5 3.5q-1 4 -1.5 8.5t0.5 9t3 8.5t5 8q3 2 5.5 3.5t5.5 3t6 2t6 0.5v0z" />
    <glyph glyph-name="uniE037" unicode="&#xe037;" 
d="M440 277q-2 5 -3.5 10.5t-4 10.5t-4 9.5t-5.5 9.5l33 67q-6 5 -10 10.5t-9.5 10.5t-10.5 9.5t-11 9.5l-66 -32l-10 5t-9.5 4t-10.5 4t-11 3l-24 70q-4 1 -7 1t-7 0.5t-7 0.5h-8h-7t-7 -0.5t-7 -0.5t-6 -1l-26 -70q-4 -1 -10 -3t-10.5 -4t-9.5 -4t-9 -5l-68 32
q-4 -5 -10 -9.5t-10.5 -9.5t-9.5 -10.5t-9 -10.5l31 -67q-2 -5 -4.5 -9.5t-4 -9.5t-4 -10.5t-2.5 -10.5l-71 -25q0 -3 -0.5 -6.5t-0.5 -7t-0.5 -7t0.5 -7.5q-1 -4 -0.5 -7.5t0.5 -7t0.5 -7t0.5 -6.5l71 -25q0 -5 2.5 -10.5t4 -10.5t4 -9.5t4.5 -9.5l-31 -67q4 -5 9 -10.5
t9.5 -10.5t10.5 -9.5t10 -9.5l68 32q4 -3 9 -5t9.5 -4t10.5 -4t10 -3l26 -70q2 -1 6 -1t7 -0.5t7 -0.5h7h8t7 0.5t7 0.5t7 1l24 70q6 1 11 3t10.5 4t9.5 4l10 5l66 -32q6 5 11 9.5t10.5 9.5t9.5 10.5t10 10.5l-33 67q4 5 5.5 9.5t4 9.5t4 10.5t3.5 10.5l69 25q2 3 1.5 6.5
t0.5 7t0.5 7t0.5 7.5q-1 4 -0.5 7.5t-0.5 7t-0.5 7t-1.5 6.5l-69 25v0zM255 96q-26 0 -49.5 10t-40.5 27.5t-27.5 40.5t-9.5 50q-1 27 9.5 50t27.5 40.5t40.5 27.5t49.5 10q28 0 50.5 -10t40.5 -27.5t27.5 -40.5t10.5 -50q-1 -27 -10.5 -50t-27.5 -40.5t-40.5 -27.5
t-50.5 -10v0zM192 224q-1 -13 4.5 -25t13.5 -20.5t20.5 -13.5t24.5 -5q14 0 25.5 5t20.5 13.5t13.5 20.5t5.5 25q-1 13 -5.5 25t-13.5 20.5t-20.5 13.5t-25.5 5q-12 0 -24.5 -5t-20.5 -13.5t-13.5 -20.5t-4.5 -25v0z" />
    <glyph glyph-name="uniE038" unicode="&#xe038;" 
d="M16 205l56 2q2 -3 5 -6t5.5 -6t6 -6t5.5 -5l-3 -56q1 -1 4 -2.5l5 -2.5t5 -2t4 -2q4 -1 5.5 -2t4.5 -2t5 -2t6 -2l37 41q5 0 8.5 -0.5t8 -0.5h8t8.5 1l36 -42q6 1 10.5 3t10 4t9.5 4l10 5l-3 55q4 3 6.5 5.5t6 5t6 5.5t5.5 7l55 -4q2 2 3 4.5t2.5 5t2 4.5t2.5 5
q0 2 1.5 4.5t2 5t2 5t1.5 5.5l-40 38q-1 4 0 8t0.5 8t0 8t-1.5 8l43 37q-2 5 -3.5 10t-4 10t-4 9.5t-5.5 9.5l-54 -2q-4 3 -6 6t-5 6t-5.5 6t-7.5 5l5 56q-3 1 -5 2.5t-5 2.5t-4.5 2t-5.5 2q-1 1 -4 2t-5 2t-5 2t-5 1l-39 -40q-3 0 -7.5 0.5t-8 0.5h-8t-7.5 -1l-38 42
q-4 -1 -9.5 -3t-10 -4t-9.5 -4t-9 -5l1 -55q-2 -3 -5.5 -5.5t-6 -5.5t-6 -6t-4.5 -6l-57 4q0 -2 -2 -4.5t-2.5 -5t-2 -5t-1.5 -4.5q-2 -3 -2.5 -5t-2 -4.5t-2 -5t-1.5 -5.5l41 -38q-1 -4 -1 -8t-0.5 -8t0 -8t0.5 -8l-41 -37q0 -5 2.5 -10t4 -10t4 -9.5t4.5 -9.5v0zM224 383
q17 -8 30.5 -21.5t20 -31t7 -36.5t-8.5 -37q-7 -18 -21 -31t-31 -20t-36.5 -7t-36.5 8q-19 8 -31.5 21.5t-20 31t-7 36.5t7.5 37q9 18 22 31t31 20t36.5 7t37.5 -8v0zM137 295q1 -10 4.5 -18.5t10.5 -15.5t15 -10.5t19 -3.5q9 0 18 3.5t15.5 10.5t10.5 15.5t3 18.5
q1 10 -3 18.5t-10.5 15t-15.5 10.5t-18 4q-11 0 -19 -4t-15 -10.5t-10.5 -15t-4.5 -18.5v0zM482 103l-15 5l7 13l13 29q-1 2 -3.5 4.5t-4 4.5t-4.5 4t-4 4l-43 -20l-4 14l-12 30l-2 0.5t-3 0.5h-3h-3h-4h-3t-3 -0.5t-3 -0.5l-15 -44l-43 20q-1 -2 -4 -4t-4.5 -4t-4 -4.5
t-3.5 -4.5l19 -42l-43 -16q-1 -1 -1 -2.5t-0.5 -3t0 -3t-0.5 -3.5q1 -2 0.5 -3.5t0 -3t0.5 -3t1 -2.5l43 -16l-5 -13l-15 -29q3 -2 4.5 -4.5t4 -4.5t4.5 -4t5 -4l41 20l6 -14l10 -30q2 0 3 -0.5t3 -0.5h3h4h3h3t3 0.5l2 0.5l17 44l41 -20q3 2 5 4t4.5 4t4 4.5t4.5 4.5
l-21 42l45 16q-1 1 0 2.5t0.5 3t0 3t-0.5 3.5q1 2 0.5 3.5t0 3t-0.5 3t0 2.5l-31 11h1zM401 56q-6 0 -10 2t-7.5 5t-5 7.5t-2.5 9.5q1 5 2.5 9.5t5 7.5t7.5 5t10 2q4 0 9 -2t7.5 -5t5 -7.5t1.5 -9.5q1 -5 -1.5 -9.5t-5 -7.5t-7.5 -5t-9 -2v0z" />
    <glyph glyph-name="uniE039" unicode="&#xe039;" 
d="M272 448q-50 0 -93.5 -19t-76 -51.5t-51.5 -76t-19 -93.5t19 -93.5t51.5 -76t76 -51.5t93.5 -19t93.5 19t76 51.5t51.5 76t19 93.5t-19 93.5t-51.5 76t-76 51.5t-93.5 19v0zM379 229q-2 -3 -5 -4t-6 -1t-6 1t-5 4l-69 68v-249q0 -3 -1.5 -6t-3.5 -5t-5 -3.5t-6 -1.5
t-6 1.5t-5 3.5t-3.5 5t-1.5 6v249l-69 -68q-2 -3 -5 -4t-6 -1t-6 1t-5 4q-3 2 -4 5t-1 6t1 6t4 5l96 96v0v0v0v0q0 1 1 1.5t1.5 1t1 0.5t1.5 1q1 0 2.5 0.5t3.5 0.5t3.5 -0.5t2.5 -0.5q1 -1 1.5 -1t1.5 -0.5t1.5 -1t0.5 -1.5l96 -96q3 -2 4 -5t1 -6t-1 -6t-4 -5v0z" />
    <glyph glyph-name="uniE03A" unicode="&#xe03a;" 
d="M272 448q-50 0 -93.5 -19t-76 -51.5t-51.5 -76t-19 -93.5t19 -93.5t51.5 -76t76 -51.5t93.5 -19t93.5 19t76 51.5t51.5 76t19 93.5t-19 93.5t-51.5 76t-76 51.5t-93.5 19v0zM379 165l-96 -96q0 -1 -0.5 -1.5t-1.5 -1t-1.5 -0.5t-1.5 -1q-1 0 -2.5 -0.5t-3.5 -0.5
t-3.5 0.5t-2.5 0.5q-1 1 -1.5 1t-1 0.5t-1.5 1t-1 1.5v0v0v0v0l-96 96q-3 2 -4 5t-1 6t1 6t4 5q2 3 5 4t6 1t6 -1t5 -4l69 -68v249q0 3 1.5 6t3.5 5t5 3.5t6 1.5t6 -1.5t5 -3.5t3.5 -5t1.5 -6v-249l69 68q2 3 5 4t6 1t6 -1t5 -4q3 -2 4 -5t1 -6t-1 -6t-4 -5v0z" />
    <glyph glyph-name="uniE03B" unicode="&#xe03b;" 
d="M272 448q-50 0 -93.5 -19t-76 -51.5t-51.5 -76t-19 -93.5t19 -93.5t51.5 -76t76 -51.5t93.5 -19t93.5 19t76 51.5t51.5 76t19 93.5t-19 93.5t-51.5 76t-76 51.5t-93.5 19v0zM448 208q0 -3 -1.5 -6t-3.5 -5t-5 -3.5t-6 -1.5h-249l68 -69q3 -2 4 -5t1 -6t-1 -6t-4 -5
q-2 -3 -5 -4t-6 -1t-6 1t-5 4l-96 96v0v0v0v0q-1 0 -1.5 1t-1 1.5t-0.5 1t-1 1.5q0 1 -0.5 1.5t-0.5 1.5v1.5v1.5v0v0v0v0v0v1.5v1.5t0.5 1.5t0.5 1.5q1 1 1 1.5t0.5 1t1 1.5t1.5 1v0v0v0v0l96 96q2 3 5 4t6 1t6 -1t5 -4q3 -2 4 -5t1 -6t-1 -6t-4 -5l-68 -69h249q3 0 6 -1.5
t5 -3.5t3.5 -5t1.5 -6v0z" />
    <glyph glyph-name="uniE03C" unicode="&#xe03c;" 
d="M272 448q-50 0 -93.5 -19t-76 -51.5t-51.5 -76t-19 -93.5t19 -93.5t51.5 -76t76 -51.5t93.5 -19t93.5 19t76 51.5t51.5 76t19 93.5t-19 93.5t-51.5 76t-76 51.5t-93.5 19v0zM416 208v0v0v0v0v-1.5v-1.5t-0.5 -1.5t-0.5 -1.5q-1 -1 -1 -1.5t-0.5 -1.5t-1 -1.5t-1.5 -0.5
l-96 -96q-2 -3 -5 -4t-6 -1t-6 1t-5 4q-3 2 -4 5t-1 6t1 6t4 5l68 69h-249q-3 0 -6 1.5t-5 3.5t-3.5 5t-1.5 6t1.5 6t3.5 5t5 3.5t6 1.5h249l-68 69q-3 2 -4 5t-1 6t1 6t4 5q2 3 5 4t6 1t6 -1t5 -4l96 -96q1 0 1.5 -0.5t1 -1.5t0.5 -1.5t1 -1.5q0 -1 0.5 -1.5t0.5 -1.5v-1.5
v-1.5v0v0z" />
    <glyph glyph-name="uniE03D" unicode="&#xe03d;" 
d="M102 378q-35 -35 -52.5 -79.5t-17.5 -90.5t17.5 -90.5t52.5 -79.5t79.5 -52.5t90.5 -17.5t90.5 17.5t79.5 52.5t52.5 79.5t17.5 90.5t-17.5 90.5t-52.5 79.5t-79.5 52.5t-90.5 17.5t-90.5 -17.5t-79.5 -52.5v0zM391 89q-2 -2 -5 -3.5t-6 -1.5t-6 1.5t-6 3.5l-176 176v-97
q0 -3 -1.5 -6t-3.5 -5t-5 -3.5t-6 -1.5t-6 1.5t-5 3.5t-3.5 5t-1.5 6v136v1.5v1.5t0.5 1.5t0.5 1.5q1 1 1 1.5t0.5 1t1 1.5t1.5 1v0v0v0v0v0v0v0v0q0 1 1 1.5t1.5 1t1 0.5t1.5 1q1 0 1.5 0.5t1.5 0.5h1.5h1.5h136q3 0 6 -1.5t5 -3.5t3.5 -5t1.5 -6t-1.5 -6t-3.5 -5t-5 -3.5
t-6 -1.5h-97l176 -176q2 -3 3.5 -6t1.5 -6t-1.5 -6t-3.5 -5v0z" />
    <glyph glyph-name="uniE03E" unicode="&#xe03e;" 
d="M102 378q-35 -35 -52.5 -79.5t-17.5 -90.5t17.5 -90.5t52.5 -79.5t79.5 -52.5t90.5 -17.5t90.5 17.5t79.5 52.5t52.5 79.5t17.5 90.5t-17.5 90.5t-52.5 79.5t-79.5 52.5t-90.5 17.5t-90.5 -17.5t-79.5 -52.5v0zM384 304v-136q0 -3 -1.5 -6t-3.5 -5t-5 -3.5t-6 -1.5
t-6 1.5t-5 3.5t-3.5 5t-1.5 6v97l-176 -176q-3 -2 -6 -3.5t-6 -1.5t-6 1.5t-5 3.5t-3.5 5t-1.5 6t1.5 6t3.5 6l176 176h-97q-3 0 -6 1.5t-5 3.5t-3.5 5t-1.5 6t1.5 6t3.5 5t5 3.5t6 1.5h136h1.5h1.5t1.5 -0.5t1.5 -0.5q2 -1 3 -2l2 -2l2 -2t2 -3q0 -1 0.5 -1.5t0.5 -1.5
v-1.5v-1.5v0v0z" />
    <glyph glyph-name="uniE03F" unicode="&#xe03f;" 
d="M102 378q-35 -35 -52.5 -79.5t-17.5 -90.5t17.5 -90.5t52.5 -79.5t79.5 -52.5t90.5 -17.5t90.5 17.5t79.5 52.5t52.5 79.5t17.5 90.5t-17.5 90.5t-52.5 79.5t-79.5 52.5t-90.5 17.5t-90.5 -17.5t-79.5 -52.5v0zM384 112v0v0v0v0v-1.5v-1.5t-0.5 -1.5t-0.5 -1.5
q-1 -2 -2 -3l-2 -2l-2 -2t-3 -2q-1 0 -1.5 -0.5t-1.5 -0.5h-1.5h-1.5h-136q-3 0 -6 1.5t-5 3.5t-3.5 5t-1.5 6t1.5 6t3.5 5t5 3.5t6 1.5h97l-176 176q-2 3 -3.5 6t-1.5 6t1.5 6t3.5 5t5 3.5t6 1.5t6 -1.5t6 -3.5l176 -176v97q0 3 1.5 6t3.5 5t5 3.5t6 1.5t6 -1.5t5 -3.5
t3.5 -5t1.5 -6v-136v0z" />
    <glyph glyph-name="uniE040" unicode="&#xe040;" 
d="M102 378q-35 -35 -52.5 -79.5t-17.5 -90.5t17.5 -90.5t52.5 -79.5t79.5 -52.5t90.5 -17.5t90.5 17.5t79.5 52.5t52.5 79.5t17.5 90.5t-17.5 90.5t-52.5 79.5t-79.5 52.5t-90.5 17.5t-90.5 -17.5t-79.5 -52.5v0zM391 304l-176 -176h97q3 0 6 -1.5t5 -3.5t3.5 -5t1.5 -6
t-1.5 -6t-3.5 -5t-5 -3.5t-6 -1.5h-136h-1.5h-1.5t-1.5 0.5t-1.5 0.5q-1 1 -1.5 1t-1 0.5t-1.5 1t-1 1.5v0v0v0v0v0v0v0v0q-1 0 -1.5 1t-1 1.5t-0.5 1t-1 1.5q0 1 -0.5 1.5t-0.5 1.5v1.5v1.5v0v0v0v0v136q0 3 1.5 6t3.5 5t5 3.5t6 1.5t6 -1.5t5 -3.5t3.5 -5t1.5 -6v-97
l176 176q3 2 6 3.5t6 1.5t6 -1.5t5 -3.5t3.5 -5t1.5 -6t-1.5 -6t-3.5 -6v0z" />
    <glyph glyph-name="uniE041" unicode="&#xe041;" 
d="M480 480h-448q-7 0 -12.5 -2.5t-10 -7t-7 -10t-2.5 -12.5v-448q0 -7 2.5 -12.5t7 -10t10 -7t12.5 -2.5h448q7 0 12.5 2.5t10 7t7 10t2.5 12.5v448q0 7 -2.5 12.5t-7 10t-10 7t-12.5 2.5v0zM224 176v-128q0 -3 -1.5 -6t-3.5 -5t-5 -3.5t-6 -1.5t-6 1.5t-5 3.5t-3.5 5
t-1.5 6v89l-101 -100q-2 -3 -5 -4t-6 -1t-6 1t-5 4q-3 2 -4 5t-1 6t1 6t4 5l100 101h-89q-3 0 -6 1.5t-5 3.5t-3.5 5t-1.5 6t1.5 6t3.5 5t5 3.5t6 1.5h128h1.5h1.5t1.5 -0.5t1.5 -0.5q2 -1 3 -2l2 -2l2 -2t2 -3q0 -1 0.5 -1.5t0.5 -1.5v-1.5v-1.5v0v0zM432 288q3 0 6 -1.5
t5 -3.5t3.5 -5t1.5 -6t-1.5 -6t-3.5 -5t-5 -3.5t-6 -1.5h-128h-1.5h-1.5t-1.5 0.5t-1.5 0.5q-1 1 -1.5 1t-1 0.5t-1.5 1t-1 1.5v0v0v0v0v0v0v0v0q-1 0 -1.5 1t-1 1.5t-0.5 1t-1 1.5q0 1 -0.5 1.5t-0.5 1.5v1.5v1.5v0v0v0v0v128q0 3 1.5 6t3.5 5t5 3.5t6 1.5t6 -1.5t5 -3.5
t3.5 -5t1.5 -6v-89l101 100q2 3 5 4t6 1t6 -1t5 -4q3 -2 4 -5t1 -6t-1 -6t-4 -5l-100 -101h89v0z" />
    <glyph glyph-name="uniE042" unicode="&#xe042;" 
d="M480 480h-448q-7 0 -12.5 -2.5t-10 -7t-7 -10t-2.5 -12.5v-448q0 -7 2.5 -12.5t7 -10t10 -7t12.5 -2.5h448q7 0 12.5 2.5t10 7t7 10t2.5 12.5v448q0 7 -2.5 12.5t-7 10t-10 7t-12.5 2.5v0zM208 64q3 0 6 -1.5t5 -3.5t3.5 -5t1.5 -6t-1.5 -6t-3.5 -5t-5 -3.5t-6 -1.5h-128
h-1.5h-1.5t-1.5 0.5t-1.5 0.5q-1 1 -1.5 1t-1 0.5t-1.5 1t-1 1.5v0v0v0v0v0v0v0v0q-1 0 -1.5 1t-1 1.5t-0.5 1t-1 1.5q0 1 -0.5 1.5t-0.5 1.5v1.5v1.5v0v0v0v0v128q0 3 1.5 6t3.5 5t5 3.5t6 1.5t6 -1.5t5 -3.5t3.5 -5t1.5 -6v-89l101 100q2 3 5 4t6 1t6 -1t5 -4q3 -2 4 -5
t1 -6t-1 -6t-4 -5l-100 -101h89v0zM448 400v-128q0 -3 -1.5 -6t-3.5 -5t-5 -3.5t-6 -1.5t-6 1.5t-5 3.5t-3.5 5t-1.5 6v89l-101 -100q-2 -3 -5 -4t-6 -1t-6 1t-5 4q-3 2 -4 5t-1 6t1 6t4 5l100 101h-89q-3 0 -6 1.5t-5 3.5t-3.5 5t-1.5 6t1.5 6t3.5 5t5 3.5t6 1.5h128h1.5
h1.5t1.5 -0.5t1.5 -0.5q2 -1 3 -2l2 -2l2 -2t2 -3q0 -1 0.5 -1.5t0.5 -1.5v-1.5v-1.5v0v0z" />
    <glyph glyph-name="uniE043" unicode="&#xe043;" 
d="M272 -32q50 0 93.5 19t76 51.5t51.5 76t19 93.5t-19 93.5t-51.5 76t-76 51.5t-93.5 19t-93.5 -19t-76 -51.5t-51.5 -76t-19 -93.5t19 -93.5t51.5 -76t76 -51.5t93.5 -19v0zM157 179l104 104l2 2t2.5 1.5l3 1t3.5 0.5t3.5 -0.5l3 -1t2.5 -1.5l2 -2l104 -104q2 -2 3.5 -5
t1.5 -6t-1.5 -6t-3.5 -5q-2 -3 -5 -4t-6 -1t-6 1t-5 4l-93 92l-93 -92q-2 -3 -5 -4t-6 -1t-6 1t-5 4q-2 2 -3.5 5t-1.5 6t1.5 6t3.5 5v0z" />
    <glyph glyph-name="uniE044" unicode="&#xe044;" 
d="M272 448q-50 0 -93.5 -19t-76 -51.5t-51.5 -76t-19 -93.5t19 -93.5t51.5 -76t76 -51.5t93.5 -19t93.5 19t76 51.5t51.5 76t19 93.5t-19 93.5t-51.5 76t-76 51.5t-93.5 19v0zM387 237l-104 -104q-1 -1 -2.5 -2t-2.5 -1.5t-2.5 -1t-3.5 -0.5t-3.5 0.5l-3 1t-2.5 1.5l-2 2
l-104 104q-2 2 -3.5 5t-1.5 6t1.5 6t3.5 5q2 3 5 4t6 1t6 -1t5 -4l93 -92l93 92q2 3 5 4t6 1t6 -1t5 -4q2 -2 3.5 -5t1.5 -6t-1.5 -6t-3.5 -5v0z" />
    <glyph glyph-name="uniE045" unicode="&#xe045;" 
d="M272 448q-50 0 -93.5 -19t-76 -51.5t-51.5 -76t-19 -93.5t19 -93.5t51.5 -76t76 -51.5t93.5 -19t93.5 19t76 51.5t51.5 76t19 93.5t-19 93.5t-51.5 76t-76 51.5t-93.5 19v0zM323 115q3 -2 4 -5t1 -6t-1 -6t-4 -5q-2 -2 -5 -3.5t-6 -1.5t-6 1.5t-5 3.5l-104 104l-2 2
t-1.5 2.5l-1 3t-0.5 3.5t0.5 3.5l1 3t1.5 2.5l2 2l104 104q2 2 5 3.5t6 1.5t6 -1.5t5 -3.5q3 -2 4 -5t1 -6t-1 -6t-4 -5l-92 -93l92 -93v0z" />
    <glyph glyph-name="uniE046" unicode="&#xe046;" 
d="M272 448q-50 0 -93.5 -19t-76 -51.5t-51.5 -76t-19 -93.5t19 -93.5t51.5 -76t76 -51.5t93.5 -19t93.5 19t76 51.5t51.5 76t19 93.5t-19 93.5t-51.5 76t-76 51.5t-93.5 19v0zM347 197l-104 -104q-2 -2 -5 -3.5t-6 -1.5t-6 1.5t-5 3.5q-3 2 -4 5t-1 6t1 6t4 5l92 93l-92 93
q-3 2 -4 5t-1 6t1 6t4 5q2 2 5 3.5t6 1.5t6 -1.5t5 -3.5l104 -104q1 -1 2 -2.5t1.5 -2.5t1 -2.5t0.5 -3.5t-0.5 -3.5l-1 -3t-1.5 -2.5l-2 -2v0z" />
    <glyph glyph-name="uniE047" unicode="&#xe047;" 
d="M272 448q-50 0 -93.5 -19t-76 -51.5t-51.5 -76t-19 -93.5t19 -93.5t51.5 -76t76 -51.5t93.5 -19t93.5 19t76 51.5t51.5 76t19 93.5t-19 93.5t-51.5 76t-76 51.5t-93.5 19v0zM391 99q-2 -2 -5 -3.5t-6 -1.5t-6 1.5t-6 3.5l-95 85l-96 -85q-3 -2 -6 -3.5t-6 -1.5t-6 1.5
t-5 3.5t-3.5 5t-1.5 6.5t1.5 6t3.5 5.5l107 95q1 1 2.5 1.5t3 1.5t3 1h3.5h2.5t3 -0.5t3 -1.5t2.5 -2l107 -95q3 -3 4 -5.5t1 -6t-1 -6.5t-4 -5v0zM391 214q-2 -3 -5 -4t-6 -1t-6 1t-6 4l-95 85l-96 -85q-3 -3 -6 -4t-6 -1t-6 1t-5 4q-2 2 -3.5 5t-1.5 6t1.5 6t3.5 6l107 94
q1 1 2.5 2t3 1.5l3 1t3.5 0.5q1 0 2.5 -0.5l3 -1t3 -1.5t2.5 -2l107 -94q3 -3 4 -6t1 -6t-1 -6t-4 -5v0z" />
    <glyph glyph-name="uniE048" unicode="&#xe048;" 
d="M273 446q-49 0 -92.5 -19t-76 -51.5t-51.5 -76t-19 -92.5q0 -50 19 -93.5t51.5 -75.5t76 -51t92.5 -19q50 0 93.5 19t75.5 51t51 75.5t19 93.5q0 49 -19 92.5t-51 76t-75.5 51.5t-93.5 19v0zM390 179l-107 -94q-1 -1 -2.5 -2t-3 -1.5l-3 -1t-3.5 -0.5q-1 0 -2.5 0.5l-3 1
t-3 1.5t-2.5 2l-107 94q-3 3 -4 6t-1 6t1 6t4 5q2 2 5 3.5t6 1.5t6 -1.5t6 -3.5l95 -85l96 85q3 2 6 3.5t6 1.5t6 -1.5t5 -3.5t3.5 -5t1.5 -6t-1.5 -6t-3.5 -6v0zM390 294l-107 -95q-1 -1 -2.5 -2t-3 -1.5t-3 -0.5h-3.5h-2.5t-3 0.5t-3 1.5t-2.5 2l-107 95q-3 2 -4 5t-1 6.5
t1 6.5t4 5q2 2 5 3.5t6 1.5t6 -1.5t6 -3.5l95 -85l96 85q3 2 6 3.5t6 1.5t6 -1.5t5 -3.5t3.5 -5t1.5 -6.5t-1.5 -6t-3.5 -5.5v0z" />
    <glyph glyph-name="uniE049" unicode="&#xe049;" 
d="M273 446q-49 0 -92.5 -19t-76 -51.5t-51.5 -76t-19 -92.5q0 -50 19 -93.5t51.5 -75.5t76 -51t92.5 -19q50 0 93.5 19t75.5 51t51 75.5t19 93.5q0 49 -19 92.5t-51 76t-75.5 51.5t-93.5 19v0zM266 90q-2 -2 -5 -3.5t-6 -1.5t-6 1.5t-6 3.5l-94 107q-1 1 -2 2.5t-1.5 3
l-1 3t-0.5 3.5q0 1 0.5 2.5l1 3t1.5 3t2 2.5l94 107q3 3 6 4t6 1t6 -1t5 -4q2 -2 3.5 -5t1.5 -6t-1.5 -6t-3.5 -6l-85 -95l85 -96q3 -3 4 -6t1 -6t-1 -6t-4 -5v0zM381 113q2 -3 3.5 -6t1.5 -6t-1.5 -6t-3.5 -5t-5 -3.5t-6.5 -1.5t-6 1.5t-5.5 3.5l-95 107q-1 1 -2 2.5
t-1.5 3t-0.5 3v3.5v2.5t0.5 3t1.5 3t2 2.5l95 107q2 3 5 4t6.5 1t6.5 -1t5 -4q2 -2 3.5 -5t1.5 -6t-1.5 -6t-3.5 -6l-85 -95l85 -96v0z" />
    <glyph glyph-name="uniE04A" unicode="&#xe04a;" 
d="M273 446q-49 0 -92.5 -19t-76 -51.5t-51.5 -76t-19 -92.5q0 -50 19 -93.5t51.5 -75.5t76 -51t92.5 -19q50 0 93.5 19t75.5 51t51 75.5t19 93.5q0 49 -19 92.5t-51 76t-75.5 51.5t-93.5 19v0zM163 89q-2 2 -3.5 5t-1.5 6t1.5 6t3.5 6l85 95l-85 96q-2 3 -3.5 6t-1.5 6
t1.5 6t3.5 5t5 3.5t6.5 1.5t6 -1.5t5.5 -3.5l95 -107q1 -1 1.5 -2.5t1.5 -3t1 -3v-3.5v-2.5t-0.5 -3t-1.5 -3t-2 -2.5l-95 -107q-3 -3 -5.5 -4t-6 -1t-6.5 1t-5 4v0zM395 196l-94 -107q-3 -3 -6 -4t-6 -1t-6 1t-5 4q-2 2 -3.5 5t-1.5 6t1.5 6t3.5 6l85 95l-85 96
q-2 3 -3.5 6t-1.5 6t1.5 6t3.5 5t5 3.5t6 1.5t6 -1.5t6 -3.5l94 -107q1 -1 2 -2.5t1.5 -3l1 -3t0.5 -3.5q0 -1 -0.5 -2.5l-1 -3t-1.5 -3t-2 -2.5v0z" />
    <glyph glyph-name="uniE04B" unicode="&#xe04b;" 
d="M272 448q-50 0 -93.5 -19t-76 -51.5t-51.5 -76t-19 -93.5t19 -93.5t51.5 -76t76 -51.5t93.5 -19t93.5 19t76 51.5t51.5 76t19 93.5t-19 93.5t-51.5 76t-76 51.5t-93.5 19v0zM380 166v0q-1 -2 -2.5 -3t-2.5 -1.5t-2.5 -1t-3.5 -0.5h-195q-2 0 -3 0.5t-2.5 1t-2.5 1.5l-2 2
v0v0.5v0.5v0q-2 2 -3 5.5t-1 7t1 6.5t3 6l98 123v0v0.5v0.5v0q2 2 4.5 3.5t5 1.5t5.5 -1.5t5 -3.5l98 -124q2 -3 3 -6t1 -6.5t-1 -7t-3 -5.5v0z" />
    <glyph glyph-name="uniE04C" unicode="&#xe04c;" 
d="M272 448q-50 0 -93.5 -19t-76 -51.5t-51.5 -76t-19 -93.5t19 -93.5t51.5 -76t76 -51.5t93.5 -19t93.5 19t76 51.5t51.5 76t19 93.5t-19 93.5t-51.5 76t-76 51.5t-93.5 19v0zM380 225l-98 -123v0v-0.5v-0.5h-1q-2 -2 -4.5 -3.5t-5 -1.5t-5 1.5t-4.5 3.5l-98 124q-2 3 -3 6
t-1 6.5t1 7t3 5.5v0q1 2 2 3t2.5 1.5t2.5 1t3 0.5h195q2 0 3.5 -0.5t2.5 -1t2 -1.5l2 -2v0h0.5t0.5 -0.5v-0.5q2 -2 3 -5.5t1 -7t-1 -6.5t-3 -6v0z" />
    <glyph glyph-name="uniE04D" unicode="&#xe04d;" 
d="M272 448q-50 0 -93.5 -19t-76 -51.5t-51.5 -76t-19 -93.5t19 -93.5t51.5 -76t76 -51.5t93.5 -19t93.5 19t76 51.5t51.5 76t19 93.5t-19 93.5t-51.5 76t-76 51.5t-93.5 19v0zM320 111q0 -2 -0.5 -3.5t-1 -2.5t-1.5 -2l-2 -2v0v-0.5t-0.5 -0.5h-0.5q-2 -2 -5.5 -3t-7 -1
t-6.5 1t-6 3l-123 98v0h-0.5h-0.5v0q-2 3 -3.5 5.5t-1.5 5t1.5 5t3.5 4.5l124 98q3 2 6 3t6.5 1t7 -1t5.5 -3v0q2 -1 3 -2t1.5 -2.5t1 -2.5t0.5 -3v-195v0z" />
    <glyph glyph-name="uniE04E" unicode="&#xe04e;" 
d="M272 448q-50 0 -93.5 -19t-76 -51.5t-51.5 -76t-19 -93.5t19 -93.5t51.5 -76t76 -51.5t93.5 -19t93.5 19t76 51.5t51.5 76t19 93.5t-19 93.5t-51.5 76t-76 51.5t-93.5 19v0zM379 198l-124 -98q-3 -2 -6 -3t-6.5 -1t-7 1t-5.5 3v0q-2 1 -3 2.5t-1.5 2.5t-1 2.5t-0.5 3.5
v195q0 2 0.5 3t1 2.5t1.5 2.5l2 2v0h0.5h0.5v0q2 2 5.5 3t7 1t6.5 -1t6 -3l123 -98v0h0.5h0.5v0q2 -2 3.5 -4.5t1.5 -5t-1.5 -5.5t-3.5 -5v0z" />
    <glyph glyph-name="uniE04F" unicode="&#xe04f;" 
d="M272 448q-50 0 -93.5 -19t-76 -51.5t-51.5 -76t-19 -93.5t19 -93.5t51.5 -76t76 -51.5t93.5 -19t93.5 19t76 51.5t51.5 76t19 93.5t-19 93.5t-51.5 76t-76 51.5t-93.5 19v0zM400 192h-256q-3 0 -6 1.5t-5 3.5t-3.5 5t-1.5 6t1.5 6t3.5 5t5 3.5t6 1.5h256q3 0 6 -1.5
t5 -3.5t3.5 -5t1.5 -6t-1.5 -6t-3.5 -5t-5 -3.5t-6 -1.5v0z" />
    <glyph glyph-name="uniE050" unicode="&#xe050;" 
d="M272 448q-50 0 -93.5 -19t-76 -51.5t-51.5 -76t-19 -93.5t19 -93.5t51.5 -76t76 -51.5t93.5 -19t93.5 19t76 51.5t51.5 76t19 93.5t-19 93.5t-51.5 76t-76 51.5t-93.5 19v0zM400 192h-112v-112q0 -3 -1.5 -6t-3.5 -5t-5 -3.5t-6 -1.5t-6 1.5t-5 3.5t-3.5 5t-1.5 6v112
h-112q-3 0 -6 1.5t-5 3.5t-3.5 5t-1.5 6t1.5 6t3.5 5t5 3.5t6 1.5h112v112q0 3 1.5 6t3.5 5t5 3.5t6 1.5t6 -1.5t5 -3.5t3.5 -5t1.5 -6v-112h112q3 0 6 -1.5t5 -3.5t3.5 -5t1.5 -6t-1.5 -6t-3.5 -5t-5 -3.5t-6 -1.5v0z" />
    <glyph glyph-name="uniE051" unicode="&#xe051;" 
d="M272 448q-50 0 -93.5 -19t-76 -51.5t-51.5 -76t-19 -93.5t19 -93.5t51.5 -76t76 -51.5t93.5 -19t93.5 19t76 51.5t51.5 76t19 93.5t-19 93.5t-51.5 76t-76 51.5t-93.5 19v0zM383 297l-89 -90l79 -88q2 -2 3.5 -5t1.5 -6t-1.5 -6t-3.5 -5q-2 -3 -5 -4t-6 -1t-6 1t-6 4
l-79 88l-88 -88q-2 -3 -5 -4t-6 -1t-6 1t-5 4q-3 2 -4 5t-1 6t1 6t4 5l89 90l-79 88q-2 2 -3.5 5t-1.5 6t1.5 6t3.5 5q2 3 5 4t6 1t6 -1t6 -4l79 -88l88 88q2 3 5 4t6 1t6 -1t5 -4q3 -2 4 -5t1 -6t-1 -6t-4 -5v0z" />
    <glyph glyph-name="uniE052" unicode="&#xe052;" 
d="M257 480q-53 0 -99.5 -20t-81 -55t-55 -81.5t-20.5 -99.5t20.5 -99.5t55 -81.5t81 -55t99.5 -20t100 20t81.5 55t54.5 81.5t20 99.5t-20 99.5t-54.5 81.5t-81.5 55t-100 20v0zM376 295l-123 -188v0v0v0v0v-0.5t-0.5 -1l-0.5 -0.5l-1 -1l-0.5 -0.5t-1 -0.5t-1 -0.5
l-0.5 -0.5l-1 -1v0v0v0q-1 -1 -2 -1t-1.5 -0.5t-1.5 -1t-2 -0.5v0h-0.5h-1h-0.5h-1.5h-1h-1.5h-1h-1.5h-1h-1h-0.5l-0.5 0.5t-1 0.5h-1t-1.5 1h-0.5h-1t-0.5 0.5t-1 0.5v0.5t-0.5 0.5h-0.5v1h-1v0v0v0l-72 66q-3 3 -5 7t-2 8.5t1.5 8.5t4.5 8q3 3 7 5t8.5 2t8.5 -1.5t8 -4.5
l51 -48l108 165q3 4 6.5 6.5t8 3.5t9 0t7.5 -3q4 -3 6.5 -6.5t3.5 -8t0 -8.5t-3 -8v0z" />
    <glyph glyph-name="uniE053" unicode="&#xe053;" 
d="M304 480q-43 0 -81 -16.5t-66 -44.5t-44.5 -66t-16.5 -81q0 -19 3 -36.5t9 -34t14.5 -31.5t19.5 -28l-135 -136q-4 -3 -5.5 -7t-1.5 -8.5t1.5 -8.5t5.5 -7q3 -4 7 -5.5t8.5 -1.5t8.5 1.5t7 5.5l136 135q13 -11 28 -19.5t31.5 -14.5t34 -9t36.5 -3q43 0 81 16.5t66 44.5
t44.5 66t16.5 81t-16.5 81t-44.5 66t-66 44.5t-81 16.5v0zM400 256h-192q-3 0 -6 1.5t-5 3.5t-3.5 5t-1.5 6t1.5 6t3.5 5t5 3.5t6 1.5h192q3 0 6 -1.5t5 -3.5t3.5 -5t1.5 -6t-1.5 -6t-3.5 -5t-5 -3.5t-6 -1.5v0z" />
    <glyph glyph-name="uniE054" unicode="&#xe054;" 
d="M304 480q-43 0 -81 -16.5t-66 -44.5t-44.5 -66t-16.5 -81q0 -19 3 -36.5t9 -34t14.5 -31.5t19.5 -28l-135 -136q-4 -3 -5.5 -7t-1.5 -8.5t1.5 -8.5t5.5 -7q3 -4 7 -5.5t8.5 -1.5t8.5 1.5t7 5.5l136 135q13 -11 28 -19.5t31.5 -14.5t34 -9t36.5 -3q43 0 81 16.5t66 44.5
t44.5 66t16.5 81t-16.5 81t-44.5 66t-66 44.5t-81 16.5v0zM400 256h-80v-80q0 -3 -1.5 -6t-3.5 -5t-5 -3.5t-6 -1.5t-6 1.5t-5 3.5t-3.5 5t-1.5 6v80h-80q-3 0 -6 1.5t-5 3.5t-3.5 5t-1.5 6t1.5 6t3.5 5t5 3.5t6 1.5h80v80q0 3 1.5 6t3.5 5t5 3.5t6 1.5t6 -1.5t5 -3.5
t3.5 -5t1.5 -6v-80h80q3 0 6 -1.5t5 -3.5t3.5 -5t1.5 -6t-1.5 -6t-3.5 -5t-5 -3.5t-6 -1.5v0z" />
    <glyph glyph-name="uniE055" unicode="&#xe055;" 
d="M256 480q-53 0 -99.5 -20t-81.5 -55t-55 -81.5t-20 -99.5t20 -99.5t55 -81.5t81.5 -55t99.5 -20t99.5 20t81.5 55t55 81.5t20 99.5t-20 99.5t-55 81.5t-81.5 55t-99.5 20v0zM352 160q0 -7 -2.5 -12.5t-7 -10t-10 -7t-12.5 -2.5h-128q-7 0 -12.5 2.5t-10 7t-7 10
t-2.5 12.5v128q0 7 2.5 12.5t7 10t10 7t12.5 2.5h128q7 0 12.5 -2.5t10 -7t7 -10t2.5 -12.5v-128v0z" />
    <glyph glyph-name="uniE056" unicode="&#xe056;" 
d="M480 448h-416q-7 0 -12.5 -2.5t-10 -7t-7 -10t-2.5 -12.5v-416q0 -7 2.5 -12.5t7 -10t10 -7t12.5 -2.5h416q7 0 12.5 2.5t10 7t7 10t2.5 12.5v416q0 7 -2.5 12.5t-7 10t-10 7t-12.5 2.5v0zM400 96h-256q-3 0 -6 1.5t-5 3.5t-3.5 5t-1.5 6t1.5 6t3.5 5t5 3.5t6 1.5h256
q3 0 6 -1.5t5 -3.5t3.5 -5t1.5 -6t-1.5 -6t-3.5 -5t-5 -3.5t-6 -1.5v0zM400 192h-256q-3 0 -6 1.5t-5 3.5t-3.5 5t-1.5 6t1.5 6t3.5 5t5 3.5t6 1.5h256q3 0 6 -1.5t5 -3.5t3.5 -5t1.5 -6t-1.5 -6t-3.5 -5t-5 -3.5t-6 -1.5v0zM400 288h-256q-3 0 -6 1.5t-5 3.5t-3.5 5t-1.5 6
t1.5 6t3.5 5t5 3.5t6 1.5h256q3 0 6 -1.5t5 -3.5t3.5 -5t1.5 -6t-1.5 -6t-3.5 -5t-5 -3.5t-6 -1.5v0z" />
    <glyph glyph-name="uniE057" unicode="&#xe057;" 
d="M272 448q-50 0 -93.5 -19t-76 -51.5t-51.5 -76t-19 -93.5t19 -93.5t51.5 -76t76 -51.5t93.5 -19t93.5 19t76 51.5t51.5 76t19 93.5t-19 93.5t-51.5 76t-76 51.5t-93.5 19v0zM400 96h-256q-3 0 -6 1.5t-5 3.5t-3.5 5t-1.5 6t1.5 6t3.5 5t5 3.5t6 1.5h256q3 0 6 -1.5
t5 -3.5t3.5 -5t1.5 -6t-1.5 -6t-3.5 -5t-5 -3.5t-6 -1.5v0zM400 192h-256q-3 0 -6 1.5t-5 3.5t-3.5 5t-1.5 6t1.5 6t3.5 5t5 3.5t6 1.5h256q3 0 6 -1.5t5 -3.5t3.5 -5t1.5 -6t-1.5 -6t-3.5 -5t-5 -3.5t-6 -1.5v0zM400 288h-256q-3 0 -6 1.5t-5 3.5t-3.5 5t-1.5 6t1.5 6
t3.5 5t5 3.5t6 1.5h256q3 0 6 -1.5t5 -3.5t3.5 -5t1.5 -6t-1.5 -6t-3.5 -5t-5 -3.5t-6 -1.5v0z" />
    <glyph glyph-name="uniE058" unicode="&#xe058;" 
d="M64 -32h385q7 0 13 2.5t10 7t6.5 10t2.5 12.5v448q0 7 -2.5 12.5t-6.5 10t-10 7t-13 2.5h-385q-7 0 -12.5 -2.5t-10 -7t-7 -10t-2.5 -12.5v-448q0 -7 2.5 -12.5t7 -10t10 -7t12.5 -2.5v0zM240 384h129q4 0 6.5 -1.5t5 -3.5t3.5 -5t1 -6t-1 -6t-3.5 -5t-5 -3.5t-6.5 -1.5
h-129q-3 0 -6 1.5t-5 3.5t-3.5 5t-1.5 6t1.5 6t3.5 5t5 3.5t6 1.5v0zM144 288h225q4 0 6.5 -1.5t5 -3.5t3.5 -5t1 -6t-1 -6t-3.5 -5t-5 -3.5t-6.5 -1.5h-225q-3 0 -6 1.5t-5 3.5t-3.5 5t-1.5 6t1.5 6t3.5 5t5 3.5t6 1.5v0zM144 192h225q4 0 6.5 -1.5t5 -3.5t3.5 -5t1 -6
t-1 -6t-3.5 -5t-5 -3.5t-6.5 -1.5h-225q-3 0 -6 1.5t-5 3.5t-3.5 5t-1.5 6t1.5 6t3.5 5t5 3.5t6 1.5v0zM144 96h225q4 0 6.5 -1.5t5 -3.5t3.5 -5t1 -6t-1 -6t-3.5 -5t-5 -3.5t-6.5 -1.5h-225q-3 0 -6 1.5t-5 3.5t-3.5 5t-1.5 6t1.5 6t3.5 5t5 3.5t6 1.5v0z" />
    <glyph glyph-name="uniE059" unicode="&#xe059;" 
d="M64 32h32v-32q0 -7 2.5 -12.5t7 -10t10 -7t12.5 -2.5h320q7 0 12.5 2.5t10 7t7 10t2.5 12.5v384q0 7 -2.5 12.5t-7 10t-10 7t-12.5 2.5h-32v32q0 7 -2.5 12.5t-7 10t-10 7t-12.5 2.5h-320q-7 0 -12.5 -2.5t-10 -7t-7 -10t-2.5 -12.5v-384q0 -7 2.5 -12.5t7 -10t10 -7
t12.5 -2.5v0zM448 384v-384h-320v32h256q7 0 12.5 2.5t10 7t7 10t2.5 12.5v320h32v0zM336 416q3 0 6 -1.5t5 -3.5t3.5 -5t1.5 -6t-1.5 -6t-3.5 -5t-5 -3.5t-6 -1.5h-129q-4 0 -6.5 1.5t-5 3.5t-3.5 5t-1 6t1 6t3.5 5t5 3.5t6.5 1.5h129v0zM111 320h225q3 0 6 -1.5t5 -3.5
t3.5 -5t1.5 -6t-1.5 -6t-3.5 -5t-5 -3.5t-6 -1.5h-225q-4 0 -6.5 1.5t-5 3.5t-3.5 5t-1 6t1 6t3.5 5t5 3.5t6.5 1.5v0zM111 224h225q3 0 6 -1.5t5 -3.5t3.5 -5t1.5 -6t-1.5 -6t-3.5 -5t-5 -3.5t-6 -1.5h-225q-4 0 -6.5 1.5t-5 3.5t-3.5 5t-1 6t1 6t3.5 5t5 3.5t6.5 1.5v0z
M111 128h225q3 0 6 -1.5t5 -3.5t3.5 -5t1.5 -6t-1.5 -6t-3.5 -5t-5 -3.5t-6 -1.5h-225q-4 0 -6.5 1.5t-5 3.5t-3.5 5t-1 6t1 6t3.5 5t5 3.5t6.5 1.5v0z" />
    <glyph glyph-name="uniE05A" unicode="&#xe05a;" 
d="M480 480h-448q-7 0 -12.5 -2.5t-10 -7t-7 -10t-2.5 -12.5v-448q0 -7 2.5 -12.5t7 -10t10 -7t12.5 -2.5h448q7 0 12.5 2.5t10 7t7 10t2.5 12.5v448q0 7 -2.5 12.5t-7 10t-10 7t-12.5 2.5v0zM89 333q-6 6 -9 13.5t-3 15.5t3 15.5t9 13.5t13.5 9t15.5 3t15.5 -3t13.5 -9
l42 -43l-57 -57l-43 42v0zM330 93l-165 164l58 58l164 -165l29 -86l-86 29v0z" />
    <glyph glyph-name="uniE05B" unicode="&#xe05b;" 
d="M480 448h-160q-7 0 -12.5 -2.5t-10 -7t-7 -10t-2.5 -12.5l-1 -4.5t-4.5 -10.5t-10 -11t-16.5 -6h-224q-7 0 -12.5 -2.5t-10 -6.5t-7 -10t-2.5 -12v-289q0 -7 2.5 -12.5t7 -10t10 -7t12.5 -2.5h448q7 0 12.5 2.5t10 7t7 10t2.5 12.5v352q0 7 -2.5 12.5t-7 10t-10 7
t-12.5 2.5v0z" />
    <glyph glyph-name="uniE05C" unicode="&#xe05c;" 
d="M480 448h-160q-7 0 -12.5 -2.5t-10 -7t-7 -10t-2.5 -12.5l-1 -4.5t-4.5 -10.5t-10 -11t-16.5 -6h-224q-7 0 -12.5 -2.5t-10 -6.5t-7 -10t-2.5 -12v-33h512v96q0 7 -2.5 12.5t-7 10t-10 7t-12.5 2.5v0zM0 32q0 -7 2.5 -12.5t7 -10t10 -7t12.5 -2.5h448q7 0 12.5 2.5t10 7
t7 10t2.5 12.5v256h-512v-256v0z" />
    <glyph glyph-name="uniE05D" unicode="&#xe05d;" 
d="M448 416h-128q-7 0 -12.5 -2.5t-10 -7t-7 -10t-2.5 -12.5l-1 -4.5t-4.5 -10.5t-10 -11t-16.5 -6h-224q-7 0 -12.5 -2.5t-10 -7t-7 -10t-2.5 -12.5v-288q0 -7 2.5 -12.5t7 -10t10 -7t12.5 -2.5h416q7 0 12.5 2.5t10 7t7 10t2.5 12.5v352q0 7 -2.5 12.5t-7 10t-10 7
t-12.5 2.5v0zM336 160h-80v-80q0 -3 -1.5 -6t-3.5 -5t-5 -3.5t-6 -1.5t-6 1.5t-5 3.5t-3.5 5t-1.5 6v80h-80q-3 0 -6 1.5t-5 3.5t-3.5 5t-1.5 6t1.5 6t3.5 5t5 3.5t6 1.5h80v80q0 3 1.5 6t3.5 5t5 3.5t6 1.5t6 -1.5t5 -3.5t3.5 -5t1.5 -6v-80h80q3 0 6 -1.5t5 -3.5t3.5 -5
t1.5 -6t-1.5 -6t-3.5 -5t-5 -3.5t-6 -1.5v0z" />
    <glyph glyph-name="uniE05E" unicode="&#xe05e;" 
d="M480 416h-160q-7 0 -12.5 -2.5t-10 -7t-7 -10t-2.5 -12.5l-1 -4.5t-4.5 -10.5t-10 -11t-16.5 -6h-224q-7 0 -12.5 -2.5t-10 -6.5t-7 -10t-2.5 -12v-289q0 -7 2.5 -12.5t7 -10t10 -7t12.5 -2.5h192v160h-68l100 128l100 -128h-68v-160h192q7 0 12.5 2.5t10 7t7 10
t2.5 12.5v352q0 7 -2.5 12.5t-7 10t-10 7t-12.5 2.5v0z" />
    <glyph glyph-name="uniE05F" unicode="&#xe05f;" 
d="M480 416h-160q-7 0 -12.5 -2.5t-10 -7t-7 -10t-2.5 -12.5l-1 -4.5t-4.5 -10.5t-10 -11t-16.5 -6h-224q-7 0 -12.5 -2.5t-10 -6.5t-7 -10t-2.5 -12v-289q0 -7 2.5 -12.5t7 -10t10 -7t12.5 -2.5h448q7 0 12.5 2.5t10 7t7 10t2.5 12.5v352q0 7 -2.5 12.5t-7 10t-10 7
t-12.5 2.5v0zM256 0l-100 128h68v128q0 7 2.5 12.5t7 10t10 7t12.5 2.5t12.5 -2.5t10 -7t7 -10t2.5 -12.5v-128h68l-100 -128v0z" />
    <glyph glyph-name="uniE060" unicode="&#xe060;" 
d="M256 480q-53 0 -99.5 -20t-81.5 -55t-55 -81.5t-20 -99.5t20 -99.5t55 -81.5t81.5 -55t99.5 -20t99.5 20t81.5 55t55 81.5t20 99.5t-20 99.5t-55 81.5t-81.5 55t-99.5 20v0zM224 256q0 7 2.5 12.5t7 10t10 7t12.5 2.5t12.5 -2.5t10 -7t7 -10t2.5 -12.5v-160
q0 -7 -2.5 -12.5t-7 -10t-10 -7t-12.5 -2.5t-12.5 2.5t-10 7t-7 10t-2.5 12.5v160v0zM256 319q-7 0 -12.5 3t-10 7t-7 10t-2.5 12q0 7 2.5 13t7 10t10 6.5t12.5 2.5t12.5 -2.5t10 -6.5t7 -10t2.5 -13q0 -6 -2.5 -12t-7 -10t-10 -7t-12.5 -3v0z" />
    <glyph glyph-name="uniE061" unicode="&#xe061;" 
d="M256 -32q53 0 99.5 20t81.5 55t55 81.5t20 99.5t-20 99.5t-55 81.5t-81.5 55t-99.5 20t-99.5 -20t-81.5 -55t-55 -81.5t-20 -99.5t20 -99.5t55 -81.5t81.5 -55t99.5 -20v0zM288 192q0 -7 -2.5 -12.5t-7 -10t-10 -7t-12.5 -2.5t-12.5 2.5t-10 7t-7 10t-2.5 12.5v160
q0 7 2.5 12.5t7 10t10 7t12.5 2.5t12.5 -2.5t10 -7t7 -10t2.5 -12.5v-160v0zM256 129q7 0 12.5 -3t10 -7t7 -10t2.5 -12q0 -7 -2.5 -13t-7 -10t-10 -6.5t-12.5 -2.5t-12.5 2.5t-10 6.5t-7 10t-2.5 13q0 6 2.5 12t7 10t10 7t12.5 3v0z" />
    <glyph glyph-name="uniE062" unicode="&#xe062;" 
d="M371 471q-2 2 -4.5 3.5t-5.5 3t-6 2t-6 0.5h-186q-3 0 -6 -0.5t-6 -2t-5.5 -3t-4.5 -3.5l-132 -132q-2 -2 -3.5 -4.5t-3 -5.5t-2 -6t-0.5 -6v-186q0 -3 0.5 -6t2 -6t3 -5.5t3.5 -4.5l132 -132q2 -2 4.5 -3.5t5.5 -3t6 -2t6 -0.5h186q3 0 6 0.5t6 2t5.5 3t4.5 3.5l132 132
q2 2 3.5 4.5t3 5.5t2 6t0.5 6v186q0 3 -0.5 6t-2 6t-3 5.5t-3.5 4.5l-132 132v0zM256 160q-7 0 -12.5 2.5t-10 7t-7 10t-2.5 12.5v192q0 7 2.5 12.5t7 10t10 7t12.5 2.5t12.5 -2.5t10 -7t7 -10t2.5 -12.5v-192q0 -7 -2.5 -12.5t-7 -10t-10 -7t-12.5 -2.5v0zM288 64
q0 -7 -2.5 -12.5t-7 -10t-10 -7t-12.5 -2.5t-12.5 2.5t-10 7t-7 10t-2.5 12.5t2.5 12.5t7 10t10 7t12.5 2.5t12.5 -2.5t10 -7t7 -10t2.5 -12.5v0z" />
    <glyph glyph-name="uniE063" unicode="&#xe063;" 
d="M33 0h445q4 0 8 1t7.5 3t6.5 5t5 7q3 3 4 7t1 8t-1 8t-3 8l-222 416q-2 4 -5 7t-6.5 5.5t-8 3.5t-8.5 1v0q-4 0 -8.5 -1t-8 -3.5t-6.5 -5.5t-5 -7l-223 -416q-2 -4 -3 -8t-1 -8t1 -8t4 -7q2 -4 5 -7t6.5 -5t7.5 -3t8 -1v0zM256 128q7 0 12.5 -2.5t10 -7t7 -10t2.5 -12.5
t-2.5 -12.5t-7 -10t-10 -7t-12.5 -2.5t-12.5 2.5t-10 7t-7 10t-2.5 12.5t2.5 12.5t7 10t10 7t12.5 2.5v0zM224 191v128q0 7 2.5 13t7 10t10 6.5t12.5 2.5t12.5 -2.5t10 -6.5t7 -10t2.5 -13v-128q0 -6 -2.5 -12t-7 -10t-10 -7t-12.5 -3t-12.5 3t-10 7t-7 10t-2.5 12v0z" />
    <glyph glyph-name="uniE064" unicode="&#xe064;" 
d="M256 -32q53 0 99.5 20t81.5 55t55 81.5t20 99.5t-20 99.5t-55 81.5t-81.5 55t-99.5 20t-99.5 -20t-81.5 -55t-55 -81.5t-20 -99.5t20 -99.5t55 -81.5t81.5 -55t99.5 -20v0zM256 416q24 0 47 -7t41 -21.5t29 -36.5t11 -53q0 -18 -4.5 -33.5t-13 -29.5t-21.5 -25.5
t-31 -21.5q-5 -3 -9.5 -7t-8.5 -8t-6 -7.5t-2 -5.5q0 -7 -2.5 -12.5t-7 -10t-10 -7t-12.5 -2.5t-12.5 2.5t-10 7t-7 10t-2.5 12.5q0 15 6 28.5t15 24.5t19.5 18.5t18.5 12.5q12 7 19.5 14t11.5 13.5t5 13.5t1 13q0 18 -6.5 28.5t-16.5 16t-21 7.5t-20 2q-12 0 -23 -4
t-20.5 -12t-15 -20t-5.5 -29q0 -6 -2.5 -12t-7 -10.5t-10 -7t-12.5 -2.5t-12.5 2.5t-10 7t-7 10.5t-2.5 12q0 32 11.5 56t29.5 40t41 24.5t46 8.5v0zM256 31q-7 0 -13 2.5t-10.5 7t-7 10.5t-2.5 13q0 6 2.5 12t7 10.5t10.5 7.5t13 3t13 -3t10.5 -7.5t7 -10.5t2.5 -12
q0 -7 -2.5 -13t-7 -10.5t-10.5 -7t-13 -2.5v0z" />
    <glyph glyph-name="uniE065" unicode="&#xe065;" 
d="M81 88q-4 -9 -8.5 -19.5t-11.5 -21.5t-14.5 -23t-18.5 -24q20 0 41 1.5t43.5 5.5t43.5 11.5t41 19.5q6 -2 13.5 -3t14.5 -1.5t15 -1t15 -0.5q54 0 100 16.5t81.5 44.5t55 66t20.5 81q-1 43 -20.5 81t-55 66t-81.5 44.5t-100 16.5q-52 0 -99 -16.5t-81.5 -44.5t-55 -66
t-19.5 -81q-1 -22 5 -43.5t16 -40.5t26 -36t33 -32h1z" />
    <glyph glyph-name="uniE066" unicode="&#xe066;" 
d="M447 291q1 -5 1.5 -9.5t1 -10t1 -10t0.5 -10.5q0 -37 -15.5 -72.5t-43 -62.5t-64.5 -46.5t-80 -25.5q9 -4 18.5 -6.5t20 -5t21 -3t21.5 -1.5q10 1 20 1.5t19.5 2.5l19 4t18.5 7q11 -5 22.5 -7l23 -4t22 -2t20.5 -1q-5 7 -9.5 13t-8 12t-6.5 11.5t-6 11.5q11 9 20 21
t15 24.5t9.5 26.5t3.5 28q0 18 -4.5 33.5t-13 30.5t-20.5 27t-27 23v0zM403 251q0 35 -16 64.5t-43 52t-64 35t-78 13.5q-42 -1 -79 -13.5t-64 -35t-43 -52t-16 -64.5q0 -16 4.5 -33.5t13 -32t20 -28.5t26.5 -24q-3 -8 -6.5 -16t-8.5 -17t-11.5 -18t-14.5 -20q15 1 32 2
t34 4.5t34 9t32 15.5q5 -2 11 -2.5t12 -1.5t11.5 -0.5t12.5 -0.5q41 1 78 13t64 35t43 52t16 64v-1z" />
    <glyph glyph-name="uniE067" unicode="&#xe067;" 
d="M32 92h73q3 -2 25 -21t47.5 -40.5t46.5 -39l21 -17.5q3 -2 5.5 -3l5 -2t5 -1h4.5q5 1 8.5 2.5t6.5 4.5t5 7t3 8v73v161v161v73q-1 4 -3 8t-5 7t-6.5 4.5t-8.5 2.5h-4.5t-5 -1l-5 -2t-5.5 -3l-21 -18t-46.5 -40.5t-47.5 -42t-25 -21.5h-73q-7 0 -12.5 -2.5t-10 -7t-7 -10
t-2.5 -12.5v-196q0 -7 2.5 -12.5t7 -10t10 -7t12.5 -2.5v0zM506 307q-3 3 -6.5 4.5t-7 1.5t-7 -1.5t-6.5 -4.5l-56 -55l-55 55q-3 3 -6.5 4.5t-7 1.5t-7.5 -1.5t-6 -4.5q-3 -3 -4.5 -6.5t-1.5 -7.5t1.5 -7.5t4.5 -6.5l55 -55l-55 -55q-3 -3 -4.5 -6.5t-1.5 -7.5t1.5 -7.5
t4.5 -6.5q2 -3 6 -4.5t7.5 -1.5t7 1.5t6.5 4.5l55 55l56 -55q3 -3 6.5 -4.5t7 -1.5t7 1.5t6.5 4.5t4.5 6.5t1.5 7.5t-1.5 7.5t-4.5 6.5l-55 55l55 55q3 3 4.5 6.5t1.5 7.5t-1.5 7.5t-4.5 6.5v0z" />
    <glyph glyph-name="uniE068" unicode="&#xe068;" 
d="M329 480h-4.5t-5 -1l-5 -2t-5.5 -3l-21 -18t-46.5 -40.5t-47.5 -42t-25 -21.5h-73q-7 0 -12.5 -2.5t-10 -7t-7 -10t-2.5 -12.5v-196q0 -7 2.5 -12.5t7 -10t10 -7t12.5 -2.5h73q3 -2 25 -21t47.5 -40.5t46.5 -39l21 -17.5q3 -2 5.5 -3l5 -2t5 -1h4.5q5 1 8.5 2.5t6.5 4.5
t5 7t3 8v73v161v161v73q-1 4 -3 8t-5 7t-6.5 4.5t-8.5 2.5v0zM401 168q-3 -1 -5 -3.5t-3 -5.5t-0.5 -6t1.5 -6q1 -2 2.5 -4t3.5 -3t4 -1.5t4 -0.5h2h2t2 0.5t2 0.5q12 7 21.5 15.5t16.5 19.5t10.5 24t3.5 26t-3.5 26t-10.5 24t-16.5 19.5t-21.5 15.5q-3 1 -6.5 1t-6 -1
t-5 -3t-4.5 -5q-1 -3 -1.5 -6t0.5 -6t3 -5.5t5 -3.5q8 -4 14.5 -10t11 -13t7 -15.5t2.5 -17.5t-2.5 -17.5t-7 -15.5t-11 -13t-14.5 -10v0z" />
    <glyph glyph-name="uniE069" unicode="&#xe069;" 
d="M32 92h73q3 -2 25 -21t47.5 -40.5t46.5 -39l21 -17.5q3 -2 5.5 -3l5 -2t5 -1h4.5q5 1 8.5 2.5t6.5 4.5t5 7t3 8v73v161v161v73q-1 4 -3 8t-5 7t-6.5 4.5t-8.5 2.5h-4.5t-5 -1l-5 -2t-5.5 -3l-21 -18t-46.5 -40.5t-47.5 -42t-25 -21.5h-73q-7 0 -12.5 -2.5t-10 -7t-7 -10
t-2.5 -12.5v-196q0 -7 2.5 -12.5t7 -10t10 -7t12.5 -2.5v0zM337 168q-3 -1 -5 -3.5t-3 -5.5t-0.5 -6t1.5 -6q1 -2 2.5 -4t3.5 -3t4 -1.5t4 -0.5h2h2t2 0.5t2 0.5q12 7 21.5 15.5t16.5 19.5t10.5 24t3.5 26t-3.5 26t-10.5 24t-16.5 19.5t-21.5 15.5q-3 1 -6.5 1t-6 -1t-5 -3
t-4.5 -5q-1 -3 -1.5 -6t0.5 -6t3 -5.5t5 -3.5q8 -4 14.5 -10t11 -13t7 -15.5t2.5 -17.5t-2.5 -17.5t-7 -15.5t-11 -13t-14.5 -10v0zM315 40q1 -3 2.5 -5t3.5 -4t4.5 -3t5.5 -1h0.5t1 0.5t1 0.5h0.5q35 7 65 25t51.5 44t33.5 58.5t12 68.5t-12 68.5t-33.5 58.5t-51.5 44
t-65 25q-3 1 -6 0.5t-5.5 -2.5t-4.5 -4.5t-3 -5.5q0 -4 0.5 -7t2 -5.5t4.5 -4t6 -2.5q30 -6 54.5 -21t43 -37t28.5 -49.5t10 -57.5t-10 -57.5t-28.5 -49.5t-43 -37t-54.5 -21q-3 -1 -6 -2.5t-4.5 -4t-2 -5.5t-0.5 -7v0z" />
    <glyph glyph-name="uniE06A" unicode="&#xe06a;" 
d="M256 480q-53 0 -99.5 -20t-81.5 -55t-55 -81.5t-20 -99.5t20 -99.5t55 -81.5t81.5 -55t99.5 -20t99.5 20t81.5 55t55 81.5t20 99.5t-20 99.5t-55 81.5t-81.5 55t-99.5 20v0zM384 229q0 -13 -4 -28t-12.5 -31.5t-22.5 -34.5t-37 -36q-1 -1 -2 -1.5l-2 -1t-2.5 -1
t-2.5 -0.5q-2 0 -3.5 0.5t-3 1.5l-3 2t-2.5 3q-2 2 -3 5.5t-0.5 6.5t2 5.5t3.5 4.5q18 15 30 29t19.5 27.5t10.5 25.5t4 22q-2 -2 -5 -3l-6 -2t-6 -1.5t-6 -0.5q-9 0 -18 4t-15 10.5t-10 15.5t-4 19t4 19t10 15.5t15 10.5t18 4h4.5t4.5 -0.5t4 -1.5l4 -2v1v0l1 -0.5l2 -1
t2 -1.5v0v0v0v0h0.5h0.5v0v0l1.5 -1.5t1.5 -1t2 -1.5t2 -1q1 -1 1 -1.5t0.5 -0.5t1 -0.5t0.5 -1.5q5 -4 9 -10.5t7.5 -15.5t5 -21.5t-0.5 -27.5v0zM175 221q-10 0 -18.5 4t-15 10.5t-10 15.5t-3.5 19t3.5 19t10 15.5t15 10.5t18.5 4h4.5t4.5 -0.5t4 -1.5l4 -2l-1 1h0.5
t1.5 -0.5l2 -1t2 -1.5v0v0v0v0v0v0h0.5h0.5q0 -1 1 -1.5l2 -1t2 -1.5t2 -1q0 -1 0.5 -1.5t1 -0.5t1 -0.5t0.5 -1.5q5 -4 9 -10.5t7.5 -15.5t5 -21.5t-0.5 -27.5q0 -13 -4 -28t-12.5 -31.5t-23 -34.5t-36.5 -36q-1 -1 -2 -1.5t-2.5 -1t-2.5 -1t-2 -0.5q-2 0 -3.5 0.5
t-3.5 1.5t-3 2l-3 3t-2.5 5t0 6.5t2 6t3.5 4.5q18 15 30 29t19.5 27.5t10.5 25.5t4 22q-3 -2 -5.5 -3t-5.5 -2t-6 -1.5t-6 -0.5v0z" />
    <glyph glyph-name="uniE06B" unicode="&#xe06b;" 
d="M104 376q-35 -35 -52.5 -79t-17.5 -90t17.5 -90t52.5 -79t79 -52.5t90 -17.5t90 17.5t79 52.5t52.5 79t17.5 90t-17.5 90t-52.5 79t-79 52.5t-90 17.5t-90 -17.5t-79 -52.5v0zM400 192h-127h-0.5h-0.5v0v0q-3 0 -6 1t-5 3.5t-3.5 5.5t-1.5 6v160q0 3 1.5 6t3.5 5t5 3.5
t6 1.5t6 -1.5t5 -3.5t3.5 -5t1.5 -6v-144h112q3 0 6 -1.5t5 -3.5t3.5 -5t1.5 -6t-1.5 -6t-3.5 -5t-5 -3.5t-6 -1.5v0z" />
    <glyph glyph-name="uniE06C" unicode="&#xe06c;" 
d="M256 480q-34 0 -63.5 -13t-51.5 -35t-34.5 -51.5t-12.5 -62.5v-30h-30q-7 0 -12.5 -2.5t-10 -7t-7 -10t-2.5 -12.5v-256q0 -7 2.5 -12.5t7 -10t10 -7t12.5 -2.5h384q7 0 12.5 2.5t10 7t7 10t2.5 12.5v256q0 7 -2.5 12.5t-7 10t-10 7t-12.5 2.5h-30v30q0 33 -12.5 62.5
t-34.5 51.5t-51.5 35t-63.5 13v0zM158 318q0 20 7.5 38t21 31.5t31.5 21t38 7.5t38 -7.5t31.5 -21t21 -31.5t7.5 -38v-30h-196v30v0zM256 64q-13 0 -25 5t-20.5 13.5t-13.5 20.5t-5 25t5 25t13.5 20.5t20.5 13.5t25 5t25 -5t20.5 -13.5t13.5 -20.5t5 -25t-5 -25t-13.5 -20.5
t-20.5 -13.5t-25 -5v0z" />
    <glyph glyph-name="uniE06D" unicode="&#xe06d;" 
d="M448 288h-290v30q0 20 7.5 38t21 31.5t31.5 21t38 7.5q13 0 25.5 -3.5t23.5 -10t20 -15t15 -19.5v0h0.5h0.5v1q2 -4 4.5 -6.5t6 -4l7 -3t8.5 -1.5q6 0 12 3t10 7t7 10t3 12q0 2 -0.5 3.5t-0.5 3t-0.5 3t-1.5 3.5v0v0v0v0l-1.5 3t-1.5 2t-1.5 2t-1.5 2q-11 16 -25.5 29.5
t-31.5 23t-36.5 14.5t-40.5 5q-34 0 -63.5 -13t-51.5 -35t-34.5 -51.5t-12.5 -62.5v-30h-30q-7 0 -12.5 -2.5t-10 -7t-7 -10t-2.5 -12.5v-256q0 -7 2.5 -12.5t7 -10t10 -7t12.5 -2.5h384q7 0 12.5 2.5t10 7t7 10t2.5 12.5v256q0 7 -2.5 12.5t-7 10t-10 7t-12.5 2.5v0z
M256 64q-13 0 -25 5t-20.5 13.5t-13.5 20.5t-5 25t5 25t13.5 20.5t20.5 13.5t25 5t25 -5t20.5 -13.5t13.5 -20.5t5 -25t-5 -25t-13.5 -20.5t-20.5 -13.5t-25 -5v0z" />
    <glyph glyph-name="uniE06E" unicode="&#xe06e;" 
d="M496 480h-64q-1 0 -2.5 -0.5l-3 -1t-2.5 -1l-3 -1.5l-220 -194l-10 2t-10.5 2t-11 1.5t-9.5 0.5q-33 0 -62 -12.5t-51 -34.5t-34.5 -51t-12.5 -62t12.5 -62t34.5 -51t51 -34.5t62 -12.5t62 12.5t51 34.5t34.5 51t12.5 62q0 10 -1 18t-2.5 15.5t-3.5 13.5t-4 11l55 19
q2 1 4 2.5t3.5 3.5t2.5 4.5t1 4.5l-2 61l61 4q4 1 6.5 2t4.5 3t3 5t1 6l3 73l47 10q3 1 5.5 2.5t4 3.5t2.5 4.5t1 5.5v64q0 3 -1.5 6t-3.5 5t-5 3.5t-6 1.5v0zM112 128q7 0 13.5 -2t12.5 -5.5t10.5 -8.5t6.5 -12q2 -2 2.5 -4.5l1 -5l1 -5t0.5 -5.5q0 -10 -4 -18.5t-10.5 -15
t-15 -10.5t-18.5 -4t-18.5 4t-15 10.5t-10.5 15t-4 18.5t4 18.5t10.5 15t15 10.5t18.5 4v0z" />
    <glyph glyph-name="uniE06F" unicode="&#xe06f;" 
d="M416 224h-0.5h-1h-1h-0.5q1 4 1.5 8l1 8t0.5 8v8q0 33 -12.5 62t-34.5 51t-51 34.5t-62 12.5t-62 -12.5t-51 -34.5t-34.5 -51t-12.5 -62v-0.5v-0.5v0v-1q-20 -3 -37.5 -12.5t-30.5 -24t-20.5 -33.5t-7.5 -40t7.5 -40t20.5 -33.5t30.5 -24t37.5 -12.5v-2h320
q20 0 37.5 7.5t30.5 20.5t20.5 30.5t7.5 37.5t-7.5 37.5t-20.5 30.5t-30.5 20.5t-37.5 7.5v0z" />
    <glyph glyph-name="uniE070" unicode="&#xe070;" 
d="M416 224h-0.5h-1h-1h-0.5q1 4 1.5 8l1 8t0.5 8v8q0 33 -12.5 62t-34.5 51t-51 34.5t-62 12.5t-62 -12.5t-51 -34.5t-34.5 -51t-12.5 -62v-0.5v-0.5v0v-1q-20 -3 -37.5 -12.5t-30.5 -24t-20.5 -33.5t-7.5 -40q0 -23 9 -43.5t24 -35.5t35.5 -24t43.5 -9h80q7 0 12.5 2.5
t10 7t7 10t2.5 12.5v96h-68l100 128l100 -128h-68v-96q0 -7 2.5 -12.5t7 -10t10 -7t12.5 -2.5h96q20 0 37.5 7.5t30.5 20.5t20.5 30.5t7.5 37.5t-7.5 37.5t-20.5 30.5t-30.5 20.5t-37.5 7.5v0z" />
    <glyph glyph-name="uniE071" unicode="&#xe071;" 
d="M416 224h-0.5h-1h-1h-0.5q1 4 1.5 8l1 8t0.5 8v8q0 33 -12.5 62t-34.5 51t-51 34.5t-62 12.5t-62 -12.5t-51 -34.5t-34.5 -51t-12.5 -62v-0.5v-0.5v0v-1q-20 -3 -37.5 -12.5t-30.5 -24t-20.5 -33.5t-7.5 -40t7.5 -40t20.5 -33.5t30.5 -24t37.5 -12.5v-2h160l-100 128h68
v128q0 7 2.5 12.5t7 10t10 7t12.5 2.5t12.5 -2.5t10 -7t7 -10t2.5 -12.5v-128h68l-100 -128h160q20 0 37.5 7.5t30.5 20.5t20.5 30.5t7.5 37.5t-7.5 37.5t-20.5 30.5t-30.5 20.5t-37.5 7.5v0z" />
    <glyph glyph-name="uniE072" unicode="&#xe072;" 
d="M435 222q1 2 1.5 4t1.5 4.5t1.5 5t1.5 4.5v1v0.5v1t1 0.5q0 3 0.5 5t1 4.5t1 4.5t0.5 4v1.5v1v1t1 1.5v5t0.5 6t0.5 5.5v5.5q0 40 -15 75t-41.5 61t-61 41t-74.5 15t-75 -15t-61 -41t-41 -61t-15 -75v-5.5v-5.5t0.5 -6t0.5 -5v-1.5t0.5 -1t0.5 -1v-1.5q0 -2 0.5 -4
t1 -4.5t1 -4.5t0.5 -5l0.5 -0.5t0.5 -1v-0.5v-1q1 -2 1.5 -4.5t1.5 -5t1.5 -4.5t1.5 -4v-1v-0.5t0.5 -0.5h0.5q1 -3 2 -5.5t2 -4.5t2 -4.5t2 -4.5v-1v0h0.5h0.5q1 -3 2 -5t2.5 -4.5l3 -5t3.5 -4.5v0v0v0v0q2 -3 3.5 -5l3 -4l3 -4t3.5 -5h0.5h0.5v-0.5v-0.5l3.5 -3.5t3 -3.5
t3.5 -3.5t4 -3.5l0.5 -0.5l1 -1l0.5 -0.5l1 -1l0.5 -0.5l1 -1l1 -1l1.5 -1.5h0.5t1 -0.5t1 -0.5t0.5 -1q1 0 2 -1t2.5 -2t2.5 -2l2 -2t1.5 -1t1 -0.5t0.5 -1t1 -0.5q8 -7 11 -13t5.5 -10.5t6 -7t13.5 -2.5h19h42h47.5h35.5q9 0 13 2.5t6 7t5.5 10.5t11.5 13l0.5 0.5l1 1
t1 0.5t0.5 1q2 1 3 2l2 2t2.5 2t2.5 1q0 1 0.5 1t1 0.5l0.5 0.5h1q0 1 0.5 1.5l1 1l1 1t1.5 0.5q0 1 0.5 1t1 0.5l1 1l0.5 0.5l3.5 3.5l3.5 3.5l3.5 3.5l3.5 3.5v0.5v0.5h0.5h0.5q1 3 3 5t3.5 4l3 4t3.5 5v0v0v0v0q2 2 3 4.5t2.5 5t3 4.5t2.5 5v0v0h0.5t0.5 1q1 2 2 4.5
t2 4.5t2 4.5t2 5.5v0l0.5 0.5l0.5 0.5v1v0zM368 286q-3 0 -6 1.5t-5 3.5t-3.5 5t-1.5 6q0 19 -7.5 34t-19 25.5t-25.5 16.5t-28 6q-3 0 -6 1.5t-5 3.5t-3.5 5t-1.5 6t1.5 6t3.5 5t5 3.5t6 1.5q21 0 41 -7.5t35.5 -22t25.5 -35.5t10 -49q0 -3 -1.5 -6t-3.5 -5t-5 -3.5
t-6 -1.5v0zM253 0h-70l57 -30q2 0 4 -1t3.5 -1.5t3.5 -0.5h4h3.5t3.5 0.5t4 1.5t3 1l59 30h-75v0zM352 48q0 3 -1.5 6t-3.5 5t-5 3.5t-6 1.5h-160q-3 0 -6 -1.5t-5 -3.5t-3.5 -5t-1.5 -6t1.5 -6t3.5 -5t5 -3.5t6 -1.5h160q3 0 6 1.5t5 3.5t3.5 5t1.5 6v0z" />
    <glyph glyph-name="uniE073" unicode="&#xe073;" 
d="M480 352h-191v-96h223v64q0 7 -2.5 12.5t-7 10t-10 7t-12.5 2.5v0zM32 352q-7 0 -12.5 -2.5t-10 -7t-7 -10t-2.5 -12.5v-64h224v96h-192v0zM32 224v-224q0 -7 2.5 -12.5t7 -10t10 -7t12.5 -2.5h160v256h-192v0zM448 -32q7 0 12.5 2.5t10 7t7 10t2.5 12.5v224h-191v-256
h159v0zM256 384v0v0v0v0v0h33h23.5h25h24.5h22q17 0 29 4t19.5 10.5t11.5 15t4 18.5t-4 18.5t-11.5 15t-19.5 10.5t-29 4q-16 0 -29.5 -3t-25.5 -9t-22.5 -13t-18.5 -15q-4 2 -7.5 3.5t-8 3t-8.5 2t-9 0.5q-4 0 -8.5 -0.5t-8.5 -1.5t-7.5 -3t-7.5 -4q-8 8 -18 15.5t-22 13
t-26 8.5t-29 3q-17 0 -29 -4t-19.5 -10.5t-11.5 -15t-4 -18.5t4 -18.5t11.5 -15t19.5 -10.5t29 -4h22.5h25h25h23.5h32v0v0v0v0v0zM416 432q0 -5 -3 -8t-7.5 -5t-10.5 -2.5t-11 -0.5h-73v0.5v0.5v0v0q6 6 13.5 11.5t16.5 10t20 7t23 2.5q5 0 11 -0.5t10.5 -2.5t7.5 -5t3 -8
v0zM96 432q0 5 3 8t7.5 5t10.5 2.5t11 0.5q12 0 22.5 -2.5t19.5 -6.5t16.5 -9.5t13.5 -11.5v0l-0.5 -0.5t-0.5 -1v-0.5h-71q-5 0 -11 0.5t-10.5 2.5t-7.5 5t-3 8v0z" />
    <glyph glyph-name="uniE074" unicode="&#xe074;" 
d="M26 228l230 199l230 -199l2 -2t2.5 -1.5t3 -0.5h2.5q2 0 3.5 0.5l3 1t3 1.5t2.5 3q2 2 3 5t1 6t-1.5 6t-4.5 5l-240 208q-2 2 -4.5 3t-5.5 1t-5.5 -1t-4.5 -3l-86 -74v30q0 7 -2.5 12.5t-7 10t-10 7t-12.5 2.5t-12.5 -2.5t-10 -7t-7 -10t-2.5 -12.5v-85l-90 -79
q-3 -2 -4.5 -5t-1.5 -6t1 -6t3 -5q2 -3 5 -4.5t6 -1.5t6 1t5 3v0zM192 160h128v-160h96q7 0 12.5 2.5t10 7t7 10t2.5 12.5v157q0 3 -1 6.5t-2.5 7t-3.5 6t-5 5.5l-160 131q-2 2 -4.5 3l-5 2t-5 1.5t-5.5 0.5t-5.5 -0.5t-5 -1.5l-5 -2t-4.5 -3l-160 -131q-3 -3 -5 -5.5
t-3.5 -6t-2.5 -7t-1 -6.5v-157q0 -7 2.5 -12.5t7 -10t10 -7t12.5 -2.5h96v160v0z" />
    <glyph glyph-name="uniE075" unicode="&#xe075;" 
d="M480 352h-64l-3 0.5t-8 3.5t-10.5 9.5t-10.5 18.5q-3 6 -5.5 12t-6.5 10.5t-8.5 7t-11.5 2.5h-128q-7 0 -11.5 -2.5t-8.5 -7t-7 -10.5t-5 -12q-5 -12 -10.5 -18.5t-10.5 -9.5t-8 -3.5l-3 -0.5h-32q0 7 -2.5 12.5t-7 10t-10 7t-12.5 2.5h-32q-7 0 -12.5 -2.5t-10 -7
t-7 -10t-2.5 -12.5q-7 0 -12.5 -2.5t-10 -7t-7 -10t-2.5 -12.5v-64h178q8 14 19.5 26t26 20.5t30.5 13t34 4.5t34 -4.5t30.5 -13t26 -20.5t19.5 -26h114v64q0 7 -2.5 12.5t-7 10t-10 7t-12.5 2.5v0zM112 288h-64q-3 0 -6 1.5t-5 3.5t-3.5 5t-1.5 6t1.5 6t3.5 5t5 3.5t6 1.5
h64q3 0 6 -1.5t5 -3.5t3.5 -5t1.5 -6t-1.5 -6t-3.5 -5t-5 -3.5t-6 -1.5v0zM192 192q0 -20 7.5 -37.5t20.5 -30.5t30.5 -20.5t37.5 -7.5t37.5 7.5t30.5 20.5t20.5 30.5t7.5 37.5t-7.5 37.5t-20.5 30.5t-30.5 20.5t-37.5 7.5t-37.5 -7.5t-30.5 -20.5t-20.5 -30.5t-7.5 -37.5v0
zM416 192q0 -27 -10 -50t-27.5 -40.5t-40.5 -27.5t-50 -10t-50 10t-40.5 27.5t-27.5 40.5t-10 50q0 4 0.5 8l1 8t1.5 8l2 8h-165v-160q0 -7 2.5 -12.5t7 -10t10 -7t12.5 -2.5h448q7 0 12.5 2.5t10 7t7 10t2.5 12.5v160h-101l2 -8t1.5 -8l1 -8t0.5 -8v0z" />
    <glyph glyph-name="uniE076" unicode="&#xe076;" 
d="M480 416h-448q-7 0 -12.5 -2.5t-10 -7t-7 -10t-2.5 -12.5v-54l256 -102l256 102v54q0 7 -2.5 12.5t-7 10t-10 7t-12.5 2.5v0zM0 278v-214q0 -7 2.5 -12.5t7 -10t10 -7t12.5 -2.5h448q7 0 12.5 2.5t10 7t7 10t2.5 12.5v214l-256 -102l-256 102v0z" />
    <glyph glyph-name="uniE077" unicode="&#xe077;" 
d="M347 288l-61 171q-2 5 -5 8.5t-7 6.5t-8.5 4.5t-9.5 1.5t-9.5 -1.5t-8.5 -4.5t-7 -6.5t-5 -8.5l-61 -171h182v0zM427 64l-46 128h-250l-46 -128h342zM32 32q-7 0 -12.5 -2.5t-10 -7t-7 -10t-2.5 -12.5t2.5 -12.5t7 -10t10 -7t12.5 -2.5h448q7 0 12.5 2.5t10 7t7 10
t2.5 12.5t-2.5 12.5t-7 10t-10 7t-12.5 2.5h-448v0z" />
    <glyph glyph-name="uniE078" unicode="&#xe078;" 
d="M64 384v-384q0 -5 1.5 -9.5t4 -8.5t6 -7t8.5 -5q1 0 2.5 -0.5l3 -1t3 -0.5h3.5q3 0 6 0.5t6 2t5.5 3t5.5 3.5l137 138l137 -138q3 -2 5.5 -3.5t5.5 -3t6 -2t6 -0.5h3.5t3 0.5l3 1t2.5 0.5q5 2 8.5 5t6 7t4 8.5t1.5 9.5v384h-384v0zM448 416v32q0 7 -2.5 12.5t-7 10t-10 7
t-12.5 2.5h-320q-7 0 -12.5 -2.5t-10 -7t-7 -10t-2.5 -12.5v-32h384v0z" />
    <glyph glyph-name="uniE079" unicode="&#xe079;" 
d="M96 -32h320q7 0 12.5 2.5t10 7t7 10t2.5 12.5v352q0 7 -2.5 12.5t-7 10t-10 7t-12.5 2.5h-64q0 20 -8 37.5t-21 30.5t-30 20.5t-37 7.5t-37 -7.5t-30 -20.5t-21 -30.5t-8 -37.5h-64q-7 0 -12.5 -2.5t-10 -7t-7 -10t-2.5 -12.5v-352q0 -7 2.5 -12.5t7 -10t10 -7t12.5 -2.5
v0zM304 288h-96q-3 0 -6 1.5t-5 3.5t-3.5 5t-1.5 6t1.5 6t3.5 5t5 3.5t6 1.5h96q3 0 6 -1.5t5 -3.5t3.5 -5t1.5 -6t-1.5 -6t-3.5 -5t-5 -3.5t-6 -1.5v0zM256 448q13 0 24.5 -5t20 -13.5t14 -20.5t5.5 -25h-128q0 13 5.5 25t14 20.5t20 13.5t24.5 5v0z" />
    <glyph glyph-name="uniE07A" unicode="&#xe07a;" 
d="M480 384h-384h-2t-1.5 -0.5t-1.5 -0.5h-2l-12 53q-1 2 -2.5 4.5t-3.5 4t-4.5 2.5t-5.5 1h-46q-3 0 -6 -1.5t-5 -3.5t-3.5 -5t-1.5 -6t1.5 -6t3.5 -5t5 -3.5t6 -1.5h33l20 -85l28 -139v-0.5v-1t0.5 -1l0.5 -0.5l-17 -74v-3t0.5 -3.5t1 -3.5t2.5 -3q1 -1 2 -2.5t3 -2
t3.5 -1t3.5 -0.5h363q3 0 6 1.5t5 3.5t3.5 5t1.5 6t-1.5 6t-3.5 5t-5 3.5t-6 1.5h-343l7 33h1.5t1 -0.5t1 -0.5h1.5h292q6 0 11.5 1t10 3.5t8 7t7.5 12.5l51 159q4 11 2.5 18.5t-6 12.5t-11 7.5t-13.5 2.5v0zM96 32q0 -7 2.5 -12.5t7 -10t10 -7t12.5 -2.5t12.5 2.5t10 7
t7 10t2.5 12.5t-2.5 12.5t-7 10t-10 7t-12.5 2.5t-12.5 -2.5t-10 -7t-7 -10t-2.5 -12.5v0zM384 32q0 -7 2.5 -12.5t7 -10t10 -7t12.5 -2.5t12.5 2.5t10 7t7 10t2.5 12.5t-2.5 12.5t-7 10t-10 7t-12.5 2.5t-12.5 -2.5t-10 -7t-7 -10t-2.5 -12.5v0z" />
    <glyph glyph-name="uniE07B" unicode="&#xe07b;" 
d="M497 480v0h-0.5h-0.5v0v0v0h-0.5h-0.5h-201q-2 0 -4.5 -1.5t-5.5 -3t-5 -3l-2 -1.5l-236 -236q-4 -4 -6.5 -10t-2.5 -12.5t2.5 -12t6.5 -10.5l181 -181q2 -2 5 -4t5.5 -3t6 -1.5t6.5 -0.5t6 0.5t6 1.5t5.5 3t4.5 4l236 236l1.5 2t3 4.5t3 5.5t1.5 5v202q0 3 -1 6t-3 5
t-5 3.5t-6 1.5v0zM464 416q-3 0 -6 1.5t-5 3.5t-3.5 5t-1.5 6t1.5 6t3.5 5t5 3.5t6 1.5t6 -1.5t5 -3.5t3.5 -5t1.5 -6t-1.5 -6t-3.5 -5t-5 -3.5t-6 -1.5v0z" />
    <glyph glyph-name="uniE07C" unicode="&#xe07c;" 
d="M465 480v0h-0.5h-0.5v0v0v0h-0.5h-0.5h-169q-2 0 -4.5 -1.5t-5.5 -3t-5 -3l-2 -1.5l-204 -204q-5 -5 -7 -10.5t-2 -12t2 -12t7 -10.5l25 -26l-25 -25q-5 -5 -7 -10.5t-2 -12t2 -12t7 -10.5l149 -149q2 -2 4.5 -4t5.5 -3t6 -1.5t6 -0.5t6 0.5t6 1.5t6 3t5 4l203 204
q1 0 2.5 2t3 4.5t3 5.5t1.5 5v266q0 3 -1 6t-3 5.5t-5 3.5t-6 1v0zM432 448q3 0 6 -1t5 -3.5t3.5 -5.5t1.5 -6t-1.5 -6t-3.5 -5t-5 -3.5t-6 -1.5t-6 1.5t-5 3.5t-3.5 5t-1.5 6t1.5 6t3.5 5.5t5 3.5t6 1v0zM448 203l-204 -203l-148 148l25 26l101 -101q2 -2 4.5 -4t5.5 -3
t6 -1.5t6 -0.5t6 0.5t6 1.5t6 3t5 4l181 181v-50v0v-0.5v-0.5v0v0v0v0v0v0z" />
    <glyph glyph-name="uniE07D" unicode="&#xe07d;" 
d="M416 448h-64q0 7 -2.5 12.5t-7 10t-10 7t-12.5 2.5h-96q-7 0 -12.5 -2.5t-10 -7t-7 -10t-2.5 -12.5h-64q-7 0 -12.5 -2.5t-10 -7t-7 -10t-2.5 -12.5h352q0 7 -2.5 12.5t-7 10t-10 7t-12.5 2.5v0zM96 0q0 -7 2.5 -12.5t7 -10t10 -7t12.5 -2.5h288q7 0 12.5 2.5t10 7t7 10
t2.5 12.5v384h-352v-384v0zM352 304q0 3 1.5 6t3.5 5t5 3.5t6 1.5t6 -1.5t5 -3.5t3.5 -5t1.5 -6v-256q0 -3 -1.5 -6t-3.5 -5t-5 -3.5t-6 -1.5t-6 1.5t-5 3.5t-3.5 5t-1.5 6v256v0zM256 304q0 3 1.5 6t3.5 5t5 3.5t6 1.5t6 -1.5t5 -3.5t3.5 -5t1.5 -6v-256q0 -3 -1.5 -6
t-3.5 -5t-5 -3.5t-6 -1.5t-6 1.5t-5 3.5t-3.5 5t-1.5 6v256v0zM160 304q0 3 1.5 6t3.5 5t5 3.5t6 1.5t6 -1.5t5 -3.5t3.5 -5t1.5 -6v-256q0 -3 -1.5 -6t-3.5 -5t-5 -3.5t-6 -1.5t-6 1.5t-5 3.5t-3.5 5t-1.5 6v256v0z" />
    <glyph glyph-name="uniE07E" unicode="&#xe07e;" 
d="M425 140q1 2 1.5 4.5t0.5 5t-1 4.5t-3 4l-266 316q-1 2 -3.5 3.5t-4.5 2t-4.5 0.5t-4.5 -1q-3 -1 -5 -2.5t-3 -3.5l-2 -4t-1 -5v-418q0 -2 1 -4.5t2 -4.5t3.5 -3.5t4.5 -2.5h1.5h1t1 -0.5t1.5 -0.5q2 0 3.5 0.5t3.5 1.5t3.5 2t2.5 3l71 96l50 -142q2 -6 7 -11.5t11 -8
t13 -3t13 1.5q7 2 12 7t8 11t3.5 13t-1.5 13l-49 140l112 -22h5.5t4.5 1t4 2.5t3 4.5v0z" />
    <glyph glyph-name="uniE07F" unicode="&#xe07f;" 
d="M224 67v-67h-48q-3 0 -6 -1.5t-5 -3.5t-3.5 -5t-1.5 -6t1.5 -6t3.5 -5t5 -3.5t6 -1.5h160q3 0 6 1.5t5 3.5t3.5 5t1.5 6t-1.5 6t-3.5 5t-5 3.5t-6 1.5h-48v67q25 5 48 17.5t41 32.5t28.5 46.5t10.5 60.5v48q0 3 -1.5 6t-3.5 5t-5 3.5t-6 1.5t-6 -1.5t-5 -3.5t-3.5 -5
t-1.5 -6v-48q0 -32 -11 -55.5t-29 -40t-41 -24.5t-47 -8q-23 0 -46 7.5t-41 23.5t-29.5 40t-11.5 57v48q0 3 -1.5 6t-3.5 5t-5 3.5t-6 1.5t-6 -1.5t-5 -3.5t-3.5 -5t-1.5 -6v-48q0 -34 10.5 -61t28 -46.5t41 -32t48.5 -17.5v0zM256 160q13 0 25 5t20.5 13.5t13.5 20.5t5 25
v192q0 13 -5 25t-13.5 20.5t-20.5 13.5t-25 5t-25 -5t-20.5 -13.5t-13.5 -20.5t-5 -25v-192q0 -13 5 -25t13.5 -20.5t20.5 -13.5t25 -5v0z" />
    <glyph glyph-name="uniE080" unicode="&#xe080;" 
d="M256 480q-53 0 -99.5 -20t-81.5 -55t-55 -81.5t-20 -99.5t20 -99.5t55 -81.5t81.5 -55t99.5 -20t99.5 20t81.5 55t55 81.5t20 99.5t-20 99.5t-55 81.5t-81.5 55t-99.5 20v0zM382 328l-62 -100v-0.5v-1v-1v-1.5q0 -13 -5 -25t-13.5 -20.5t-20.5 -13.5t-25 -5h-1.5h-1h-1
h-0.5l-100 -62l-1.5 -0.5t-2.5 -1t-2 -0.5h-2q-2 0 -3.5 0.5t-2.5 1t-2.5 1.5t-2.5 2q-2 2 -3.5 4.5t-1.5 5t0.5 5t1.5 4.5l62 100v0.5v1v1v1.5q0 13 5 25t13.5 20.5t20.5 13.5t25 5h1.5h1h1h0.5l100 62q2 1 4.5 1.5t5 0.5t5 -1.5t4.5 -3.5t3.5 -4.5t1.5 -5t-0.5 -5
t-1.5 -4.5v0zM224 224q0 -7 2.5 -12.5t7 -10t10 -7t12.5 -2.5t12.5 2.5t10 7t7 10t2.5 12.5t-2.5 12.5t-7 10t-10 7t-12.5 2.5t-12.5 -2.5t-10 -7t-7 -10t-2.5 -12.5v0z" />
    <glyph glyph-name="uniE081" unicode="&#xe081;" 
d="M244 -23l2 -2l2 -2t2 -1.5t2 -1.5v0v0v0v0q1 0 1.5 -0.5t1 -0.5h1.5h1h1.5h1t1.5 0.5l1 0.5v0v0v0v0q1 1 2 1.5t2 1.5l2 2l2 2l23.5 27.5t53 71t55.5 97t32 106.5q0 2 0.5 5t0.5 5.5v5.5v6q0 37 -14 69.5t-38 57t-57 38.5t-70 14t-69.5 -14t-57 -38.5t-38.5 -57
t-14 -69.5v-6v-5.5t0.5 -5.5t0.5 -6q6 -52 32.5 -106t56.5 -97t53.5 -70.5l23.5 -27.5v0zM256 416q24 0 45 -9t36.5 -25t24.5 -37t9 -44q0 -24 -9 -45t-24.5 -37t-36.5 -25t-45 -9t-45 9t-36.5 25t-24.5 37t-9 45q0 23 9 44t24.5 37t36.5 25t45 9v0z" />
    <glyph glyph-name="uniE082" unicode="&#xe082;" 
d="M128 168q0 -9 10.5 -16.5t28.5 -12t41 -7.5t48 -4v0v0v0v0v-96q0 -7 1.5 -17.5t3.5 -21t5 -18t6 -7.5t6 7.5t5 18t3.5 21t1.5 17.5v96v0v0v0v0q25 1 48 4t41 7.5t28.5 12t10.5 16.5q0 10 -4.5 18t-12.5 15t-20 12.5t-27 9.5v166q15 5 27 11.5t20 13.5t12.5 13.5t4.5 12.5
q0 20 -45 30t-99 10t-99 -10t-45 -30q0 -6 4.5 -13t12.5 -14t20 -13.5t27 -11.5v-165q-15 -4 -27 -9.5t-20 -12.5t-12.5 -15t-4.5 -18v0z" />
    <glyph glyph-name="uniE083" unicode="&#xe083;" 
d="M161 387l-129 61v-384l129 -61v384zM193 4l128 57v384l-128 -57v-384zM353 60l127 -60v384l-127 60v-384z" />
    <glyph glyph-name="uniE084" unicode="&#xe084;" 
d="M448 416q-3 7 -8 13t-10.5 10t-11.5 6.5t-13 1.5l-301 1q-7 -1 -13 -2.5t-11 -6.5t-9 -10t-7 -14l-64 -255v-146q0 -2 1.5 -5.5t3.5 -5t5 -3.5t6 -1l480 -1l6 2t5 3.5t3.5 5t1.5 6.5v142v2l-64 256v1zM94 405q1 1 2 3t2 3.5t2.5 3t3.5 0.5l301 1q2 -1 3.5 -1.5t3 -2.5
t3.5 -3.5t3 -4.5l56 -228q0 -1 0 -0.5v0v0t0 -0.5q0 -3 -1 -6.5t-3.5 -5l-5 -3t-6.5 -0.5q0 -1 0 -0.5t0 -0.5t0 -0.5t0 -0.5l-122 1q-3 -1 -6 -1.5t-5 -3t-3.5 -5t-1.5 -7.5v-30q0 -4 -1.5 -6.5t-3.5 -5t-5 -3.5l-6 -2q0 1 0 0.5t-0.5 0t-0.5 0v-0.5l-94 -1q-1 2 -1 1.5v0
v0t0 0.5q-3 -1 -6 1t-5 3.5t-3.5 5t-1.5 5.5v32q0 3 -1.5 6.5t-3.5 5t-5 3t-6 0.5l-122 1q0 -1 0 -0.5v0.5v0.5t0 -0.5q-4 1 -6.5 1.5t-5 3t-3.5 5t-1 7.5q0 -1 -0.5 -0.5t-0.5 0v0t0 -0.5l57 230v0z" />
    <glyph glyph-name="uniE085" unicode="&#xe085;" 
d="M480 384h-128v32q0 7 -2.5 12.5t-7 10t-10 7t-12.5 2.5h-128q-7 0 -12.5 -2.5t-10 -7t-7 -10t-2.5 -12.5v-32h-128q-7 0 -12.5 -2.5t-10 -7t-7 -10t-2.5 -12.5v-64h512v64q0 7 -2.5 12.5t-7 10t-10 7t-12.5 2.5v0zM192 416h128v-32h-128v32v0zM192 256h128v-32h-128v32z
M352 224q0 -7 -2.5 -12.5t-7 -10t-10 -7t-12.5 -2.5h-128q-7 0 -12.5 2.5t-10 7t-7 10t-2.5 12.5v32h-160v-192q0 -7 2.5 -12.5t7 -10t10 -7t12.5 -2.5h448q7 0 12.5 2.5t10 7t7 10t2.5 12.5v192h-160v-32v0z" />
    <glyph glyph-name="uniE086" unicode="&#xe086;" 
d="M81 -32h303q6 0 12.5 2.5t10 7t6.5 10t2 12.5l1 336q-1 3 -1.5 6t-3.5 5t-5 3.5t-7 1.5q1 0 0.5 0t0 0t0 0t0.5 0h-272q1 0 0 0h-1h-1h-1h-44q-9 0 -18.5 3.5t-15.5 10t-10.5 15t-3.5 18.5q-1 10 3 19t10 15.5t15.5 10.5t18.5 4h369l-1 -368q1 -3 1.5 -6t3 -5t5 -3.5
t6.5 -1.5q3 0 6.5 1.5t5 3.5t3.5 5t1 6l1 384l-2 6t-3.5 5t-5 3.5t-7.5 1.5h-381q-18 0 -32 -6t-25.5 -17t-17.5 -25.5t-7 -30.5h1l-1 -352q1 -17 7 -31.5t17.5 -25.5t25.5 -17.5t32 -6.5h-1z" />
    <glyph glyph-name="uniE087" unicode="&#xe087;" 
d="M32 480q-7 0 -12.5 -2.5t-10 -7t-7 -10t-2.5 -12.5v-448q0 -7 2.5 -12.5t7 -10t10 -7t12.5 -2.5h32v512h-32v0zM416 480h-320v-512h320q7 0 12.5 2.5t10 7t7 10t2.5 12.5v448q0 7 -2.5 12.5t-7 10t-10 7t-12.5 2.5v0zM270 357q10 0 19 -4t15.5 -10.5t10.5 -15.5t4 -19
t-4 -18.5t-10.5 -15.5t-15.5 -10.5t-19 -3.5t-18.5 3.5t-15.5 10.5t-10.5 15.5t-3.5 18.5t3.5 19t10.5 15.5t15.5 10.5t18.5 4v0zM192 134q0 22 6 41.5t17 34t25.5 22.5t30.5 8q17 0 31 -8t25 -22.5t17 -34t6 -41.5t-24.5 -33t-54 -11t-54.5 11t-25 33v0zM480 448h32v-96
h-32v96zM480 320h32v-96h-32v96zM480 192h32v-96h-32v96z" />
    <glyph glyph-name="uniE088" unicode="&#xe088;" 
d="M480 416h-448q-7 0 -12.5 -2.5t-10 -7t-7 -10t-2.5 -12.5v-64h512v64q0 7 -2.5 12.5t-7 10t-10 7t-12.5 2.5v0zM32 0q0 -7 2.5 -12.5t7 -10t10 -7t12.5 -2.5h384q7 0 12.5 2.5t10 7t7 10t2.5 12.5v288h-448v-288v0zM192 224h128q7 0 12.5 -2.5t10 -7t7 -10t2.5 -12.5
t-2.5 -12.5t-7 -10t-10 -7t-12.5 -2.5h-128q-7 0 -12.5 2.5t-10 7t-7 10t-2.5 12.5t2.5 12.5t7 10t10 7t12.5 2.5v0z" />
    <glyph glyph-name="uniE089" unicode="&#xe089;" 
d="M512 291q-1 29 -12.5 56t-31 47.5t-45 32.5t-55.5 12q-17 0 -33 -4t-30 -12t-26.5 -18.5t-22.5 -24.5q-10 14 -22.5 24.5t-26.5 18.5t-30 12t-33 4q-30 0 -55.5 -12t-45 -32.5t-31 -47.5t-12.5 -56v0v-1v0v-0.5v-0.5v0v0v-0.5v-0.5v-1.5v-1.5t0.5 -1.5t0.5 -1.5
q2 -75 42 -128.5t87 -87.5t85.5 -50l38.5 -16l39 16t86.5 50t88.5 87.5t43 128.5q0 1 0.5 1.5t0.5 1.5v1.5v1.5v0.5v0.5v0v0v0.5v0.5v0v1v0v0z" />
    <glyph glyph-name="uniE08A" unicode="&#xe08a;" 
d="M352 384q0 19 -8 36.5t-21 30.5t-30.5 21t-36.5 8t-36.5 -8t-30.5 -21t-21 -30.5t-8 -36.5t8 -36.5t21 -30.5t30.5 -21t36.5 -8t36.5 8t30.5 21t21 30.5t8 36.5v0zM256 256q-32 0 -60.5 -16t-51 -43.5t-35.5 -64.5t-13 -79q0 -43 50 -64t110 -21t110 21t50 64
q0 42 -13 79t-35.5 64.5t-51 43.5t-60.5 16v0z" />
    <glyph glyph-name="uniE08B" unicode="&#xe08b;" 
d="M224 400q0 16 -6.5 30.5t-17.5 25.5t-25.5 17.5t-30.5 6.5t-30.5 -6.5t-25.5 -17.5t-17.5 -25.5t-6.5 -30.5t6.5 -30.5t17.5 -25.5t25.5 -17.5t30.5 -6.5t30.5 6.5t25.5 17.5t17.5 25.5t6.5 30.5v0zM280 96q0 48 -11.5 84t-31 60t-44.5 36t-53 12t-53 -12t-44.5 -36
t-31 -60t-11.5 -84q0 -33 43.5 -49.5t96 -16.5t96 16.5t43.5 49.5h1zM375 258q16 0 30.5 6.5t25.5 17.5t17.5 25.5t6.5 30.5t-6.5 30.5t-17.5 25.5t-25.5 17.5t-30.5 6.5t-30.5 -6.5t-25.5 -17.5t-17.5 -25.5t-6.5 -30.5t6.5 -30.5t17.5 -25.5t25.5 -17.5t30.5 -6.5v0z
M371 226q-8 0 -16 -1.5t-16 -3.5t-15.5 -5.5t-14.5 -7.5q4 -12 7.5 -25t5.5 -27t3.5 -29t1.5 -31t-5.5 -30.5t-15.5 -26.5t-24.5 -22t-32.5 -17q23 -19 67 -27t87 -3.5t75.5 20.5t32.5 44q0 48 -11.5 84t-31 60t-44.5 36t-53 12v0z" />
    <glyph glyph-name="uniE08C" unicode="&#xe08c;" 
d="M96 256h96q7 0 12.5 2.5t10 7t7 10t2.5 12.5v96q0 7 -2.5 12.5t-7 10t-10 7t-12.5 2.5h-96q-7 0 -12.5 -2.5t-10 -7t-7 -10t-2.5 -12.5v-96q0 -7 2.5 -12.5t7 -10t10 -7t12.5 -2.5v0zM320 256h96q7 0 12.5 2.5t10 7t7 10t2.5 12.5v96q0 7 -2.5 12.5t-7 10t-10 7
t-12.5 2.5h-96q-7 0 -12.5 -2.5t-10 -7t-7 -10t-2.5 -12.5v-96q0 -7 2.5 -12.5t7 -10t10 -7t12.5 -2.5v0zM64 64q0 -7 2.5 -12.5t7 -10t10 -7t12.5 -2.5h96q7 0 12.5 2.5t10 7t7 10t2.5 12.5v96q0 7 -2.5 12.5t-7 10t-10 7t-12.5 2.5h-96q-7 0 -12.5 -2.5t-10 -7t-7 -10
t-2.5 -12.5v-96v0zM288 64q0 -7 2.5 -12.5t7 -10t10 -7t12.5 -2.5h96q7 0 12.5 2.5t10 7t7 10t2.5 12.5v96q0 7 -2.5 12.5t-7 10t-10 7t-12.5 2.5h-96q-7 0 -12.5 -2.5t-10 -7t-7 -10t-2.5 -12.5v-96v0z" />
    <glyph glyph-name="uniE08D" unicode="&#xe08d;" 
d="M64 320h64q7 0 12.5 2.5t10 7t7 10t2.5 12.5v64q0 7 -2.5 12.5t-7 10t-10 7t-12.5 2.5h-64q-7 0 -12.5 -2.5t-10 -7t-7 -10t-2.5 -12.5v-64q0 -7 2.5 -12.5t7 -10t10 -7t12.5 -2.5v0zM224 320h64q7 0 12.5 2.5t10 7t7 10t2.5 12.5v64q0 7 -2.5 12.5t-7 10t-10 7
t-12.5 2.5h-64q-7 0 -12.5 -2.5t-10 -7t-7 -10t-2.5 -12.5v-64q0 -7 2.5 -12.5t7 -10t10 -7t12.5 -2.5v0zM384 320h64q7 0 12.5 2.5t10 7t7 10t2.5 12.5v64q0 7 -2.5 12.5t-7 10t-10 7t-12.5 2.5h-64q-7 0 -12.5 -2.5t-10 -7t-7 -10t-2.5 -12.5v-64q0 -7 2.5 -12.5t7 -10
t10 -7t12.5 -2.5v0zM32 192q0 -7 2.5 -12.5t7 -10t10 -7t12.5 -2.5h64q7 0 12.5 2.5t10 7t7 10t2.5 12.5v64q0 7 -2.5 12.5t-7 10t-10 7t-12.5 2.5h-64q-7 0 -12.5 -2.5t-10 -7t-7 -10t-2.5 -12.5v-64v0zM192 192q0 -7 2.5 -12.5t7 -10t10 -7t12.5 -2.5h64q7 0 12.5 2.5
t10 7t7 10t2.5 12.5v64q0 7 -2.5 12.5t-7 10t-10 7t-12.5 2.5h-64q-7 0 -12.5 -2.5t-10 -7t-7 -10t-2.5 -12.5v-64v0zM352 192q0 -7 2.5 -12.5t7 -10t10 -7t12.5 -2.5h64q7 0 12.5 2.5t10 7t7 10t2.5 12.5v64q0 7 -2.5 12.5t-7 10t-10 7t-12.5 2.5h-64q-7 0 -12.5 -2.5
t-10 -7t-7 -10t-2.5 -12.5v-64v0zM32 32q0 -7 2.5 -12.5t7 -10t10 -7t12.5 -2.5h64q7 0 12.5 2.5t10 7t7 10t2.5 12.5v64q0 7 -2.5 12.5t-7 10t-10 7t-12.5 2.5h-64q-7 0 -12.5 -2.5t-10 -7t-7 -10t-2.5 -12.5v-64v0zM192 32q0 -7 2.5 -12.5t7 -10t10 -7t12.5 -2.5h64
q7 0 12.5 2.5t10 7t7 10t2.5 12.5v64q0 7 -2.5 12.5t-7 10t-10 7t-12.5 2.5h-64q-7 0 -12.5 -2.5t-10 -7t-7 -10t-2.5 -12.5v-64v0zM352 32q0 -7 2.5 -12.5t7 -10t10 -7t12.5 -2.5h64q7 0 12.5 2.5t10 7t7 10t2.5 12.5v64q0 7 -2.5 12.5t-7 10t-10 7t-12.5 2.5h-64
q-7 0 -12.5 -2.5t-10 -7t-7 -10t-2.5 -12.5v-64v0z" />
    <glyph glyph-name="uniE08E" unicode="&#xe08e;" 
d="M13 -7q9 -12 22 -18t28 -7t30.5 4t29.5 16q6 5 10.5 9.5t8.5 10t7 11t5 11.5q2 3 3 6t1.5 6t1 7t0.5 8v239l288 55v-127q0 -16 -5.5 -27t-13 -17t-15.5 -9t-12 -4h-1h-0.5h-1h-0.5h-0.5t-0.5 -0.5t-0.5 -0.5h-0.5h1q-6 -1 -11 -2.5t-10.5 -3.5t-10.5 -5t-10 -7
q-14 -11 -22.5 -24.5t-12 -28.5t-1 -29t11.5 -26t22.5 -18t28.5 -6.5t30.5 4.5t29.5 15q7 6 12.5 12t10 13t7.5 14.5t5 14.5q0 2 0.5 4l1 4t0.5 4v4v311v1.5v1v1.5t-1 1q0 1 0.5 1t0.5 0.5v1v0.5v32q0 7 -2.5 12t-7 8t-10 4t-12.5 -1l-288 -55q-7 -2 -12.5 -6.5t-10 -10
t-7 -12t-2.5 -13.5v-32v0v0v-0.5v-0.5v-0.5v-1v-0.5v-1v-169q0 -17 -5.5 -27.5t-13 -17t-15.5 -9t-12 -3.5h-0.5h-0.5h-0.5h-0.5q-1 -1 -1.5 -1h-0.5h-0.5h-0.5h1q-6 -1 -11 -2.5t-10.5 -4t-10.5 -5.5t-9 -6q-14 -11 -23 -25t-12 -28.5t-0.5 -29t11.5 -25.5v0z" />
    <glyph glyph-name="uniE08F" unicode="&#xe08f;" 
d="M256 480q-53 0 -99.5 -20t-81.5 -55t-55 -81.5t-20 -99.5t20 -99.5t55 -81.5t81.5 -55t99.5 -20t99.5 20t81.5 55t55 81.5t20 99.5t-20 99.5t-55 81.5t-81.5 55t-99.5 20v0zM224 160q0 -7 -2.5 -12.5t-7 -10t-10 -7t-12.5 -2.5t-12.5 2.5t-10 7t-7 10t-2.5 12.5v128
q0 7 2.5 12.5t7 10t10 7t12.5 2.5t12.5 -2.5t10 -7t7 -10t2.5 -12.5v-128v0zM352 160q0 -7 -2.5 -12.5t-7 -10t-10 -7t-12.5 -2.5t-12.5 2.5t-10 7t-7 10t-2.5 12.5v128q0 7 2.5 12.5t7 10t10 7t12.5 2.5t12.5 -2.5t10 -7t7 -10t2.5 -12.5v-128v0z" />
    <glyph glyph-name="uniE090" unicode="&#xe090;" 
d="M211 351q-2 26 -14.5 46t-27.5 33t-27 20t-13 7q-1 1 -2 1t-2.5 0.5t-2.5 0.5t-2 -1q-32 -5 -51.5 -15.5t-29.5 -21.5t-13.5 -19t-3.5 -9q-1 -1 -1 -2v-2t0.5 -2.5t0.5 -2.5q38 -117 92.5 -190t109.5 -115t103.5 -60t74.5 -25q2 -1 3.5 -1.5t3.5 -1t3.5 -0.5t2.5 -1h1
t1.5 -0.5t1 -0.5h1.5t1.5 0.5t1.5 0.5h2t1 1q1 0 9.5 5t19 17t21 31t15.5 48v2.5t-0.5 2.5t-0.5 2.5t-1 2.5l-5.5 8.5t-17.5 20t-30.5 22.5t-45.5 18h-4h-4t-3.5 -1t-3.5 -2q-8 -8 -18 -15t-19 -13t-17 -10t-14 -5q-34 17 -60.5 39.5t-44.5 44.5t-28 39t-11 24q0 3 3.5 10
t9.5 16.5t14 20t17 20.5q1 1 2 2.5t1.5 3l1 3t-0.5 3.5v0z" />
    <glyph glyph-name="uniE091" unicode="&#xe091;" 
d="M96 320h96v-192h128l-1 192h97l-160 160zM384 64h-256v64h-64v-128h384v128h-64v-64z" />
    <glyph glyph-name="uniE092" unicode="&#xe092;" 
d="M256 128l160 160h-96v192h-128l1 -192h-97zM64 64v-64h384v128h-64v-64h-256v64h-64v-64z" />
    <glyph glyph-name="uniE093" unicode="&#xe093;" 
d="M193 -32h96v256h87l9 88h-96v44q0 9 0.5 15.5t4 11t10.5 7t20 2.5h61v88h-88q-32 0 -52 -8t-31.5 -23t-16 -36.5t-4.5 -48.5v-52h-64v-88h64v-256v0z" />
    <glyph glyph-name="uniE094" unicode="&#xe094;" 
d="M498 424q-8 -5 -16 -8.5l-16 -7t-17 -5.5t-18 -5q-7 8 -15.5 14t-18.5 10.5t-20.5 6.5t-22.5 3q-21 -1 -40.5 -9t-33.5 -22.5t-22.5 -33t-8.5 -41.5q0 -2 0.5 -5.5t0.5 -6t0.5 -6t1.5 -5.5q-33 1 -63.5 10t-58 22.5t-51.5 33.5t-43 43q-4 -5 -6.5 -12t-4.5 -13t-3 -13.5
t-1 -13.5q0 -15 3.5 -27t9.5 -24t15 -20.5t19 -16.5q-6 1 -12.5 1.5t-12.5 2.5t-11.5 4t-10.5 6v-1v-0.5v0t0 -1.5q0 -18 6 -35.5t17.5 -30.5t27 -23t33.5 -13q-3 -1 -6.5 -1.5t-7 -1.5t-7 -0.5t-7.5 -0.5q-2 1 -4.5 0.5t-5 0t-5 0.5t-5.5 2q5 -17 14.5 -29.5t22.5 -23
t28.5 -15.5t32.5 -6q-13 -10 -28 -19t-31.5 -14t-34.5 -8.5t-36 -2.5q-3 -1 -6 -0.5t-6.5 0t-6.5 0.5t-6 0q17 -10 36 -19.5t39.5 -15t42 -9t43.5 -2.5q72 -1 128 26.5t94 70t57.5 96.5t19.5 105v4v3v3.5v3.5q7 5 14.5 11.5t14 13t12.5 14.5t11 15q-7 -2 -14.5 -5.5t-15 -5
t-15 -3.5t-15.5 -2q8 4 15 11t13 13.5t10.5 15.5t7.5 17v1z" />
    <glyph glyph-name="uniE095" unicode="&#xe095;" 
d="M129 184q9 16 9 27t-4.5 20t-10 17.5t-7.5 20.5q-8 49 16 87.5t62 59t82.5 17.5t78.5 -36q23 -24 27.5 -66.5t-6.5 -82.5t-36.5 -67.5t-63.5 -19.5q-36 7 -34 35.5t12.5 62t15.5 63.5t-23 42q-23 9 -40.5 -2.5t-26.5 -32.5t-9.5 -46t10.5 -44q-6 -31 -15 -62.5
t-16.5 -64.5t-10.5 -68.5t3 -75.5q18 13 31 32t21.5 41.5t15 48t11.5 51.5q9 -5 16.5 -10.5t15 -10t16.5 -7.5t20 -4q43 -4 76.5 15.5t54.5 52.5t30 75.5t3 85.5q-5 38 -25.5 66t-51 46t-68 25.5t-78.5 2.5q-32 -3 -62.5 -17.5t-54.5 -37.5t-39.5 -53.5t-16.5 -67.5
q-1 -23 2 -42.5t11.5 -34.5t23 -25.5t35.5 -15.5v0z" />
    <glyph glyph-name="uniE096" unicode="&#xe096;" 
d="M137 14q32 0 56.5 8.5t41.5 22t25.5 31t8.5 35.5q0 14 -2.5 26t-8 22.5t-14.5 20t-22 18.5q-5 3 -11 8.5t-11.5 11t-9 11.5t-3.5 11t1 9.5t3.5 8.5t7.5 9t13 11q9 6 16 14t12 17t7.5 18.5t2.5 20.5q0 13 -2.5 25t-8 22.5t-13.5 18t-19 11.5h43l30 22h-16.5h-38.5h-44.5
h-34.5q-23 0 -44 -8t-37 -21.5t-26 -31t-10 -37.5t7.5 -38t20.5 -31t32 -21t42 -8h3.5t3 0.5t3 0.5h2.5q-1 -3 -2.5 -6t-2 -6t-1 -6.5t-0.5 -6.5q0 -6 1 -11t3.5 -9.5t6 -9t7.5 -7.5h-6h-5.5h-5.5h-6q-28 0 -52 -8.5t-42 -22t-28 -31t-10 -35.5t11 -32.5t29.5 -25t43.5 -16
t53 -5.5v0zM150 265q-13 0 -25 7t-22 18.5t-17 26.5t-9 32t1 31.5t10 25.5t17.5 16.5t23.5 5.5t25 -7t22 -18t17 -26t9 -32t-1 -31.5t-10 -25.5t-17.5 -17t-23.5 -6v0zM146 177q4 0 8.5 -0.5t8.5 -1t8 -1.5l8 -2q11 -8 19.5 -14t15.5 -11.5t12 -12t7 -15.5q0 -1 0.5 -3
t0.5 -3.5v-3.5v-4q0 -14 -5 -27t-16.5 -22.5t-30 -14.5t-45.5 -5q-19 0 -35.5 5.5t-28 15.5t-18.5 23t-7 27q0 15 8 27.5t21.5 22t31.5 15t37 5.5v0zM416 352v95h-32v-95h-96v-32h96v-97h32v97h96v32h-96z" />
    <glyph glyph-name="uniE097" unicode="&#xe097;" 
d="M165 91q0 -9 0.5 -17t1.5 -14.5t2 -12t3 -10.5t4.5 -9.5t6 -8.5t7.5 -8.5t9 -8.5q4 -4 9.5 -7.5l11 -7t12 -6t13.5 -4.5q6 -2 12.5 -4t13 -3t13.5 -1.5t16 -0.5q7 0 14.5 0.5l15 1t14.5 2t13 2.5l14 4t14 4.5t15 5.5t16 7v77q-10 -7 -18 -11t-15.5 -6t-15.5 -3t-18 -1
q-5 0 -10.5 1t-10 2t-9.5 3t-9 5q-3 1 -6 3.5t-5.5 5.5t-4.5 6.5t-3 6.5t-2 8t-1 11.5v15.5v20v117h128v96h-128v128h-83q-1 -10 -2.5 -19t-4 -17t-5 -15.5t-6.5 -13.5q-3 -7 -6.5 -13t-8 -11.5t-9.5 -10.5t-10 -9q-5 -5 -12 -9t-14.5 -7.5t-15 -6.5t-15.5 -5v-87h69v-165v0
z" />
    <glyph glyph-name="uniE098" unicode="&#xe098;" 
d="M352 229l-34 -12l-30 12v-62q0 -22 7.5 -41t20.5 -33t30.5 -21.5t37.5 -7.5t37.5 7.5t30.5 20.5t20.5 30.5t7.5 37.5v64h-64v-64q0 -7 -2.5 -12.5t-7 -10t-10 -7t-12.5 -2.5t-12.5 2.5t-10 7.5t-7 12.5t-2.5 16.5v62v0zM128 64q20 0 37.5 7.5t30.5 20.5t20.5 30.5
t7.5 37.5v128q0 7 2.5 12.5t7 10t10 7t12.5 2.5t12.5 -2.5t10 -6t7 -8t2.5 -8.5v-31l30 -12l34 12v31q0 17 -7.5 33t-20.5 28.5t-30.5 20t-37.5 7.5t-37.5 -7.5t-30.5 -20.5t-20.5 -30.5t-7.5 -37.5v-128q0 -7 -2.5 -12.5t-7 -10t-10 -7t-12.5 -2.5t-12.5 2.5t-10 7t-7 10
t-2.5 12.5v64h-64v-64q0 -20 7.5 -37.5t20.5 -30.5t30.5 -20.5t37.5 -7.5v0z" />
    <glyph glyph-name="uniE099" unicode="&#xe099;" 
d="M256 480q-53 0 -99.5 -20t-81.5 -55t-55 -81.5t-20 -99.5t20 -99.5t55 -81.5t81.5 -55t99.5 -20t99.5 20t81.5 55t55 81.5t20 99.5t-20 99.5t-55 81.5t-81.5 55t-99.5 20v0zM37 224q0 12 1 23t3.5 22t6 21.5t8.5 20.5l104 -279q-27 13 -50 32.5t-39 44.5t-25 54t-9 61v0z
M256 10q-8 0 -16 0.5t-15.5 2t-15.5 3t-15 3.5l66 186l67 -180l0.5 -0.5t0.5 -1t0.5 -0.5t0.5 -1q-9 -3 -17.5 -5t-18 -3.5t-18.5 -2.5t-19 -1v0zM286 324q5 0 9.5 0.5t8 1t5.5 0.5h2q5 1 7 4t1.5 6t-3 5.5t-6.5 2.5l-6 -0.5t-15 -1t-19 -1t-19 -0.5q-8 0 -18 0.5t-18.5 1
t-14.5 1l-6 0.5q-5 0 -7.5 -2.5t-2.5 -6t2 -6.5t6 -3h2t5.5 -0.5t7.5 -1t8 -0.5l34 -91l-48 -140l-79 231q5 0 9.5 0.5t8 1t5.5 0.5h2q4 1 6 4t2 6t-2.5 5.5t-7.5 2.5l-6 -0.5t-14.5 -1t-19 -1t-18.5 -0.5h-3.5h-3.5h-3.5h-3.5q14 22 34 40t43.5 30.5t50 19.5t55.5 7
q21 0 41.5 -4t39.5 -11.5t36 -17.5t31 -23h-0.5h-1h-0.5h-1q-8 0 -14.5 -3t-11.5 -8.5t-8 -12.5t-3 -14t2 -13t5 -12t7 -12.5t8 -12.5q3 -6 6.5 -12t6 -13t4 -15.5t1.5 -18.5q0 -7 -1 -14.5t-3.5 -16t-5.5 -18t-7 -20.5l-21 -72l-80 230v0zM475 224q0 -30 -7.5 -57t-22 -51
t-34.5 -43.5t-45 -33.5l67 189q5 11 8 21.5t5 20t3 18t1 17.5v5.5t-0.5 5.5t-0.5 5.5v5.5q6 -12 11 -24t8.5 -25t5 -26.5t1.5 -27.5v0z" />
    <glyph glyph-name="uniE09A" unicode="&#xe09a;" 
d="M489 480h-466q-5 0 -9 -2t-7 -5t-5 -7t-2 -9v-466q0 -5 2 -9t5 -7t7 -5t9 -2h466q5 0 9 2t7 5t5 7t2 9v466q0 5 -2 9t-5 7t-7 5t-9 2v0zM345 224q0 -19 -7 -35t-19 -28t-28 -19t-35 -7t-35 7t-28 19t-19 28t-7 35t7 35t19 28t28 19t35 7t35 -7t28 -19t19 -28t7 -35v0z
M448 32h-384v224h42q-1 -4 -1.5 -8l-1 -8t-0.5 -8v-8q0 -32 12 -60t32.5 -48.5t48.5 -32.5t60 -12t60 12t48.5 32.5t32.5 48.5t12 60v8t-0.5 8l-1 8t-1.5 8h42v-224v0zM448 320h-96v96h96v-96v0z" />
    <glyph glyph-name="uniE09B" unicode="&#xe09b;" 
d="M256 480q-53 0 -99.5 -20t-81.5 -55t-55 -81.5t-20 -99.5t20 -99.5t55 -81.5t81.5 -55t99.5 -20t99.5 20t81.5 55t55 81.5t20 99.5t-20 99.5t-55 81.5t-81.5 55t-99.5 20v0zM256 442q21 0 40.5 -3.5t38 -10.5t35 -17.5t31.5 -23.5q-2 -2 -9 -10.5t-20.5 -20t-34.5 -24.5
t-51 -24q-13 25 -26.5 47t-25 39t-19.5 28t-10 14q6 2 12.5 3t12.5 2t12.5 1h13.5v0zM163 422q2 -3 10 -14.5t19 -28t25 -38.5t27 -46q-38 -10 -73 -15.5t-62.5 -8t-45 -3t-21.5 -0.5q5 26 16 49t27 42.5t35.5 35.5t42.5 27v0zM37 224v1.5v1.5v2v1q4 0 24 0.5t51 3t70 9
t80 18.5q2 -4 4.5 -8.5t5 -9.5t4.5 -9.5t4 -9.5q-1 0 -2 -0.5t-2.5 -0.5t-2.5 -0.5t-2 -0.5q-42 -14 -74.5 -37t-54.5 -46t-34.5 -40.5t-13.5 -21.5q-14 15 -24 32t-17.5 35.5t-11.5 38.5t-4 41v0zM256 5q-19 0 -37 3t-35 9t-32.5 14.5t-29.5 19.5q1 3 11 19t30 36.5t52 43
t78 38.5h0.5h0.5h0.5h0.5q11 -30 19.5 -57t14 -48.5t8.5 -37t4 -23.5q-9 -4 -19.5 -7t-21 -5.5t-22 -3.5t-22.5 -1v0zM378 42q-1 5 -3.5 19t-7.5 34.5t-13 47t-18 55.5q25 4 48.5 3.5t42 -3t30.5 -5.5t15 -4q-4 -23 -12 -44t-20 -39.5t-27.5 -34.5t-34.5 -29v0zM322 233
q0 1 -0.5 2.5t-1.5 3t-1.5 3t-0.5 2.5l-4 8t-3.5 8t-3.5 8l-4 8q30 12 52.5 26t37.5 26.5t23 22t9 11.5q12 -14 21 -30t15.5 -33t9.5 -35.5t4 -37.5q-3 0 -17 2.5t-35 4.5t-47 2.5t-54 -2.5v0z" />
    <glyph glyph-name="uniE09C" unicode="&#xe09c;" 
d="M294 327q22 13 38 11.5t24.5 -12.5t8.5 -29.5t-12 -39.5q-11 -21 -21.5 -38t-19.5 -29t-17 -18.5t-13 -6.5t-10 6.5t-10 20t-10 32.5t-12 43q-6 26 -10.5 58.5t-12.5 60t-22.5 45t-41.5 12.5q-25 -5 -52 -24t-49.5 -39.5t-37 -37l-14.5 -16.5l21 -27l7 5t16 9.5t19 6.5
t15 -5q5 -6 17 -42t25 -79t25.5 -83t19.5 -54q6 -13 17 -26t25 -21t31 -9t35 10q18 12 53 42t72.5 74t69 98.5t41.5 114.5q11 61 -18 86t-70 20.5t-80 -35.5t-47 -84v0z" />
    <glyph glyph-name="uniE09D" unicode="&#xe09d;" 
d="M65 352h95v-352h-95v352zM355 352q-13 0 -23 -3t-18 -7t-14.5 -9t-11.5 -9v28h-95v-352h95v222l0.5 6.5t4.5 15t14.5 15.5t29.5 7q12 0 21 -3.5t14.5 -9t8.5 -14t3 -17.5v-222h101v218q0 45 -16 71.5t-37 40.5t-43 18t-34 4v0zM64 432q0 -10 4 -18.5t10.5 -15t15 -10.5
t18.5 -4t18.5 4t15 10.5t10.5 15t4 18.5t-4 18.5t-10.5 15t-15 10.5t-18.5 4t-18.5 -4t-15 -10.5t-10.5 -15t-4 -18.5v0z" />
    <glyph glyph-name="uniE09E" unicode="&#xe09e;" 
d="M0 480v-98q86 0 161 -32.5t131 -89t89 -131.5t33 -161h98q0 106 -40.5 199t-110 162.5t-162.5 110t-199 40.5v0zM239 -32h99q0 70 -26.5 131.5t-72.5 107.5t-107.5 72.5t-131.5 26.5v-98q24 0 47 -4.5t44.5 -13.5t41 -22t36.5 -30t30 -36.5t22 -41.5t13.5 -45t4.5 -47v0z
M68 -31q14 0 26.5 5t22 14.5t14.5 21.5t5 27q0 14 -5 26t-14.5 21.5t-22 15t-26.5 5.5t-26.5 -5.5t-21.5 -15t-14.5 -21.5t-5.5 -26q0 -15 5.5 -27t14.5 -21.5t21.5 -14.5t26.5 -5v0z" />
    <glyph glyph-name="uniE09F" unicode="&#xe09f;" 
d="M364 313q-21 5 -43.5 7.5t-45 2.5t-46.5 -1.5t-47 -5.5h-2.5t-1.5 -0.5t-1.5 -0.5h-2.5l-20 39q-9 -1 -16 -2.5t-14.5 -3t-14 -3t-14.5 -4.5l21 -42q-13 -4 -23.5 -10t-21 -12.5t-19 -14t-16.5 -15.5q-11 -14 -20 -29.5t-12.5 -31.5t-3 -33t7.5 -34q0 -3 1.5 -6.5t3 -6.5
t3.5 -6t3 -6l240 66l-67 122l2 1h1.5t2 0.5t2.5 0.5q39 7 71 5.5t55.5 -8t41.5 -17t29 -22.5l-81 -20l-35 55h-14.5t-16.5 -0.5t-17.5 -1.5t-18.5 -3l59 -108l240 65q-2 3 -2.5 5t-2.5 4.5t-3 4.5t-4 4q-9 11 -23.5 21t-32 18.5t-38.5 15.5t-42 11h-1zM87 167
q-1 12 -1.5 25.5t4.5 26t15 24t29 20.5l35 -76l-81 -20h-1z" />
    <glyph glyph-name="uniE0A0" unicode="&#xe0a0;" 
d="M377 329q5 -4 11 -7t12 -5.5t13.5 -3.5t13.5 -1q18 0 33 6.5t27 18t18 27t7 32.5q-1 17 -7 32.5t-18 27t-27 18t-33 6.5q-16 0 -32 -6.5t-27 -18t-18 -27t-6 -32.5q-1 0 -0.5 0t0 0t0 0t-0.5 0l-207 -100q-6 4 -11.5 7.5t-12.5 5.5t-14 3.5t-15 1.5q-16 0 -32 -6.5
t-27 -18t-18 -27t-6 -32.5q-1 -18 6 -33t18 -26.5t27 -18t32 -6.5q7 0 12.5 1t12 2.5t11.5 4l11 5.5l213 -103q1 0 0.5 0t0 0t0 0t0.5 0q-1 -18 6 -33t18 -26.5t27 -18.5t32 -7q18 0 33 7t27 18.5t18 26.5t7 33q-1 17 -7 32.5t-18 26.5t-27 18t-33 7q-6 0 -13.5 -1.5
t-13.5 -3.5t-12 -5t-11 -7l-210 101q1 0 0.5 0.5t0 1t0 1t0.5 1.5l208 101h1z" />
    <glyph glyph-name="uniE0A1" unicode="&#xe0a1;" 
d="M253 352q5 5 8 10t6 11t3.5 12t1.5 13q-1 6 -1.5 12.5t-3.5 11.5t-6 11t-8 9q-4 6 -9.5 9l-11 6t-12 3.5t-12.5 1.5q-8 -1 -13.5 -1.5t-11.5 -3.5t-10.5 -6t-10.5 -9q-4 -3 -8 -9t-5.5 -11t-3.5 -11.5t-1 -12.5q-1 -7 1 -13t3.5 -12t5.5 -11l8 -10q6 -4 10.5 -8t10.5 -6
t11.5 -3.5t13.5 -0.5q6 -1 12.5 0.5t12 3.5t11 6t9.5 8v0zM311 339q2 -4 5.5 -6t6 -4.5t6.5 -4t7 -4.5q5 -1 8.5 -2.5t8 -2t8 -1.5t9.5 0q3 -1 7.5 0t8.5 1.5t8 2t7 2.5q5 3 8 4.5t6.5 4t6.5 4.5t6 6q2 2 5 5.5t5 6t4.5 6.5t2.5 7q3 5 3.5 8.5t2 8t1.5 8t1 9.5q-1 3 -1 8
t-1.5 8.5t-2 7.5t-3.5 7q0 5 -2.5 8t-4.5 7t-5 6.5t-5 6.5q-3 1 -6 4t-6.5 5t-6.5 4.5t-8 2.5q-3 3 -7 4l-8 2t-8.5 1t-7.5 1q-6 -1 -9.5 -1t-8 -1t-8 -2t-8.5 -4q-3 0 -7 -2.5t-6.5 -4.5t-6 -5t-5.5 -4q-4 -4 -6 -6.5t-5 -6.5t-4.5 -7t-3.5 -8q-1 -3 -2.5 -7t-2 -7.5
t-1.5 -8.5t0 -8q-1 -6 0 -9.5t1.5 -8t2 -8t2.5 -8.5q2 -3 3.5 -7t4.5 -6.5t5 -6t6 -5.5v0zM85 348q6 1 10.5 1.5t9 2.5t8 4t7.5 7q3 3 6 7t4.5 8t2.5 9.5t0 9.5q1 6 0 10t-2.5 8.5t-4.5 8t-6 8.5q-4 2 -7.5 5.5t-8 4.5t-9 2.5t-10.5 0.5q-4 1 -9.5 -0.5t-9 -2.5t-8 -4.5
t-7.5 -5.5q-4 -5 -6.5 -8.5t-4.5 -8t-2.5 -8.5t-1.5 -10q1 -4 1.5 -9.5t2.5 -9.5t4.5 -8t6.5 -7q3 -5 7.5 -7t8 -4t9 -2.5t9.5 -1.5v0zM450 249q-5 2 -8.5 6t-8.5 6.5t-9.5 6t-10.5 4.5q-4 3 -10 4t-11 2.5t-11.5 2t-10.5 1.5q-7 -1 -12.5 -1.5t-11.5 -2t-10.5 -2.5
t-10.5 -4q-4 -1 -9.5 -4.5t-9.5 -5.5t-8.5 -6t-7.5 -7q-3 6 -5 13t-6.5 12t-8.5 10.5t-11 8.5q-4 6 -10.5 9t-12.5 5.5t-13.5 3t-14.5 1.5q-6 -1 -10 -1t-9 -1.5t-9 -2.5t-9 -4q-3 -1 -7.5 -4l-7.5 -5t-7 -6l-6 -6q-2 3 -3.5 8t-4.5 8.5t-6 7.5t-7 6q-3 5 -8 6.5t-9 4
t-9.5 2.5t-9.5 1q-7 -1 -12.5 -1.5t-11 -3t-10 -5.5t-9.5 -8q-3 -3 -6 -8.5t-3.5 -10t-1 -11t0.5 -11.5l-1 -104l85 1l-1 -84l142 1l-1 -113l226 1l-1 198q1 7 0 12.5t-1.5 11.5t-2.5 10.5t-4 10.5q-3 5 -5 10t-5.5 9t-6.5 9t-8 8z" />
    <glyph glyph-name="uniE0A2" unicode="&#xe0a2;" 
d="M490 223q0 48 -18.5 90.5t-50.5 74.5t-75 50.5t-91 18.5q-5 0 -10 -0.5t-9.5 -1l-9 -1t-9.5 -0.5q-8 5 -17 9t-19 7t-20 4.5t-21 1.5q-29 0 -54.5 -11t-44.5 -30t-30 -44.5t-11 -54.5q0 -11 1.5 -21t4.5 -19.5t7 -18.5t10 -17q-1 -5 -1.5 -9.5l-1 -9t-0.5 -9.5v-9
q0 -49 18.5 -91.5t50 -74t74.5 -50t92 -18.5h10.5t11 0.5t10.5 1.5t11 2q8 -5 16.5 -9t18 -7t19 -4t20.5 -1q29 0 54.5 11t44.5 30t30 44.5t11 54.5q0 11 -1.5 21.5t-5 20.5t-8 19.5t-9.5 17.5q0 4 0.5 8l1 8t0.5 8v8v0zM277 50q-28 -1 -49.5 1t-38 8t-29.5 14.5t-25 19.5
q-13 13 -18 25.5t-2.5 23t10 17.5t18.5 8t19.5 -4.5t16 -12.5t14 -14.5t12.5 -11.5q6 -3 18.5 -8t28 -7t31.5 2t28 17q12 15 9.5 26t-13.5 19t-28 13t-32 7q-23 3 -46.5 11t-42.5 20.5t-30.5 30.5t-8.5 42q2 24 11.5 41.5t23.5 30t32 19.5t36 9q24 2 44 0.5t37 -6.5
t31.5 -13t26.5 -19q14 -12 18.5 -24.5t2 -22.5t-10.5 -17t-17 -8t-19 7.5t-22 18.5t-27.5 19t-35.5 10q-21 0 -37 -9t-21.5 -21.5t1.5 -25t32 -18.5q26 -6 51.5 -11.5t48 -14t40 -22.5t27.5 -38q10 -23 3.5 -46t-23.5 -41.5t-42 -30.5t-53 -14v0z" />
    <glyph glyph-name="uniE0A3" unicode="&#xe0a3;" 
d="M443 399q-44 3 -91 5t-95 2t-95.5 -1.5t-92.5 -5.5q-14 -1 -25.5 -9.5t-19.5 -20.5t-13.5 -26t-6.5 -27q-2 -27 -3 -49t-1 -43t1 -43t3 -49q1 -12 6 -26.5t13.5 -26.5t20 -20.5t25.5 -10.5q45 -3 93 -4.5t96 -1.5t94.5 1.5t90.5 4.5q13 3 24.5 11.5t20 20.5t14 26t6.5 26
q2 27 3 50t1 44.5t-1 44.5t-3 50q-1 12 -5.5 26t-12.5 25.5t-20 19t-27 7.5v0zM192 133v184l160 -92l-160 -92v0z" />
    <glyph glyph-name="uniE0A4" unicode="&#xe0a4;" 
d="M128 2v227l-107 -107q8 -19 19 -36t25 -32.5t29.5 -28t33.5 -23.5v0zM160 -13q11 -5 22.5 -8.5t23.5 -6t24.5 -3.5t25.5 -1q36 0 68.5 9t61 26t52 40.5t40.5 52.5h-318v-109v0zM213 368l-80 80q-30 -16 -54.5 -39.5t-42 -52.5t-27 -62.5t-9.5 -69.5q0 -8 0.5 -16
t1.5 -15.5t2.5 -15t2.5 -15.5l206 206v0zM352 461q-11 5 -22.5 8.5t-23.5 6t-24.5 3.5t-25.5 1q-11 0 -22.5 -1t-22 -3t-21 -4.5t-20.5 -6.5l182 -182v178v0zM384 446v-318h109q5 11 8.5 22.5t6 23.5t3.5 24.5t1 25.5q0 36 -9 68.5t-26 61t-40.5 52t-52.5 40.5v0z" />
    <glyph glyph-name="uniE0A5" unicode="&#xe0a5;" 
d="M488 192l-146 254h-171l147 -254h170zM232 256l-85 148l-147 -254l86 -148zM144 -1h284l84 161h-275z" />
    <glyph glyph-name="uniE0A6" unicode="&#xe0a6;" 
d="M0 226q0 -22 8.5 -41.5t23 -34t34 -23t41.5 -8.5t41.5 8.5t34 23t22.5 34t8 41.5t-8 41.5t-22.5 34t-34 22.5t-41.5 8t-41.5 -8t-34 -22.5t-23 -34t-8.5 -41.5v0zM299 226q0 -22 8 -41.5t22.5 -34t34 -23t41.5 -8.5t41.5 8.5t34 23t23 34t8.5 41.5t-8.5 41.5t-23 34
t-34 22.5t-41.5 8t-41.5 -8t-34 -22.5t-22.5 -34t-8 -41.5v0z" />
    <glyph glyph-name="uniE0A7" unicode="&#xe0a7;" 
d="M479 288h-29q-6 0 -12 2.5t-11 7t-8 10.5t-3 12q0 34 -13 63.5t-35.5 51t-52.5 33.5t-65 12h-84q-34 0 -64.5 -13t-53 -35.5t-35.5 -52.5t-13 -64v-182q0 -34 13 -64t35.5 -52.5t53 -35.5t64.5 -13h180q34 0 64.5 13t53 35.5t35.5 52.5t13 64v117q0 7 -2.5 14t-7 12
t-10.5 8.5t-13 3.5v0zM160 352h96q7 0 12.5 -2.5t10 -7t7 -10t2.5 -12.5t-2.5 -12.5t-7 -10t-10 -7t-12.5 -2.5h-96q-7 0 -12.5 2.5t-10 7t-7 10t-2.5 12.5t2.5 12.5t7 10t10 7t12.5 2.5v0zM352 96h-192q-7 0 -12.5 2.5t-10 7t-7 10t-2.5 12.5t2.5 12.5t7 10t10 7t12.5 2.5
h192q7 0 12.5 -2.5t10 -7t7 -10t2.5 -12.5t-2.5 -12.5t-7 -10t-10 -7t-12.5 -2.5v0z" />
    <glyph glyph-name="uniE0A8" unicode="&#xe0a8;" 
d="M256 480q-53 0 -99.5 -20t-81.5 -55t-55 -81.5t-20 -99.5t20 -99.5t55 -81.5t81.5 -55t99.5 -20t99.5 20t81.5 55t55 81.5t20 99.5t-20 99.5t-55 81.5t-81.5 55t-99.5 20v0zM374 74q-1 -2 -2.5 -4t-3.5 -3t-4.5 -1.5t-4.5 -0.5h-2t-2.5 0.5t-2.5 0.5t-2 1
q-15 8 -31.5 14.5t-33.5 11t-34.5 7t-34.5 2.5q-11 0 -21.5 -1t-21 -2.5t-20.5 -4t-20 -5.5q-3 -1 -6.5 -0.5t-6.5 2t-5.5 4t-3.5 6.5q-1 3 -0.5 8t2 10t4 8.5t6.5 5.5q11 3 22.5 5.5t23 4.5t23.5 3t24 1q20 0 39.5 -2.5t38.5 -7.5t37.5 -12.5t35.5 -16.5q4 -2 6 -6.5
t3 -9.5t0.5 -10t-2.5 -8v0zM407 170q-2 -2 -4 -5.5t-4 -6t-5 -4.5t-5 -2h-3t-2 0.5t-2.5 1t-2.5 0.5q-19 10 -39 17.5t-40 12.5t-41.5 7.5t-42.5 2.5q-12 0 -24 -1t-23.5 -2.5t-23 -3.5t-23.5 -6q-4 -1 -8 -0.5t-7.5 2.5t-6 5.5t-3.5 7.5t-0.5 9t2.5 10t5 8.5t7 4.5
q13 4 26 6.5t26 4.5t26.5 2.5t26.5 0.5q24 0 47.5 -2.5t46.5 -8.5t45 -14t43 -19q4 -2 6.5 -5t3.5 -7t1 -8t-2 -8v0zM441 263q-1 -3 -3.5 -6t-5 -5t-5.5 -3t-7 -1h-2.5h-2.5t-2.5 0.5t-2.5 1.5q-23 11 -46.5 19.5t-48 14.5t-49.5 9t-50 3q-14 0 -27 -1t-26 -2.5t-26.5 -4
t-25.5 -5.5q-5 -1 -9.5 -0.5t-8.5 3t-7 6t-4 8.5t0 10t3 9t6 7.5t8 4.5q15 3 29 6t29 4.5t29.5 2.5t29.5 1q28 0 56 -3t54.5 -9.5t53 -16t51.5 -22.5q4 -2 7 -5.5t4.5 -7.5t1.5 -9t-3 -9v0z" />
    <glyph glyph-name="uniE0A9" unicode="&#xe0a9;" 
d="M480 480h-457q-5 0 -9 -2t-7 -5t-5 -7t-2 -9v-457q0 -7 2.5 -12.5t7 -10t10 -7t12.5 -2.5h457q5 0 9 2t7 5t5 7t2 9v457q0 7 -2.5 12.5t-7 10t-10 7t-12.5 2.5v0zM256 223v-223h-224v224h224v224h224v-225h-224v0z" />
    <glyph glyph-name="uniE0AA" unicode="&#xe0aa;" 
d="M256 480q-53 0 -99.5 -20t-81.5 -55t-55 -81.5t-20 -99.5t20 -99.5t55 -81.5t81.5 -55t99.5 -20t99.5 20t81.5 55t55 81.5t20 99.5t-20 99.5t-55 81.5t-81.5 55t-99.5 20v0zM322 224h-42v-154h-57v154h-39v53h39v31q0 16 2.5 29t9.5 22t19 14t31 5h42v-53h-26
q-7 0 -11.5 -1.5t-6.5 -4t-2.5 -6.5t-0.5 -10v-26h48l-6 -53v0z" />
    <glyph glyph-name="uniE0AB" unicode="&#xe0ab;" 
d="M256 480q-53 0 -99.5 -20t-81.5 -55t-55 -81.5t-20 -99.5t20 -99.5t55 -81.5t81.5 -55t99.5 -20t99.5 20t81.5 55t55 81.5t20 99.5t-20 99.5t-55 81.5t-81.5 55t-99.5 20v0zM383 281v-2t0.5 -2t0.5 -2v-2q0 -31 -12 -63t-34.5 -57.5t-56 -42t-77.5 -16.5q-13 0 -26 2
t-25 5.5t-23.5 9t-21.5 11.5h3h4t4 -0.5t4 -0.5q11 0 21.5 2t20.5 5.5t19 8.5t17 11q-10 1 -19.5 4t-17.5 9t-13.5 14t-8.5 17q1 0 2.5 -0.5t2.5 -0.5h3h3h4.5t4 0.5t4.5 1t5 0.5q-12 2 -21 8t-16 14t-10.5 18.5t-4.5 21.5q1 0 0.5 0t0 0.5t0 0.5t0.5 0q2 -2 6 -3.5t7 -2.5
t7.5 -1.5t7.5 -0.5q-6 4 -11.5 9.5t-9 12.5t-6 14.5t-1.5 15.5q-1 5 0.5 9t2 8t2.5 8t3 7q13 -14 26.5 -26t30.5 -20.5t35 -13.5t39 -6q-1 2 -1 3.5t-1 3.5t-0.5 4t-0.5 4q1 13 5.5 24.5t13.5 20t20 13.5t25 5q6 0 13 -1.5t12.5 -4t11 -6.5t8.5 -8q7 1 11.5 2.5t10 3.5t10 4
t9.5 5q-2 -6 -4.5 -11t-6.5 -9t-7.5 -8t-9.5 -7q5 1 9.5 1.5t9.5 2t9 3t9 3.5q-4 -5 -7 -9.5t-7.5 -8.5t-8.5 -7.5t-10 -7.5h1z" />
    <glyph glyph-name="uniE0AC" unicode="&#xe0ac;" 
d="M256 480q-53 0 -99.5 -20t-81.5 -55t-55 -81.5t-20 -99.5t20 -99.5t55 -81.5t81.5 -55t99.5 -20t99.5 20t81.5 55t55 81.5t20 99.5t-20 99.5t-55 81.5t-81.5 55t-99.5 20v0zM276 155q-7 0 -12.5 2t-10 5l-9 6t-9.5 6q-3 -15 -7 -30.5t-9 -29t-12.5 -25t-18.5 -19.5
q-4 24 -2 45.5t6 41t9.5 38.5t9.5 38q-6 11 -6 26.5t5.5 28t16 19t23.5 1.5q18 -7 14.5 -25t-9.5 -38t-7 -37t20 -22q22 -4 37.5 12t22 40t4 49.5t-17.5 40.5q-19 20 -46 21.5t-49.5 -10.5t-37.5 -35.5t-9 -52.5q0 -7 4 -12t6 -10.5t2.5 -12t-5.5 -16.5q-12 3 -21 9
t-13.5 15.5t-7 21t-0.5 25.5q-1 22 9 40.5t24 32t32.5 22t37.5 11.5q25 2 47 -2t41 -15t30.5 -28t15.5 -40q3 -25 -2 -50.5t-18 -45.5t-32.5 -31.5t-46.5 -9.5h1z" />
    <glyph glyph-name="uniE0AD" unicode="&#xe0ad;" 
d="M256 480q-53 0 -99.5 -20t-81.5 -55t-55 -81.5t-20 -99.5t20 -99.5t55 -81.5t81.5 -55t99.5 -20t99.5 20t81.5 55t55 81.5t20 99.5t-20 99.5t-55 81.5t-81.5 55t-99.5 20v0zM185 52q-22 0 -41 4t-33 12t-22.5 19t-8.5 25t7.5 27t21 23.5t32 16.5t39.5 6h5h4.5h4.5h4
q-3 3 -5.5 6t-4.5 6.5t-3 7.5t-1 9q0 2 0.5 4.5l1 5t1.5 4.5t2 5q-1 0 -2 -0.5t-2 -0.5h-2.5h-2.5q-18 0 -32 6t-24.5 16t-16 23.5t-5.5 28.5q0 16 7.5 29.5t20 23.5t28.5 16t33 6h27h33.5h29h12.5l-23 -16h-32q8 -3 14 -9t10 -14t6.5 -17.5t2.5 -18.5q0 -8 -2.5 -15.5
t-6 -14.5t-9 -13t-11.5 -10q-6 -5 -10 -9t-6 -7t-3 -6.5t-1 -7.5q0 -3 3 -7.5t7 -9t9 -8.5t8 -6q10 -8 17 -15t11 -15t6 -17t2 -20q0 -14 -6.5 -27t-19.5 -23.5t-31.5 -16.5t-42.5 -6v0zM448 255h-64v-63h-32v63h-64v33h64v64h32v-64h64v-33v0zM217 172q-3 1 -6 1.5t-6.5 1
t-6.5 1t-7 0.5q-14 0 -27.5 -4.5t-24 -11.5t-16.5 -16.5t-6 -20.5q0 -12 5 -21.5t14 -17t21.5 -12t26.5 -4.5q21 0 35 4t23 11t13 17t4 21q0 1 -0.5 2.5t-0.5 3v2.5t-1 3q-1 6 -4.5 11t-9 9.5t-12 9t-14.5 10.5v0zM234 304q-2 13 -7 24t-12.5 19.5t-17 14t-19.5 5.5
t-18 -4.5t-13 -12.5t-7.5 -19t-0.5 -24t7 -24.5t12.5 -20.5t17 -14t19.5 -5q10 -1 18 4t13 13t7.5 19.5t0.5 24.5v0z" />
    <glyph glyph-name="uniE0AE" unicode="&#xe0ae;" 
d="M256 480q-53 0 -99.5 -20t-81.5 -55t-55 -81.5t-20 -99.5t20 -99.5t55 -81.5t81.5 -55t99.5 -20t99.5 20t81.5 55t55 81.5t20 99.5t-20 99.5t-55 81.5t-81.5 55t-99.5 20v0zM352 243h-77v-70v-12v-9t0.5 -7t1.5 -5l2 -4t2.5 -3.5t3.5 -3t4 -2.5q2 -2 5 -3t5.5 -2t6 -1.5
t6.5 -0.5q6 0 10.5 0.5t9.5 2t9.5 4t10.5 6.5v-47q-5 -2 -9.5 -4t-9 -3.5t-8.5 -2.5l-8 -2t-8.5 -1.5t-8.5 -1t-8.5 -1t-9.5 -0.5t-9.5 0.5t-8 1t-7.5 1.5t-8 3q-4 1 -7.5 2.5t-7 3.5l-7 4t-5.5 5q-3 2 -5.5 4.5t-4.5 5.5t-3.5 5.5t-2.5 5.5l-2 6t-1.5 7t-1 9t-0.5 10v108
h-41v43q5 2 9.5 3.5t9 3.5t8.5 4.5t7 5.5l6 6t5.5 6t5 7t4.5 7q2 4 3.5 8.5t3 9.5t2.5 10.5t2 11.5h49v-77h77v-58v0z" />
    <glyph glyph-name="uniE0AF" unicode="&#xe0af;" 
d="M256 480q-53 0 -99.5 -20t-81.5 -55t-55 -81.5t-20 -99.5t20 -99.5t55 -81.5t81.5 -55t99.5 -20t99.5 20t81.5 55t55 81.5t20 99.5t-20 99.5t-55 81.5t-81.5 55t-99.5 20v0zM256 293q-5 0 -9 -2t-7 -5t-5 -7.5t-2 -8.5v-92q0 -14 -5.5 -26.5t-14.5 -22t-21.5 -14.5
t-26.5 -5q-15 0 -27.5 5t-21.5 14.5t-14.5 22t-5.5 26.5v46h46v-46q0 -4 1.5 -8.5t4.5 -7.5t7.5 -5t9.5 -2q4 0 8.5 2t7.5 5t4.5 7.5t1.5 8.5v92q0 14 5.5 26.5t15 22t22 14.5t26.5 5t26.5 -5t22 -14t15 -20.5t5.5 -23.5v-22l-30 -9l-16 9v22q0 3 -2 6t-5 5.5t-7 4.5t-9 2v0
zM416 178q0 -14 -5.5 -26.5t-14.5 -22t-21.5 -14.5t-27.5 -5q-14 0 -26.5 5.5t-21.5 15t-14.5 23t-5.5 29.5v45l16 -9l30 9v-45q0 -6 1.5 -11.5t4.5 -9t7.5 -5.5t8.5 -2q5 0 9.5 2t7.5 5t4.5 7.5t1.5 8.5v46h46v-46v0z" />
    <glyph glyph-name="uniE0B0" unicode="&#xe0b0;" 
d="M256 480q-53 0 -99.5 -20t-81.5 -55t-55 -81.5t-20 -99.5t20 -99.5t55 -81.5t81.5 -55t99.5 -20t99.5 20t81.5 55t55 81.5t20 99.5t-20 99.5t-55 81.5t-81.5 55t-99.5 20v0zM37 224q0 12 1 23t3.5 22t6 21.5t8.5 20.5l104 -279q-27 13 -50 32.5t-39 44.5t-25 54t-9 61v0z
M256 10q-8 0 -16 0.5t-15.5 2t-15.5 3t-15 3.5l66 186l67 -180l0.5 -0.5t0.5 -1t0.5 -0.5t0.5 -1q-9 -3 -17.5 -5t-18 -3.5t-18.5 -2.5t-19 -1v0zM286 324q5 0 9.5 0.5t8 1t5.5 0.5h2q5 1 7 4t1.5 6t-3 5.5t-6.5 2.5l-6 -0.5t-15 -1t-19 -1t-19 -0.5q-8 0 -18 0.5t-18.5 1
t-14.5 1l-6 0.5q-5 0 -7.5 -2.5t-2.5 -6t2 -6.5t6 -3h2t5.5 -0.5t7.5 -1t8 -0.5l34 -91l-48 -140l-79 231q5 0 9.5 0.5t8 1t5.5 0.5h2q4 1 6 4t2 6t-2.5 5.5t-7.5 2.5l-6 -0.5t-14.5 -1t-19 -1t-18.5 -0.5h-3.5h-3.5h-3.5h-3.5q14 22 34 40t43.5 30.5t50 19.5t55.5 7
q21 0 41.5 -4t39.5 -11.5t36 -17.5t31 -23h-0.5h-1h-0.5h-1q-8 0 -14.5 -3t-11.5 -8.5t-8 -12.5t-3 -14t2 -13t5 -12t7 -12.5t8 -12.5q3 -6 6.5 -12t6 -13t4 -15.5t1.5 -18.5q0 -7 -1 -14.5t-3.5 -16t-5.5 -18t-7 -20.5l-21 -72l-80 230v0zM475 224q0 -30 -7.5 -57t-22 -51
t-34.5 -43.5t-45 -33.5l67 189q5 11 8 21.5t5 20t3 18t1 17.5v5.5t-0.5 5.5t-0.5 5.5v5.5q6 -12 11 -24t8.5 -25t5 -26.5t1.5 -27.5v0z" />
    <glyph glyph-name="uniE0B1" unicode="&#xe0b1;" 
d="M256 480q-53 0 -99.5 -20t-81.5 -55t-55 -81.5t-20 -99.5t20 -99.5t55 -81.5t81.5 -55t99.5 -20t99.5 20t81.5 55t55 81.5t20 99.5t-20 99.5t-55 81.5t-81.5 55t-99.5 20v0zM416 76q0 -3 -1 -5t-2.5 -3.5t-3.5 -2.5t-5 -1h-296q-3 0 -5 1t-3.5 2.5t-2.5 3.5t-1 5v296
q0 3 1 5t2.5 3.5t3.5 2.5t5 1h296q3 0 5 -1t3.5 -2.5t2.5 -3.5t1 -5v-296v0zM192 224q0 -13 5 -25t13.5 -20.5t20.5 -13.5t25 -5t25 5t20.5 13.5t13.5 20.5t5 25t-5 25t-13.5 20.5t-20.5 13.5t-25 5t-25 -5t-20.5 -13.5t-13.5 -20.5t-5 -25v0zM320 352h64v-64h-64v64z
M351 224q0 -20 -7.5 -37t-20.5 -30t-30 -20.5t-37 -7.5t-37 7.5t-30 20.5t-20.5 30t-7.5 37v4.5t0.5 3.5t0.5 4t1 4h-35v-144h256v144h-35q1 -2 1 -4t0.5 -4t0.5 -3.5v-4.5v0z" />
    <glyph glyph-name="uniE0B2" unicode="&#xe0b2;" 
d="M316 205q8 -22 13.5 -41.5t9.5 -35t6 -26t2 -14.5q14 9 25.5 21t21 26t15.5 30t9 33q-3 0 -11.5 2.5t-22.5 4.5t-31.5 2.5t-36.5 -2.5v0zM284 197q-35 -12 -59 -28.5t-39 -32.5t-22 -27.5t-8 -13.5q10 -8 21.5 -14.5t24.5 -11t26.5 -7t27.5 -2.5q9 0 17 1t16 2.5t16 4
t15 5.5q-1 5 -3.5 17t-6.5 28t-10 36.5t-15 42.5v0h-0.5h-0.5v0v0zM291 263q2 -3 3 -6t2.5 -6l3 -6t2.5 -6q1 -1 1 -2t0.5 -2l1 -2t1.5 -2q20 2 39.5 1.5t35.5 -2t26.5 -3t12.5 -2.5q-1 15 -3.5 28.5t-7 26.5t-11.5 25t-15 22q-2 -2 -7.5 -8.5t-17 -16t-28 -20t-39.5 -19.5
v0zM267 222q1 1 2 1t1.5 0.5t1.5 0.5h2q-2 4 -3.5 7.5l-3 7t-3.5 7t-3 6.5q-31 -9 -60 -14t-52.5 -7t-38.5 -2h-18v-1.5v-1v-1.5v-1q0 -16 3 -31t8.5 -29t13.5 -26.5t17 -23.5q2 3 11 16t25.5 30.5t41 34.5t55.5 27v0zM247 277q-10 18 -20 34.5t-18.5 29t-14.5 21t-8 10.5
q-17 -8 -31.5 -20t-26.5 -26.5t-20 -32t-12 -36.5q3 0 16 0.5t33.5 2t46.5 6t55 11.5v0zM364 346q-10 10 -22.5 17.5t-26.5 13t-28.5 8t-30.5 2.5h-10t-9.5 -0.5t-9.5 -1.5t-9 -2q1 -2 7 -10.5t14.5 -21.5t19 -29t20.5 -35q22 8 37.5 18t26 18.5t15.5 15t6 7.5v0zM256 480
q-53 0 -99.5 -20t-81.5 -55t-55 -81.5t-20 -99.5t20 -99.5t55 -81.5t81.5 -55t99.5 -20t99.5 20t81.5 55t55 81.5t20 99.5t-20 99.5t-55 81.5t-81.5 55t-99.5 20v0zM256 32q-40 0 -74.5 15.5t-60.5 41.5t-41.5 60.5t-15.5 74.5t15.5 74.5t41.5 60.5t60.5 41.5t74.5 15.5
t74.5 -15.5t60.5 -41.5t41.5 -60.5t15.5 -74.5t-15.5 -74.5t-41.5 -60.5t-60.5 -41.5t-74.5 -15.5v0z" />
    <glyph glyph-name="uniE0B3" unicode="&#xe0b3;" 
d="M256 480q-53 0 -99.5 -20t-81.5 -55t-55 -81.5t-20 -99.5t20 -99.5t55 -81.5t81.5 -55t99.5 -20t99.5 20t81.5 55t55 81.5t20 99.5t-20 99.5t-55 81.5t-81.5 55t-99.5 20v0zM408 294q-6 -37 -25 -69.5t-41.5 -58.5t-43.5 -44.5t-32 -25.5t-21 -6t-18.5 6t-15 12.5
t-10.5 15.5t-11.5 32t-15.5 50t-15 47.5t-10 25.5t-9 2.5t-11.5 -4t-9.5 -5.5l-4 -3l-13 16l9 10t22.5 22.5t29.5 23.5t31 14q16 3 25 -7t13.5 -27t7.5 -36.5t7 -34.5q3 -15 6.5 -26.5t6.5 -19t5.5 -12t6.5 -4.5q3 0 7.5 4t10 11.5t12 17.5t12.5 23q7 12 7.5 23.5t-5 18
t-15 7.5t-22.5 -7q5 31 28 50t48 21.5t42 -12.5t11 -51v0z" />
    <glyph glyph-name="uniE0B4" unicode="&#xe0b4;" 
d="M256 480q-53 0 -99.5 -20t-81.5 -55t-55 -81.5t-20 -99.5t20 -99.5t55 -81.5t81.5 -55t99.5 -20t99.5 20t81.5 55t55 81.5t20 99.5t-20 99.5t-55 81.5t-81.5 55t-99.5 20v0zM192 100h-64v224h64v-224v0zM162 338q-6 0 -11.5 2t-9.5 6.5t-6.5 10t-2.5 11.5t2.5 11.5
t6.5 9.5t9.5 6.5t11.5 2.5t11.5 -2.5t9.5 -6.5t6.5 -9.5t2.5 -11.5t-2.5 -11.5t-6.5 -10t-9.5 -6.5t-11.5 -2v0zM416 100h-64v138q0 7 -1 12t-4 8.5t-7.5 5.5t-12.5 2q-12 0 -19.5 -4.5t-12 -9.5t-6 -9.5l-1.5 -4.5v-138h-64v224h64v-21l9 6t14.5 7t18.5 5.5t22 2.5
q8 0 19 -3t21 -12.5t17 -26.5t7 -45v-137v0z" />
    <glyph glyph-name="uniE0B5" unicode="&#xe0b5;" 
d="M256 480q-53 0 -99.5 -20t-81.5 -55t-55 -81.5t-20 -99.5t20 -99.5t55 -81.5t81.5 -55t99.5 -20t99.5 20t81.5 55t55 81.5t20 99.5t-20 99.5t-55 81.5t-81.5 55t-99.5 20v0zM138 65q-9 0 -16.5 3t-13 9t-9 13.5t-3.5 15.5q0 9 3.5 16.5t9 13t13 9t16.5 3.5t16.5 -3.5
t13 -9t9 -13t3.5 -16.5q0 -8 -3.5 -15.5t-9 -13.5t-13 -9t-16.5 -3v0zM243 64q0 15 -3 29t-8.5 27.5t-13.5 25.5t-18 22q-10 11 -22 19t-25.5 13.5t-27.5 8t-29 2.5v60q43 0 80.5 -16t66 -44.5t44.5 -66t16 -80.5h-60v0zM349 64q0 53 -19.5 99t-54 80.5t-80.5 54.5t-98 20
v60q64 0 121 -25t99.5 -67.5t67.5 -99.5t25 -122h-61v0z" />
    <glyph glyph-name="uniE0B6" unicode="&#xe0b6;" 
d="M256 480q-53 0 -99.5 -20t-81.5 -55t-55 -81.5t-20 -99.5t20 -99.5t55 -81.5t81.5 -55t99.5 -20t99.5 20t81.5 55t55 81.5t20 99.5t-20 99.5t-55 81.5t-81.5 55t-99.5 20v0zM274 183l-41 73q7 1 13 2t11.5 1.5t11 0.5t10.5 -1l23 -36l55 13q-8 8 -19.5 15t-28 11.5
t-37.5 5.5t-48 -4h-1.5h-1t-1 -0.5t-1.5 -0.5l45 -82l-161 -45q-2 2 -3 4.5t-2 4.5l-2 4t-2 5q-4 11 -4 22.5t2.5 22t8 21t13.5 19.5q5 6 11 11t12.5 9.5t14 8t16.5 7.5l-14 28q4 1 9 2.5t10 2.5l10 2l10 2l14 -27q1 0 1.5 0.5t1 0.5h1h1.5q16 2 31.5 3.5t31 1.5t30.5 -2
t30 -5t28.5 -7.5t25.5 -10.5t22 -12.5t16 -13.5q1 -2 2 -3.5l2 -3l2 -3t2 -2.5l-161 -45v0zM149 186l55 13l-25 51q-12 -6 -18.5 -13.5t-10 -16t-3.5 -17.5t2 -17v0z" />
    <glyph glyph-name="uniE0B7" unicode="&#xe0b7;" 
d="M256 480q-53 0 -99.5 -20t-81.5 -55t-55 -81.5t-20 -99.5t20 -99.5t55 -81.5t81.5 -55t99.5 -20t99.5 20t81.5 55t55 81.5t20 99.5t-20 99.5t-55 81.5t-81.5 55t-99.5 20v0zM309 166q3 2 6.5 4t7 3t7.5 2t8 1q9 0 18 -4t15 -10.5t10 -15t4 -18.5t-4 -18.5t-10 -15
t-15 -10t-18 -3.5q-10 0 -18.5 3.5t-15 10t-10.5 15t-4 18.5v0v0v0v0l-120 59q-3 -2 -6 -3.5t-6.5 -2.5t-6.5 -1.5t-7 -0.5q-10 0 -18.5 3.5t-15 10t-10 15.5t-3.5 18q0 10 3.5 18.5t10 15t15 10.5t18.5 4q4 0 8 -1l8 -2t7.5 -3t6.5 -5l116 57v0v0v0v0q0 10 4 18.5t10.5 15
t15 10t18.5 3.5q9 0 18 -3.5t15 -10t10 -15t4 -18.5t-4 -18.5t-10 -15t-15 -10.5t-18 -4q-4 0 -8 1t-7.5 2t-7 3t-6.5 4l-118 -57v-0.5v-0.5v-0.5v-0.5l118 -57v0z" />
    <glyph glyph-name="uniE0B8" unicode="&#xe0b8;" 
d="M256 480q-53 0 -99.5 -20t-81.5 -55t-55 -81.5t-20 -99.5t20 -99.5t55 -81.5t81.5 -55t99.5 -20t99.5 20t81.5 55t55 81.5t20 99.5t-20 99.5t-55 81.5t-81.5 55t-99.5 20v0zM265 352q1 3 2.5 5t2.5 4t2.5 4t3.5 4q2 1 4 3t4 3t4 2.5t5 2.5q2 1 4.5 1.5l5 1l5 1t5.5 0.5
t5.5 -0.5l5 -1l5 -1t4.5 -1.5q3 -1 5 -2.5t4 -2.5t4 -3t4 -3q2 -2 3.5 -4l3 -4t2.5 -4t2 -5q1 -2 2 -4.5t1.5 -5t0.5 -5v-5.5v-5.5t-0.5 -5t-1.5 -5t-2 -4.5q-1 -3 -2 -5t-2.5 -4l-3 -4t-3.5 -4t-4 -3.5l-4 -3t-4 -2.5t-5 -2q-2 -1 -4.5 -2t-5 -1.5t-5 -0.5h-5.5h-5.5
t-5 0.5t-5 1.5t-4.5 2q-3 1 -5 2t-4 2.5l-4 3t-4 3.5t-3.5 4t-2.5 4t-2.5 4t-2.5 5q-1 2 -1.5 4.5t-1.5 5t-1 5v5.5v5.5t1 5t1.5 5t1.5 4.5v0zM184 361q3 2 6 4.5t6.5 4t7.5 2t8 0.5t8 -0.5t7.5 -2t7 -4t6.5 -4.5q3 -3 5 -6.5t3.5 -7t2 -7t0.5 -8.5q0 -4 -0.5 -8t-2 -7.5
t-3.5 -6.5t-5 -6t-6.5 -5t-7 -3.5t-7.5 -2.5t-8 -1t-8 1t-7.5 2.5t-6.5 3.5t-6 5t-5 6t-3.5 6.5t-2.5 7.5t-1 8q0 5 1 8.5t2.5 7t3.5 7t5 6.5v0zM114 353q2 2 4.5 4t5.5 3t6 1.5t6 0.5t6 -0.5t5.5 -1.5t5 -3t4.5 -4t4 -4.5t3 -5t1.5 -5.5t0.5 -6t-0.5 -6t-1.5 -6t-3 -5
t-4 -5q-2 -2 -4.5 -3.5l-5 -3t-5.5 -2t-6 -0.5t-6 0.5t-6 2t-5.5 3t-4.5 3.5t-3.5 4.5t-3 5.5t-2 6t-0.5 6t0.5 6t2 5.5l3 5t3.5 4.5v0zM384 64h-141v64h-88v64h-52v58v7.5t0.5 7t2 6.5t4.5 5q2 3 5 5t6.5 3.5t7 2t7.5 0.5q3 0 6 -0.5t6 -1.5t5.5 -2.5t5.5 -3.5l4 -4
t3.5 -4.5t3 -5.5t1.5 -6q2 3 4.5 5t4.5 3.5t4.5 3t5.5 2.5q2 2 5 3t5.5 1.5t5.5 0.5h6q5 0 9.5 -0.5t8.5 -2t7.5 -3.5t7.5 -5q3 -2 6 -5.5t5.5 -7t4 -7.5t2.5 -8q3 3 5.5 5t5 3.5t5.5 3l7 3.5l6 2t6.5 2t7 1h7.5h7.5t7 -1t6.5 -2t7 -2q3 -2 6 -3.5t6 -3.5t5.5 -4t4.5 -4
q3 -3 5 -5.5t4 -5.5t3.5 -6t3.5 -6q1 -3 2 -6.5t1.5 -7l1 -7t0.5 -6.5v-125v0z" />
    <glyph glyph-name="uniE0B9" unicode="&#xe0b9;" 
d="M256 480q-53 0 -99.5 -20t-81.5 -55t-55 -81.5t-20 -99.5t20 -99.5t55 -81.5t81.5 -55t99.5 -20t99.5 20t81.5 55t55 81.5t20 99.5t-20 99.5t-55 81.5t-81.5 55t-99.5 20v0zM325 73q-6 0 -12 0.5t-11.5 2.5t-10.5 4t-10 5q-3 0 -6.5 -0.5t-6.5 -1t-6 -0.5h-7
q-29 0 -54.5 11t-45 30t-30.5 44.5t-11 54.5v6t0.5 5.5t1 5.5t0.5 5q-3 5 -5.5 10.5t-4.5 11.5t-3 12t-1 12q0 18 7 33t18 26.5t26.5 18t33.5 6.5q6 0 12 -0.5t12 -2.5t11.5 -4.5t10.5 -5.5q2 0 5 0.5t6 0.5t5.5 0.5t5.5 0.5q29 0 55 -11t45 -30.5t30 -45t11 -54.5v-4.5v-5
t-0.5 -4.5t-0.5 -5q3 -5 6 -10.5t5 -11.5t3 -12.5t1 -12.5q0 -18 -7 -33t-18 -26.5t-26.5 -18t-33.5 -6.5v0zM238 250q-16 4 -20 11.5t-0.5 15t13 13t21.5 5.5q12 -1 21.5 -6t17 -11.5t13.5 -11.5t11 -4t10 5t6.5 10t-1 13.5t-11.5 14.5q-7 6 -15.5 11t-19 8t-22.5 4t-26 0
q-11 -1 -22 -5.5t-19.5 -12t-14 -18t-6.5 -24.5q-2 -14 5 -25t18.5 -18.5t25.5 -12.5t27 -7q10 -1 20 -4t16.5 -8t8 -11.5t-5.5 -15.5q-7 -8 -16.5 -10t-19 -1t-17 4t-11.5 5q-3 2 -7 6.5t-8.5 9t-9.5 7.5t-12 3q-6 -1 -11 -5t-6 -10.5t1.5 -14t10.5 -15.5q8 -6 15.5 -11.5
t17.5 -8.5t23 -4.5t29 -0.5q17 1 32.5 8t25.5 18t14 25t-2 28t-16.5 22.5t-24 13.5t-29 8.5t-30.5 6.5v0z" />
    <glyph glyph-name="uniE0BA" unicode="&#xe0ba;" 
d="M256 480q-53 0 -99.5 -20t-81.5 -55t-55 -81.5t-20 -99.5t20 -99.5t55 -81.5t81.5 -55t99.5 -20t99.5 20t81.5 55t55 81.5t20 99.5t-20 99.5t-55 81.5t-81.5 55t-99.5 20v0zM413 167q0 -8 -3.5 -17t-8.5 -16.5t-12.5 -12.5t-15.5 -7q-27 -2 -56.5 -3t-59.5 -1t-60 1
t-58 3q-8 1 -15.5 6.5t-12.5 13t-8.5 16.5t-3.5 17q-2 16 -2.5 30t-0.5 27t0.5 27t2.5 31q0 8 3.5 16.5t8.5 16t12.5 13t15.5 6.5q28 2 58 3t60 1t59 -1.5t57 -2.5q10 -1 17 -5.5t12 -12t8 -16t3 -16.5q2 -16 2.5 -30.5t0.5 -28t-0.5 -28t-2.5 -30.5v0zM224 160l96 64
l-96 64v-128z" />
    <glyph glyph-name="uniE0BB" unicode="&#xe0bb;" 
d="M256 480q-53 0 -99.5 -20t-81.5 -55t-55 -81.5t-20 -99.5t20 -99.5t55 -81.5t81.5 -55t99.5 -20t99.5 20t81.5 55t55 81.5t20 99.5t-20 99.5t-55 81.5t-81.5 55t-99.5 20v0zM256 416q10 0 19 -1t18 -2.5t18 -4.5t17 -6v-134l-137 137q8 3 16 5t16 3.5t16 2t17 0.5v0z
M70 178q-2 5 -3 11t-1.5 11.5t-1 11.5t-0.5 12q0 27 7 52t20.5 47t31.5 39.5t41 29.5l60 -60l-154 -154v0zM160 58q-13 7 -25 17t-22 21.5t-18.5 24t-14.5 27.5l80 80v-170v0zM256 32q-10 0 -19 1t-18 2.5t-18 4.5t-17 6v82h238q-12 -22 -29.5 -39.5t-39 -30t-46 -19.5
t-51.5 -7v0zM434 152h-82v238q22 -12 39.5 -29.5t30 -39t19.5 -46t7 -51.5q0 -10 -1 -19t-2.5 -18t-4.5 -18t-6 -17v0z" />
    <glyph glyph-name="uniE0BC" unicode="&#xe0bc;" 
d="M256 480q-53 0 -99.5 -20t-81.5 -55t-55 -81.5t-20 -99.5t20 -99.5t55 -81.5t81.5 -55t99.5 -20t99.5 20t81.5 55t55 81.5t20 99.5t-20 99.5t-55 81.5t-81.5 55t-99.5 20v0zM305 352l85 -147h-99l-84 147h98v0zM108 181l85 147l49 -86l-85 -146l-49 85v0zM355 96h-164
l50 85h163l-49 -85v0z" />
    <glyph glyph-name="uniE0BD" unicode="&#xe0bd;" 
d="M256 480q-53 0 -99.5 -20t-81.5 -55t-55 -81.5t-20 -99.5t20 -99.5t55 -81.5t81.5 -55t99.5 -20t99.5 20t81.5 55t55 81.5t20 99.5t-20 99.5t-55 81.5t-81.5 55t-99.5 20v0zM162 160q-14 0 -25.5 5t-20.5 14t-14 20.5t-5 25.5q0 13 5 25t14 21t20.5 14t25.5 5q13 0 25 -5
t21 -14t14 -21t5 -25q0 -14 -5 -25.5t-14 -20.5t-21 -14t-25 -5v0zM351 160q-14 0 -25.5 5t-20.5 14t-14 20.5t-5 25.5q0 13 5 25t14 21t20.5 14t25.5 5q13 0 25 -5t21 -14t14 -21t5 -25q0 -14 -5 -25.5t-14 -20.5t-21 -14t-25 -5v0z" />
    <glyph glyph-name="uniE0BE" unicode="&#xe0be;" 
d="M316 184h-120q-4 0 -7.5 -1.5t-6.5 -4t-4.5 -6.5t-1.5 -8t1.5 -7.5t4.5 -6.5t6.5 -4.5t7.5 -1.5h120q4 0 7.5 1.5t6.5 4.5t4.5 6.5t1.5 7.5t-1.5 8t-4.5 6.5t-6.5 4t-7.5 1.5v0zM196 264h60q4 0 7.5 1.5t6.5 4t4.5 6.5t1.5 8t-1.5 7.5t-4.5 6.5t-6.5 4.5t-7.5 1.5h-60
q-4 0 -7.5 -1.5t-6.5 -4.5t-4.5 -6.5t-1.5 -7.5t1.5 -8t4.5 -6.5t6.5 -4t7.5 -1.5v0zM256 480q-53 0 -99.5 -20t-81.5 -55t-55 -81.5t-20 -99.5t20 -99.5t55 -81.5t81.5 -55t99.5 -20t99.5 20t81.5 55t55 81.5t20 99.5t-20 99.5t-55 81.5t-81.5 55t-99.5 20v0zM416 167
q0 -21 -8.5 -39.5t-22.5 -32.5t-33 -22.5t-40 -8.5h-112q-21 0 -40 8.5t-33 22.5t-22.5 32.5t-8.5 39.5v114q0 21 8.5 39.5t22.5 32.5t33 22.5t40 8.5h53q21 0 40 -8t33 -21t22 -31.5t8 -39.5q0 -4 2 -7.5t4.5 -6.5t6.5 -4.5t8 -1.5h18q4 0 8 -2t6.5 -5.5t4.5 -7.5t2 -8v-74
v0z" />
    <glyph glyph-name="uniE0BF" unicode="&#xe0bf;" 
d="M226 315q-11 0 -22 -1l-22 -2t-22 -3t-22 -5q-3 -1 -6 -3.5t-4.5 -5.5t-2 -7t0.5 -7q1 -4 3 -6.5t5 -4.5t6 -2.5t7 0.5q10 2 19.5 4t19.5 3l20 2t20 1q19 0 38 -2.5t37 -6.5t35.5 -10.5t34.5 -14.5q1 -1 2 -1.5t2 -0.5h2h2q3 0 5 1t4.5 2.5t4 3.5t2.5 4q2 3 2 6.5t-1 6.5
t-3.5 6t-5.5 4q-19 10 -38.5 16.5t-39.5 12t-41 7.5t-42 3v0zM226 165q-9 1 -18 0t-17.5 -2t-17.5 -3.5t-17 -4.5q-3 -1 -5 -3.5t-3 -6.5t-1 -7.5v-6.5q1 -2 3 -4.5t4 -3t4.5 -1.5t5.5 1q7 1 15 3.5t15.5 3t15.5 1.5t16 0q13 1 26 -1t26 -5t25 -8t24 -11q1 -1 1.5 -1
t1.5 -0.5t1.5 0t1.5 -0.5q2 1 3.5 1t3 1l3 2t2.5 3t1.5 6t-0.5 7.5t-2.5 7t-3.5 4.5q-13 8 -27 13t-28.5 9t-29 5.5t-29.5 2.5v-1zM363 204q-16 9 -32.5 14.5t-34 10.5t-35 6.5t-35.5 2.5q-10 -1 -20 -1.5t-19.5 -2t-19.5 -3t-19 -5.5q-3 0 -5.5 -3t-4 -6t-2 -7.5t0.5 -6.5
q1 -4 2.5 -6t4.5 -4t6 -2h6q8 3 17 4.5t17.5 3t17.5 2t18 1.5q16 -1 32 -2.5t31 -6t30 -9.5t29 -13q1 0 2 -0.5t2 -0.5t2 -0.5t1 0.5q3 -1 5 1l3.5 3.5t3 4.5t2.5 4q2 4 2 6.5t-1 5.5t-3 5t-4 5v-1zM256 479q-53 1 -99.5 -19.5t-81.5 -55t-55 -81.5t-20 -99q0 -54 20 -100
t55 -81.5t81.5 -55t99.5 -20.5q53 1 99.5 20.5t81.5 55t55 81.5t20 100q0 52 -20 99t-55 81.5t-81.5 55t-99.5 19.5v0zM256 32q-40 -1 -75 14.5t-61 41t-41 61t-15 74.5q0 41 15 75.5t41 61t61 41t75 15.5q40 -1 75 -15.5t61 -41t41 -61t15 -75.5q0 -39 -15 -74.5t-41 -61
t-61 -41t-75 -14.5v0z" />
    <glyph glyph-name="uniE0C0" unicode="&#xe0c0;" 
d="M256 480q-53 0 -99.5 -20t-81.5 -55t-55 -81.5t-20 -99.5t20 -99.5t55 -81.5t81.5 -55t99.5 -20t99.5 20t81.5 55t55 81.5t20 99.5t-20 99.5t-55 81.5t-81.5 55t-99.5 20v0zM416 224v-149q0 -2 -1 -4t-2.5 -3.5t-3.5 -2.5t-4 -1h-293q-3 0 -6 1.5t-5 3.5t-3.5 5t-1.5 6
v293q0 2 1 4t2.5 3.5t3.5 2.5t4 1h293q3 0 6 -1.5t5 -3.5t3.5 -5t1.5 -6v-144v0zM128 224h128v-128h-128v128zM256 352h128v-128h-128v128z" />
    <glyph glyph-name="uniE0C1" unicode="&#xe0c1;" 
d="M416 480h-320q-20 0 -37.5 -7.5t-30.5 -20.5t-20.5 -30.5t-7.5 -37.5v-320q0 -20 7.5 -37.5t20.5 -30.5t30.5 -20.5t37.5 -7.5h320q20 0 37.5 7.5t30.5 20.5t20.5 30.5t7.5 37.5v320q0 20 -7.5 37.5t-20.5 30.5t-30.5 20.5t-37.5 7.5v0zM322 224h-42v-154h-57v154h-39v53
h39v31q0 16 2.5 29t9.5 22t19 14t31 5h42v-53h-26q-7 0 -11.5 -1.5t-6.5 -4t-2.5 -6.5t-0.5 -10v-26h48l-6 -53v0z" />
    <glyph glyph-name="uniE0C2" unicode="&#xe0c2;" 
d="M416 480h-320q-20 0 -37.5 -7.5t-30.5 -20.5t-20.5 -30.5t-7.5 -37.5v-320q0 -20 7.5 -37.5t20.5 -30.5t30.5 -20.5t37.5 -7.5h320q20 0 37.5 7.5t30.5 20.5t20.5 30.5t7.5 37.5v320q0 20 -7.5 37.5t-20.5 30.5t-30.5 20.5t-37.5 7.5v0zM383 281v-2t0.5 -2t0.5 -2v-2
q0 -31 -12 -63t-34.5 -57.5t-56 -42t-77.5 -16.5q-13 0 -26 2t-25 5.5t-23.5 9t-21.5 11.5h3h4t4 -0.5t4 -0.5q11 0 21.5 2t20.5 5.5t19 8.5t17 11q-10 1 -19.5 4t-17.5 9t-13.5 14t-8.5 17q1 0 2.5 -0.5t2.5 -0.5h3h3h4.5t4 0.5t4.5 1t5 0.5q-12 2 -21 8t-16 14t-10.5 18.5
t-4.5 21.5q1 0 0.5 0t0 0.5t0 0.5t0.5 0q2 -2 6 -3.5t7 -2.5t7.5 -1.5t7.5 -0.5q-6 4 -11.5 9.5t-9 12.5t-6 14.5t-1.5 15.5q-1 5 0.5 9t2 8t2.5 8t3 7q13 -14 26.5 -26t30.5 -20.5t35 -13.5t39 -6q-1 2 -1 3.5t-1 3.5t-0.5 4t-0.5 4q1 13 5.5 24.5t13.5 20t20 13.5t25 5
q6 0 13 -1.5t12.5 -4t11 -6.5t8.5 -8q7 1 11.5 2.5t10 3.5t10 4t9.5 5q-2 -6 -4.5 -11t-6.5 -9t-7.5 -8t-9.5 -7q5 1 9.5 1.5t9.5 2t9 3t9 3.5q-4 -5 -7 -9.5t-7.5 -8.5t-8.5 -7.5t-10 -7.5h1z" />
    <glyph glyph-name="uniE0C3" unicode="&#xe0c3;" 
d="M416 480h-320q-20 0 -37.5 -7.5t-30.5 -20.5t-20.5 -30.5t-7.5 -37.5v-320q0 -20 7.5 -37.5t20.5 -30.5t30.5 -20.5t37.5 -7.5h320q20 0 37.5 7.5t30.5 20.5t20.5 30.5t7.5 37.5v320q0 20 -7.5 37.5t-20.5 30.5t-30.5 20.5t-37.5 7.5v0zM276 155q-7 0 -12.5 2t-10 5l-9 6
t-9.5 6q-3 -15 -7 -30.5t-9 -29t-12.5 -25t-18.5 -19.5q-4 24 -2 45.5t6 41t9.5 38.5t9.5 38q-6 11 -6 26.5t5.5 28t16 19t23.5 1.5q18 -7 14.5 -25t-9.5 -38t-7 -37t20 -22q22 -4 37.5 12t22 40t4 49.5t-17.5 40.5q-19 20 -46 21.5t-49.5 -10.5t-37.5 -35.5t-9 -52.5
q0 -7 4 -12t6 -10.5t2.5 -12t-5.5 -16.5q-12 3 -21 9t-13.5 15.5t-7 21t-0.5 25.5q-1 22 9 40.5t24 32t32.5 22t37.5 11.5q25 2 47 -2t41 -15t30.5 -28t15.5 -40q3 -25 -2 -50.5t-18 -45.5t-32.5 -31.5t-46.5 -9.5h1z" />
    <glyph glyph-name="uniE0C4" unicode="&#xe0c4;" 
d="M416 480h-320q-20 0 -37.5 -7.5t-30.5 -20.5t-20.5 -30.5t-7.5 -37.5v-320q0 -20 7.5 -37.5t20.5 -30.5t30.5 -20.5t37.5 -7.5h320q20 0 37.5 7.5t30.5 20.5t20.5 30.5t7.5 37.5v320q0 20 -7.5 37.5t-20.5 30.5t-30.5 20.5t-37.5 7.5v0zM185 52q-22 0 -41 4t-33 12
t-22.5 19t-8.5 25t7.5 27t21 23.5t32 16.5t39.5 6h5h4.5h4.5h4q-3 3 -5.5 6t-4.5 6.5t-3 7.5t-1 9q0 2 0.5 4.5l1 5t1.5 4.5t2 5q-1 0 -2 -0.5t-2 -0.5h-2.5h-2.5q-18 0 -32 6t-24.5 16t-16 23.5t-5.5 28.5q0 16 7.5 29.5t20 23.5t28.5 16t33 6h27h33.5h29h12.5l-23 -16h-32
q8 -3 14 -9t10 -14t6.5 -17.5t2.5 -18.5q0 -8 -2.5 -15.5t-6 -14.5t-9 -13t-11.5 -10q-6 -5 -10 -9t-6 -7t-3 -6.5t-1 -7.5q0 -3 3 -7.5t7 -9t9 -8.5t8 -6q10 -8 17 -15t11 -15t6 -17t2 -20q0 -14 -6.5 -27t-19.5 -23.5t-31.5 -16.5t-42.5 -6v0zM448 255h-64v-63h-32v63h-64
v33h64v64h32v-64h64v-33v0zM234 304q-2 13 -7 24t-12.5 19.5t-17 14t-19.5 5.5t-18 -4.5t-13 -12.5t-7.5 -19t-0.5 -24t7 -24.5t12.5 -20.5t17 -14t19.5 -5q10 -1 18 4t13 13t7.5 19.5t0.5 24.5v0zM217 172q-3 1 -6 1.5t-6.5 1t-6.5 1t-7 0.5q-14 0 -27.5 -4.5t-24 -11.5
t-16.5 -16.5t-6 -20.5q0 -12 5 -21.5t14 -17t21.5 -12t26.5 -4.5q21 0 35 4t23 11t13 17t4 21q0 1 -0.5 2.5t-0.5 3v2.5t-1 3q-1 6 -4.5 11t-9 9.5t-12 9t-14.5 10.5v0z" />
    <glyph glyph-name="uniE0C5" unicode="&#xe0c5;" 
d="M416 480h-320q-20 0 -37.5 -7.5t-30.5 -20.5t-20.5 -30.5t-7.5 -37.5v-320q0 -20 7.5 -37.5t20.5 -30.5t30.5 -20.5t37.5 -7.5h320q20 0 37.5 7.5t30.5 20.5t20.5 30.5t7.5 37.5v320q0 20 -7.5 37.5t-20.5 30.5t-30.5 20.5t-37.5 7.5v0zM352 243h-77v-70v-12v-9t0.5 -7
t1.5 -5l2 -4t2.5 -3.5t3.5 -3t4 -2.5q2 -2 5 -3t5.5 -2t6 -1.5t6.5 -0.5q6 0 10.5 0.5t9.5 2t9.5 4t10.5 6.5v-47q-5 -2 -9.5 -4t-9 -3.5t-8.5 -2.5l-8 -2t-8.5 -1.5t-8.5 -1t-8.5 -1t-9.5 -0.5t-9.5 0.5t-8 1t-7.5 1.5t-8 3q-4 1 -7.5 2.5t-7 3.5l-7 4t-5.5 5
q-3 2 -5.5 4.5t-4.5 5.5t-3.5 5.5t-2.5 5.5l-2 6t-1.5 7t-1 9t-0.5 10v108h-41v43q5 2 9.5 3.5t9 3.5t8.5 4.5t7 5.5l6 6t5.5 6t5 7t4.5 7q2 4 3.5 8.5t3 9.5t2.5 10.5t2 11.5h49v-77h77v-58v0z" />
    <glyph glyph-name="uniE0C6" unicode="&#xe0c6;" 
d="M416 480h-320q-20 0 -37.5 -7.5t-30.5 -20.5t-20.5 -30.5t-7.5 -37.5v-320q0 -20 7.5 -37.5t20.5 -30.5t30.5 -20.5t37.5 -7.5h320q20 0 37.5 7.5t30.5 20.5t20.5 30.5t7.5 37.5v320q0 20 -7.5 37.5t-20.5 30.5t-30.5 20.5t-37.5 7.5v0zM256 293q-5 0 -9 -2t-7 -5
t-5 -7.5t-2 -8.5v-92q0 -14 -5.5 -26.5t-14.5 -22t-21.5 -14.5t-26.5 -5q-15 0 -27.5 5t-21.5 14.5t-14.5 22t-5.5 26.5v46h46v-46q0 -4 1.5 -8.5t4.5 -7.5t7.5 -5t9.5 -2q4 0 8.5 2t7.5 5t4.5 7.5t1.5 8.5v92q0 14 5.5 26.5t15 22t22 14.5t26.5 5t26.5 -5t22 -14t15 -20.5
t5.5 -23.5v-22l-30 -9l-16 9v22q0 3 -2 6t-5 5.5t-7 4.5t-9 2v0zM416 178q0 -14 -5.5 -26.5t-14.5 -22t-21.5 -14.5t-27.5 -5q-14 0 -26.5 5.5t-21.5 15t-14.5 23t-5.5 29.5v45l16 -9l30 9v-45q0 -6 1.5 -11.5t4.5 -9t7.5 -5.5t8.5 -2q5 0 9.5 2t7.5 5t4.5 7.5t1.5 8.5v46
h46v-46v0z" />
    <glyph glyph-name="uniE0C7" unicode="&#xe0c7;" 
d="M416 480h-320q-20 0 -37.5 -7.5t-30.5 -20.5t-20.5 -30.5t-7.5 -37.5v-320q0 -20 7.5 -37.5t20.5 -30.5t30.5 -20.5t37.5 -7.5h320q20 0 37.5 7.5t30.5 20.5t20.5 30.5t7.5 37.5v320q0 20 -7.5 37.5t-20.5 30.5t-30.5 20.5t-37.5 7.5v0zM59 224q0 10 1 20.5t3 20t5.5 19
t7.5 18.5l94 -251q-25 12 -45.5 29.5t-35 40t-22.5 48.5t-8 55v0zM256 31q-7 1 -14.5 1t-14 1.5t-13.5 2.5t-14 4l62 160l58 -154q0 -2 0.5 -2t0.5 -0.5v-0.5v-1q-7 -2 -15 -4.5t-16.5 -3.5t-16.5 -2t-17 0v-1zM283 313q5 1 9 1t7 0.5t5 0.5t2 1q4 -1 5.5 2.5t1.5 5.5
t-2.5 5t-6.5 2q0 1 -5 0t-13 -1t-17 -1t-17 0q-7 -1 -16 0t-17 1t-13.5 1t-5.5 0q-4 1 -6 -2t-2.5 -5.5t1.5 -5.5t6 -2q0 -1 1.5 -1t4.5 -0.5t6.5 -0.5t7.5 -1l31 -81l-47 -127l-68 209q5 -1 9 0t7 0.5t5 0.5t2 0q4 1 5.5 3.5t1.5 5.5t-2.5 5t-5.5 3q0 -1 -5.5 -1t-13.5 -1
t-17 -1t-17 -1q-1 1 -2.5 0.5t-3.5 0t-3.5 0t-3.5 0.5q14 19 31.5 35.5t38.5 27.5t45 17.5t50 5.5q19 1 37.5 -3t35.5 -10t32 -16t28 -20q0 -1 -0.5 -0.5t-0.5 0t-0.5 0t-0.5 -0.5q-8 1 -14 -2.5t-10.5 -7.5t-7 -11t-2.5 -12q0 -7 2 -12t4.5 -11t6 -11t7.5 -12q3 -4 5 -8.5
l4 -9t3 -11t1 -14.5q0 -7 -1.5 -13.5t-3.5 -14.5t-4.5 -16t-5.5 -19l-20 -63l-68 196v0zM355 58l60 169q5 11 7.5 19.5t4.5 17.5t2.5 16.5t0.5 15.5v5v5t-0.5 5t-0.5 4q6 -9 10.5 -20.5t7.5 -22.5t4.5 -23.5t1.5 -24.5q0 -28 -7 -52t-20 -45.5t-31 -38.5t-40 -31v1z" />
    <glyph glyph-name="uniE0C8" unicode="&#xe0c8;" 
d="M416 480h-320q-20 0 -37.5 -7.5t-30.5 -20.5t-20.5 -30.5t-7.5 -37.5v-320q0 -20 7.5 -37.5t20.5 -30.5t30.5 -20.5t37.5 -7.5h320q20 0 37.5 7.5t30.5 20.5t20.5 30.5t7.5 37.5v320q0 20 -7.5 37.5t-20.5 30.5t-30.5 20.5t-37.5 7.5v0zM416 76q0 -3 -1 -5t-2.5 -3.5
t-3.5 -2.5t-5 -1h-296q-3 0 -5 1t-3.5 2.5t-2.5 3.5t-1 5v296q0 3 1 5t2.5 3.5t3.5 2.5t5 1h296q3 0 5 -1t3.5 -2.5t2.5 -3.5t1 -5v-296v0zM320 352h64v-64h-64v64zM192 224q0 -13 5 -25t13.5 -20.5t20.5 -13.5t25 -5t25 5t20.5 13.5t13.5 20.5t5 25t-5 25t-13.5 20.5
t-20.5 13.5t-25 5t-25 -5t-20.5 -13.5t-13.5 -20.5t-5 -25v0zM351 224q0 -20 -7.5 -37t-20.5 -30t-30 -20.5t-37 -7.5t-37 7.5t-30 20.5t-20.5 30t-7.5 37v4.5t0.5 3.5t0.5 4t1 4h-35v-144h256v144h-35q1 -2 1 -4t0.5 -4t0.5 -3.5v-4.5v0z" />
    </font>
</defs>
</svg>
